<?xml version="1.0" encoding="utf-8" standalone="no"?>
<!DOCTYPE svg PUBLIC "-//W3C//DTD SVG 1.1//EN"
  "http://www.w3.org/Graphics/SVG/1.1/DTD/svg11.dtd">
<svg xmlns:xlink="http://www.w3.org/1999/xlink" width="1008pt" height="576pt" viewBox="0 0 1008 576" xmlns="http://www.w3.org/2000/svg" version="1.1">
 <metadata>
  <rdf:RDF xmlns:dc="http://purl.org/dc/elements/1.1/" xmlns:cc="http://creativecommons.org/ns#" xmlns:rdf="http://www.w3.org/1999/02/22-rdf-syntax-ns#">
   <cc:Work>
    <dc:type rdf:resource="http://purl.org/dc/dcmitype/StillImage"/>
    <dc:date>2026-01-16T16:37:40.165754</dc:date>
    <dc:format>image/svg+xml</dc:format>
    <dc:creator>
     <cc:Agent>
      <dc:title>Matplotlib v3.10.8, https://matplotlib.org/</dc:title>
     </cc:Agent>
    </dc:creator>
   </cc:Work>
  </rdf:RDF>
 </metadata>
 <defs>
  <style type="text/css">*{stroke-linejoin: round; stroke-linecap: butt}</style>
 </defs>
 <g id="figure_1">
  <g id="patch_1">
   <path d="M 0 576 
L 1008 576 
L 1008 0 
L 0 0 
z
" style="fill: #ffffff"/>
  </g>
  <g id="axes_1">
   <g id="patch_2">
    <path d="M 75.8 531.16 
L 766.53 531.16 
L 766.53 27.6 
L 75.8 27.6 
z
" style="fill: #ffffff"/>
   </g>
   <g id="matplotlib.axis_1">
    <g id="xtick_1">
     <g id="line2d_1">
      <path d="M 107.196818 531.16 
L 107.196818 27.6 
" clip-path="url(#p75d1f914eb)" style="fill: none; stroke: #b0b0b0; stroke-opacity: 0.3; stroke-width: 0.8; stroke-linecap: square"/>
     </g>
     <g id="line2d_2">
      <defs>
       <path id="mb93ab0479c" d="M 0 0 
L 0 3.5 
" style="stroke: #000000; stroke-width: 0.8"/>
      </defs>
      <g>
       <use xlink:href="#mb93ab0479c" x="107.196818" y="531.16" style="stroke: #000000; stroke-width: 0.8"/>
      </g>
     </g>
     <g id="text_1">
      <!-- 0 -->
      <g transform="translate(104.015568 545.758438) scale(0.1 -0.1)">
       <defs>
        <path id="DejaVuSans-30" d="M 2034 4250 
Q 1547 4250 1301 3770 
Q 1056 3291 1056 2328 
Q 1056 1369 1301 889 
Q 1547 409 2034 409 
Q 2525 409 2770 889 
Q 3016 1369 3016 2328 
Q 3016 3291 2770 3770 
Q 2525 4250 2034 4250 
z
M 2034 4750 
Q 2819 4750 3233 4129 
Q 3647 3509 3647 2328 
Q 3647 1150 3233 529 
Q 2819 -91 2034 -91 
Q 1250 -91 836 529 
Q 422 1150 422 2328 
Q 422 3509 836 4129 
Q 1250 4750 2034 4750 
z
" transform="scale(0.015625)"/>
       </defs>
       <use xlink:href="#DejaVuSans-30"/>
      </g>
     </g>
    </g>
    <g id="xtick_2">
     <g id="line2d_3">
      <path d="M 194.410202 531.16 
L 194.410202 27.6 
" clip-path="url(#p75d1f914eb)" style="fill: none; stroke: #b0b0b0; stroke-opacity: 0.3; stroke-width: 0.8; stroke-linecap: square"/>
     </g>
     <g id="line2d_4">
      <g>
       <use xlink:href="#mb93ab0479c" x="194.410202" y="531.16" style="stroke: #000000; stroke-width: 0.8"/>
      </g>
     </g>
     <g id="text_2">
      <!-- 2000 -->
      <g transform="translate(181.685202 545.758438) scale(0.1 -0.1)">
       <defs>
        <path id="DejaVuSans-32" d="M 1228 531 
L 3431 531 
L 3431 0 
L 469 0 
L 469 531 
Q 828 903 1448 1529 
Q 2069 2156 2228 2338 
Q 2531 2678 2651 2914 
Q 2772 3150 2772 3378 
Q 2772 3750 2511 3984 
Q 2250 4219 1831 4219 
Q 1534 4219 1204 4116 
Q 875 4013 500 3803 
L 500 4441 
Q 881 4594 1212 4672 
Q 1544 4750 1819 4750 
Q 2544 4750 2975 4387 
Q 3406 4025 3406 3419 
Q 3406 3131 3298 2873 
Q 3191 2616 2906 2266 
Q 2828 2175 2409 1742 
Q 1991 1309 1228 531 
z
" transform="scale(0.015625)"/>
       </defs>
       <use xlink:href="#DejaVuSans-32"/>
       <use xlink:href="#DejaVuSans-30" transform="translate(63.623047 0)"/>
       <use xlink:href="#DejaVuSans-30" transform="translate(127.246094 0)"/>
       <use xlink:href="#DejaVuSans-30" transform="translate(190.869141 0)"/>
      </g>
     </g>
    </g>
    <g id="xtick_3">
     <g id="line2d_5">
      <path d="M 281.623586 531.16 
L 281.623586 27.6 
" clip-path="url(#p75d1f914eb)" style="fill: none; stroke: #b0b0b0; stroke-opacity: 0.3; stroke-width: 0.8; stroke-linecap: square"/>
     </g>
     <g id="line2d_6">
      <g>
       <use xlink:href="#mb93ab0479c" x="281.623586" y="531.16" style="stroke: #000000; stroke-width: 0.8"/>
      </g>
     </g>
     <g id="text_3">
      <!-- 4000 -->
      <g transform="translate(268.898586 545.758438) scale(0.1 -0.1)">
       <defs>
        <path id="DejaVuSans-34" d="M 2419 4116 
L 825 1625 
L 2419 1625 
L 2419 4116 
z
M 2253 4666 
L 3047 4666 
L 3047 1625 
L 3713 1625 
L 3713 1100 
L 3047 1100 
L 3047 0 
L 2419 0 
L 2419 1100 
L 313 1100 
L 313 1709 
L 2253 4666 
z
" transform="scale(0.015625)"/>
       </defs>
       <use xlink:href="#DejaVuSans-34"/>
       <use xlink:href="#DejaVuSans-30" transform="translate(63.623047 0)"/>
       <use xlink:href="#DejaVuSans-30" transform="translate(127.246094 0)"/>
       <use xlink:href="#DejaVuSans-30" transform="translate(190.869141 0)"/>
      </g>
     </g>
    </g>
    <g id="xtick_4">
     <g id="line2d_7">
      <path d="M 368.83697 531.16 
L 368.83697 27.6 
" clip-path="url(#p75d1f914eb)" style="fill: none; stroke: #b0b0b0; stroke-opacity: 0.3; stroke-width: 0.8; stroke-linecap: square"/>
     </g>
     <g id="line2d_8">
      <g>
       <use xlink:href="#mb93ab0479c" x="368.83697" y="531.16" style="stroke: #000000; stroke-width: 0.8"/>
      </g>
     </g>
     <g id="text_4">
      <!-- 6000 -->
      <g transform="translate(356.11197 545.758438) scale(0.1 -0.1)">
       <defs>
        <path id="DejaVuSans-36" d="M 2113 2584 
Q 1688 2584 1439 2293 
Q 1191 2003 1191 1497 
Q 1191 994 1439 701 
Q 1688 409 2113 409 
Q 2538 409 2786 701 
Q 3034 994 3034 1497 
Q 3034 2003 2786 2293 
Q 2538 2584 2113 2584 
z
M 3366 4563 
L 3366 3988 
Q 3128 4100 2886 4159 
Q 2644 4219 2406 4219 
Q 1781 4219 1451 3797 
Q 1122 3375 1075 2522 
Q 1259 2794 1537 2939 
Q 1816 3084 2150 3084 
Q 2853 3084 3261 2657 
Q 3669 2231 3669 1497 
Q 3669 778 3244 343 
Q 2819 -91 2113 -91 
Q 1303 -91 875 529 
Q 447 1150 447 2328 
Q 447 3434 972 4092 
Q 1497 4750 2381 4750 
Q 2619 4750 2861 4703 
Q 3103 4656 3366 4563 
z
" transform="scale(0.015625)"/>
       </defs>
       <use xlink:href="#DejaVuSans-36"/>
       <use xlink:href="#DejaVuSans-30" transform="translate(63.623047 0)"/>
       <use xlink:href="#DejaVuSans-30" transform="translate(127.246094 0)"/>
       <use xlink:href="#DejaVuSans-30" transform="translate(190.869141 0)"/>
      </g>
     </g>
    </g>
    <g id="xtick_5">
     <g id="line2d_9">
      <path d="M 456.050354 531.16 
L 456.050354 27.6 
" clip-path="url(#p75d1f914eb)" style="fill: none; stroke: #b0b0b0; stroke-opacity: 0.3; stroke-width: 0.8; stroke-linecap: square"/>
     </g>
     <g id="line2d_10">
      <g>
       <use xlink:href="#mb93ab0479c" x="456.050354" y="531.16" style="stroke: #000000; stroke-width: 0.8"/>
      </g>
     </g>
     <g id="text_5">
      <!-- 8000 -->
      <g transform="translate(443.325354 545.758438) scale(0.1 -0.1)">
       <defs>
        <path id="DejaVuSans-38" d="M 2034 2216 
Q 1584 2216 1326 1975 
Q 1069 1734 1069 1313 
Q 1069 891 1326 650 
Q 1584 409 2034 409 
Q 2484 409 2743 651 
Q 3003 894 3003 1313 
Q 3003 1734 2745 1975 
Q 2488 2216 2034 2216 
z
M 1403 2484 
Q 997 2584 770 2862 
Q 544 3141 544 3541 
Q 544 4100 942 4425 
Q 1341 4750 2034 4750 
Q 2731 4750 3128 4425 
Q 3525 4100 3525 3541 
Q 3525 3141 3298 2862 
Q 3072 2584 2669 2484 
Q 3125 2378 3379 2068 
Q 3634 1759 3634 1313 
Q 3634 634 3220 271 
Q 2806 -91 2034 -91 
Q 1263 -91 848 271 
Q 434 634 434 1313 
Q 434 1759 690 2068 
Q 947 2378 1403 2484 
z
M 1172 3481 
Q 1172 3119 1398 2916 
Q 1625 2713 2034 2713 
Q 2441 2713 2670 2916 
Q 2900 3119 2900 3481 
Q 2900 3844 2670 4047 
Q 2441 4250 2034 4250 
Q 1625 4250 1398 4047 
Q 1172 3844 1172 3481 
z
" transform="scale(0.015625)"/>
       </defs>
       <use xlink:href="#DejaVuSans-38"/>
       <use xlink:href="#DejaVuSans-30" transform="translate(63.623047 0)"/>
       <use xlink:href="#DejaVuSans-30" transform="translate(127.246094 0)"/>
       <use xlink:href="#DejaVuSans-30" transform="translate(190.869141 0)"/>
      </g>
     </g>
    </g>
    <g id="xtick_6">
     <g id="line2d_11">
      <path d="M 543.263737 531.16 
L 543.263737 27.6 
" clip-path="url(#p75d1f914eb)" style="fill: none; stroke: #b0b0b0; stroke-opacity: 0.3; stroke-width: 0.8; stroke-linecap: square"/>
     </g>
     <g id="line2d_12">
      <g>
       <use xlink:href="#mb93ab0479c" x="543.263737" y="531.16" style="stroke: #000000; stroke-width: 0.8"/>
      </g>
     </g>
     <g id="text_6">
      <!-- 10000 -->
      <g transform="translate(527.357487 545.758438) scale(0.1 -0.1)">
       <defs>
        <path id="DejaVuSans-31" d="M 794 531 
L 1825 531 
L 1825 4091 
L 703 3866 
L 703 4441 
L 1819 4666 
L 2450 4666 
L 2450 531 
L 3481 531 
L 3481 0 
L 794 0 
L 794 531 
z
" transform="scale(0.015625)"/>
       </defs>
       <use xlink:href="#DejaVuSans-31"/>
       <use xlink:href="#DejaVuSans-30" transform="translate(63.623047 0)"/>
       <use xlink:href="#DejaVuSans-30" transform="translate(127.246094 0)"/>
       <use xlink:href="#DejaVuSans-30" transform="translate(190.869141 0)"/>
       <use xlink:href="#DejaVuSans-30" transform="translate(254.492188 0)"/>
      </g>
     </g>
    </g>
    <g id="xtick_7">
     <g id="line2d_13">
      <path d="M 630.477121 531.16 
L 630.477121 27.6 
" clip-path="url(#p75d1f914eb)" style="fill: none; stroke: #b0b0b0; stroke-opacity: 0.3; stroke-width: 0.8; stroke-linecap: square"/>
     </g>
     <g id="line2d_14">
      <g>
       <use xlink:href="#mb93ab0479c" x="630.477121" y="531.16" style="stroke: #000000; stroke-width: 0.8"/>
      </g>
     </g>
     <g id="text_7">
      <!-- 12000 -->
      <g transform="translate(614.570871 545.758438) scale(0.1 -0.1)">
       <use xlink:href="#DejaVuSans-31"/>
       <use xlink:href="#DejaVuSans-32" transform="translate(63.623047 0)"/>
       <use xlink:href="#DejaVuSans-30" transform="translate(127.246094 0)"/>
       <use xlink:href="#DejaVuSans-30" transform="translate(190.869141 0)"/>
       <use xlink:href="#DejaVuSans-30" transform="translate(254.492188 0)"/>
      </g>
     </g>
    </g>
    <g id="xtick_8">
     <g id="line2d_15">
      <path d="M 717.690505 531.16 
L 717.690505 27.6 
" clip-path="url(#p75d1f914eb)" style="fill: none; stroke: #b0b0b0; stroke-opacity: 0.3; stroke-width: 0.8; stroke-linecap: square"/>
     </g>
     <g id="line2d_16">
      <g>
       <use xlink:href="#mb93ab0479c" x="717.690505" y="531.16" style="stroke: #000000; stroke-width: 0.8"/>
      </g>
     </g>
     <g id="text_8">
      <!-- 14000 -->
      <g transform="translate(701.784255 545.758438) scale(0.1 -0.1)">
       <use xlink:href="#DejaVuSans-31"/>
       <use xlink:href="#DejaVuSans-34" transform="translate(63.623047 0)"/>
       <use xlink:href="#DejaVuSans-30" transform="translate(127.246094 0)"/>
       <use xlink:href="#DejaVuSans-30" transform="translate(190.869141 0)"/>
       <use xlink:href="#DejaVuSans-30" transform="translate(254.492188 0)"/>
      </g>
     </g>
    </g>
    <g id="text_9">
     <!-- Time (seconds) -->
     <g transform="translate(375.370938 560.95625) scale(0.12 -0.12)">
      <defs>
       <path id="DejaVuSans-54" d="M -19 4666 
L 3928 4666 
L 3928 4134 
L 2272 4134 
L 2272 0 
L 1638 0 
L 1638 4134 
L -19 4134 
L -19 4666 
z
" transform="scale(0.015625)"/>
       <path id="DejaVuSans-69" d="M 603 3500 
L 1178 3500 
L 1178 0 
L 603 0 
L 603 3500 
z
M 603 4863 
L 1178 4863 
L 1178 4134 
L 603 4134 
L 603 4863 
z
" transform="scale(0.015625)"/>
       <path id="DejaVuSans-6d" d="M 3328 2828 
Q 3544 3216 3844 3400 
Q 4144 3584 4550 3584 
Q 5097 3584 5394 3201 
Q 5691 2819 5691 2113 
L 5691 0 
L 5113 0 
L 5113 2094 
Q 5113 2597 4934 2840 
Q 4756 3084 4391 3084 
Q 3944 3084 3684 2787 
Q 3425 2491 3425 1978 
L 3425 0 
L 2847 0 
L 2847 2094 
Q 2847 2600 2669 2842 
Q 2491 3084 2119 3084 
Q 1678 3084 1418 2786 
Q 1159 2488 1159 1978 
L 1159 0 
L 581 0 
L 581 3500 
L 1159 3500 
L 1159 2956 
Q 1356 3278 1631 3431 
Q 1906 3584 2284 3584 
Q 2666 3584 2933 3390 
Q 3200 3197 3328 2828 
z
" transform="scale(0.015625)"/>
       <path id="DejaVuSans-65" d="M 3597 1894 
L 3597 1613 
L 953 1613 
Q 991 1019 1311 708 
Q 1631 397 2203 397 
Q 2534 397 2845 478 
Q 3156 559 3463 722 
L 3463 178 
Q 3153 47 2828 -22 
Q 2503 -91 2169 -91 
Q 1331 -91 842 396 
Q 353 884 353 1716 
Q 353 2575 817 3079 
Q 1281 3584 2069 3584 
Q 2775 3584 3186 3129 
Q 3597 2675 3597 1894 
z
M 3022 2063 
Q 3016 2534 2758 2815 
Q 2500 3097 2075 3097 
Q 1594 3097 1305 2825 
Q 1016 2553 972 2059 
L 3022 2063 
z
" transform="scale(0.015625)"/>
       <path id="DejaVuSans-20" transform="scale(0.015625)"/>
       <path id="DejaVuSans-28" d="M 1984 4856 
Q 1566 4138 1362 3434 
Q 1159 2731 1159 2009 
Q 1159 1288 1364 580 
Q 1569 -128 1984 -844 
L 1484 -844 
Q 1016 -109 783 600 
Q 550 1309 550 2009 
Q 550 2706 781 3412 
Q 1013 4119 1484 4856 
L 1984 4856 
z
" transform="scale(0.015625)"/>
       <path id="DejaVuSans-73" d="M 2834 3397 
L 2834 2853 
Q 2591 2978 2328 3040 
Q 2066 3103 1784 3103 
Q 1356 3103 1142 2972 
Q 928 2841 928 2578 
Q 928 2378 1081 2264 
Q 1234 2150 1697 2047 
L 1894 2003 
Q 2506 1872 2764 1633 
Q 3022 1394 3022 966 
Q 3022 478 2636 193 
Q 2250 -91 1575 -91 
Q 1294 -91 989 -36 
Q 684 19 347 128 
L 347 722 
Q 666 556 975 473 
Q 1284 391 1588 391 
Q 1994 391 2212 530 
Q 2431 669 2431 922 
Q 2431 1156 2273 1281 
Q 2116 1406 1581 1522 
L 1381 1569 
Q 847 1681 609 1914 
Q 372 2147 372 2553 
Q 372 3047 722 3315 
Q 1072 3584 1716 3584 
Q 2034 3584 2315 3537 
Q 2597 3491 2834 3397 
z
" transform="scale(0.015625)"/>
       <path id="DejaVuSans-63" d="M 3122 3366 
L 3122 2828 
Q 2878 2963 2633 3030 
Q 2388 3097 2138 3097 
Q 1578 3097 1268 2742 
Q 959 2388 959 1747 
Q 959 1106 1268 751 
Q 1578 397 2138 397 
Q 2388 397 2633 464 
Q 2878 531 3122 666 
L 3122 134 
Q 2881 22 2623 -34 
Q 2366 -91 2075 -91 
Q 1284 -91 818 406 
Q 353 903 353 1747 
Q 353 2603 823 3093 
Q 1294 3584 2113 3584 
Q 2378 3584 2631 3529 
Q 2884 3475 3122 3366 
z
" transform="scale(0.015625)"/>
       <path id="DejaVuSans-6f" d="M 1959 3097 
Q 1497 3097 1228 2736 
Q 959 2375 959 1747 
Q 959 1119 1226 758 
Q 1494 397 1959 397 
Q 2419 397 2687 759 
Q 2956 1122 2956 1747 
Q 2956 2369 2687 2733 
Q 2419 3097 1959 3097 
z
M 1959 3584 
Q 2709 3584 3137 3096 
Q 3566 2609 3566 1747 
Q 3566 888 3137 398 
Q 2709 -91 1959 -91 
Q 1206 -91 779 398 
Q 353 888 353 1747 
Q 353 2609 779 3096 
Q 1206 3584 1959 3584 
z
" transform="scale(0.015625)"/>
       <path id="DejaVuSans-6e" d="M 3513 2113 
L 3513 0 
L 2938 0 
L 2938 2094 
Q 2938 2591 2744 2837 
Q 2550 3084 2163 3084 
Q 1697 3084 1428 2787 
Q 1159 2491 1159 1978 
L 1159 0 
L 581 0 
L 581 3500 
L 1159 3500 
L 1159 2956 
Q 1366 3272 1645 3428 
Q 1925 3584 2291 3584 
Q 2894 3584 3203 3211 
Q 3513 2838 3513 2113 
z
" transform="scale(0.015625)"/>
       <path id="DejaVuSans-64" d="M 2906 2969 
L 2906 4863 
L 3481 4863 
L 3481 0 
L 2906 0 
L 2906 525 
Q 2725 213 2448 61 
Q 2172 -91 1784 -91 
Q 1150 -91 751 415 
Q 353 922 353 1747 
Q 353 2572 751 3078 
Q 1150 3584 1784 3584 
Q 2172 3584 2448 3432 
Q 2725 3281 2906 2969 
z
M 947 1747 
Q 947 1113 1208 752 
Q 1469 391 1925 391 
Q 2381 391 2643 752 
Q 2906 1113 2906 1747 
Q 2906 2381 2643 2742 
Q 2381 3103 1925 3103 
Q 1469 3103 1208 2742 
Q 947 2381 947 1747 
z
" transform="scale(0.015625)"/>
       <path id="DejaVuSans-29" d="M 513 4856 
L 1013 4856 
Q 1481 4119 1714 3412 
Q 1947 2706 1947 2009 
Q 1947 1309 1714 600 
Q 1481 -109 1013 -844 
L 513 -844 
Q 928 -128 1133 580 
Q 1338 1288 1338 2009 
Q 1338 2731 1133 3434 
Q 928 4138 513 4856 
z
" transform="scale(0.015625)"/>
      </defs>
      <use xlink:href="#DejaVuSans-54"/>
      <use xlink:href="#DejaVuSans-69" transform="translate(57.958984 0)"/>
      <use xlink:href="#DejaVuSans-6d" transform="translate(85.742188 0)"/>
      <use xlink:href="#DejaVuSans-65" transform="translate(183.154297 0)"/>
      <use xlink:href="#DejaVuSans-20" transform="translate(244.677734 0)"/>
      <use xlink:href="#DejaVuSans-28" transform="translate(276.464844 0)"/>
      <use xlink:href="#DejaVuSans-73" transform="translate(315.478516 0)"/>
      <use xlink:href="#DejaVuSans-65" transform="translate(367.578125 0)"/>
      <use xlink:href="#DejaVuSans-63" transform="translate(429.101562 0)"/>
      <use xlink:href="#DejaVuSans-6f" transform="translate(484.082031 0)"/>
      <use xlink:href="#DejaVuSans-6e" transform="translate(545.263672 0)"/>
      <use xlink:href="#DejaVuSans-64" transform="translate(608.642578 0)"/>
      <use xlink:href="#DejaVuSans-73" transform="translate(672.119141 0)"/>
      <use xlink:href="#DejaVuSans-29" transform="translate(724.21875 0)"/>
     </g>
    </g>
   </g>
   <g id="matplotlib.axis_2">
    <g id="ytick_1">
     <g id="line2d_17">
      <path d="M 75.8 508.270909 
L 766.53 508.270909 
" clip-path="url(#p75d1f914eb)" style="fill: none; stroke: #b0b0b0; stroke-opacity: 0.3; stroke-width: 0.8; stroke-linecap: square"/>
     </g>
     <g id="line2d_18">
      <defs>
       <path id="mb4ccf0c1c2" d="M 0 0 
L -3.5 0 
" style="stroke: #000000; stroke-width: 0.8"/>
      </defs>
      <g>
       <use xlink:href="#mb4ccf0c1c2" x="75.8" y="508.270909" style="stroke: #000000; stroke-width: 0.8"/>
      </g>
     </g>
     <g id="text_10">
      <!-- 0.00000 -->
      <g transform="translate(27.446875 512.070128) scale(0.1 -0.1)">
       <defs>
        <path id="DejaVuSans-2e" d="M 684 794 
L 1344 794 
L 1344 0 
L 684 0 
L 684 794 
z
" transform="scale(0.015625)"/>
       </defs>
       <use xlink:href="#DejaVuSans-30"/>
       <use xlink:href="#DejaVuSans-2e" transform="translate(63.623047 0)"/>
       <use xlink:href="#DejaVuSans-30" transform="translate(95.410156 0)"/>
       <use xlink:href="#DejaVuSans-30" transform="translate(159.033203 0)"/>
       <use xlink:href="#DejaVuSans-30" transform="translate(222.65625 0)"/>
       <use xlink:href="#DejaVuSans-30" transform="translate(286.279297 0)"/>
       <use xlink:href="#DejaVuSans-30" transform="translate(349.902344 0)"/>
      </g>
     </g>
    </g>
    <g id="ytick_2">
     <g id="line2d_19">
      <path d="M 75.8 441.42995 
L 766.53 441.42995 
" clip-path="url(#p75d1f914eb)" style="fill: none; stroke: #b0b0b0; stroke-opacity: 0.3; stroke-width: 0.8; stroke-linecap: square"/>
     </g>
     <g id="line2d_20">
      <g>
       <use xlink:href="#mb4ccf0c1c2" x="75.8" y="441.42995" style="stroke: #000000; stroke-width: 0.8"/>
      </g>
     </g>
     <g id="text_11">
      <!-- 0.00025 -->
      <g transform="translate(27.446875 445.229169) scale(0.1 -0.1)">
       <defs>
        <path id="DejaVuSans-35" d="M 691 4666 
L 3169 4666 
L 3169 4134 
L 1269 4134 
L 1269 2991 
Q 1406 3038 1543 3061 
Q 1681 3084 1819 3084 
Q 2600 3084 3056 2656 
Q 3513 2228 3513 1497 
Q 3513 744 3044 326 
Q 2575 -91 1722 -91 
Q 1428 -91 1123 -41 
Q 819 9 494 109 
L 494 744 
Q 775 591 1075 516 
Q 1375 441 1709 441 
Q 2250 441 2565 725 
Q 2881 1009 2881 1497 
Q 2881 1984 2565 2268 
Q 2250 2553 1709 2553 
Q 1456 2553 1204 2497 
Q 953 2441 691 2322 
L 691 4666 
z
" transform="scale(0.015625)"/>
       </defs>
       <use xlink:href="#DejaVuSans-30"/>
       <use xlink:href="#DejaVuSans-2e" transform="translate(63.623047 0)"/>
       <use xlink:href="#DejaVuSans-30" transform="translate(95.410156 0)"/>
       <use xlink:href="#DejaVuSans-30" transform="translate(159.033203 0)"/>
       <use xlink:href="#DejaVuSans-30" transform="translate(222.65625 0)"/>
       <use xlink:href="#DejaVuSans-32" transform="translate(286.279297 0)"/>
       <use xlink:href="#DejaVuSans-35" transform="translate(349.902344 0)"/>
      </g>
     </g>
    </g>
    <g id="ytick_3">
     <g id="line2d_21">
      <path d="M 75.8 374.588992 
L 766.53 374.588992 
" clip-path="url(#p75d1f914eb)" style="fill: none; stroke: #b0b0b0; stroke-opacity: 0.3; stroke-width: 0.8; stroke-linecap: square"/>
     </g>
     <g id="line2d_22">
      <g>
       <use xlink:href="#mb4ccf0c1c2" x="75.8" y="374.588992" style="stroke: #000000; stroke-width: 0.8"/>
      </g>
     </g>
     <g id="text_12">
      <!-- 0.00050 -->
      <g transform="translate(27.446875 378.388211) scale(0.1 -0.1)">
       <use xlink:href="#DejaVuSans-30"/>
       <use xlink:href="#DejaVuSans-2e" transform="translate(63.623047 0)"/>
       <use xlink:href="#DejaVuSans-30" transform="translate(95.410156 0)"/>
       <use xlink:href="#DejaVuSans-30" transform="translate(159.033203 0)"/>
       <use xlink:href="#DejaVuSans-30" transform="translate(222.65625 0)"/>
       <use xlink:href="#DejaVuSans-35" transform="translate(286.279297 0)"/>
       <use xlink:href="#DejaVuSans-30" transform="translate(349.902344 0)"/>
      </g>
     </g>
    </g>
    <g id="ytick_4">
     <g id="line2d_23">
      <path d="M 75.8 307.748033 
L 766.53 307.748033 
" clip-path="url(#p75d1f914eb)" style="fill: none; stroke: #b0b0b0; stroke-opacity: 0.3; stroke-width: 0.8; stroke-linecap: square"/>
     </g>
     <g id="line2d_24">
      <g>
       <use xlink:href="#mb4ccf0c1c2" x="75.8" y="307.748033" style="stroke: #000000; stroke-width: 0.8"/>
      </g>
     </g>
     <g id="text_13">
      <!-- 0.00075 -->
      <g transform="translate(27.446875 311.547252) scale(0.1 -0.1)">
       <defs>
        <path id="DejaVuSans-37" d="M 525 4666 
L 3525 4666 
L 3525 4397 
L 1831 0 
L 1172 0 
L 2766 4134 
L 525 4134 
L 525 4666 
z
" transform="scale(0.015625)"/>
       </defs>
       <use xlink:href="#DejaVuSans-30"/>
       <use xlink:href="#DejaVuSans-2e" transform="translate(63.623047 0)"/>
       <use xlink:href="#DejaVuSans-30" transform="translate(95.410156 0)"/>
       <use xlink:href="#DejaVuSans-30" transform="translate(159.033203 0)"/>
       <use xlink:href="#DejaVuSans-30" transform="translate(222.65625 0)"/>
       <use xlink:href="#DejaVuSans-37" transform="translate(286.279297 0)"/>
       <use xlink:href="#DejaVuSans-35" transform="translate(349.902344 0)"/>
      </g>
     </g>
    </g>
    <g id="ytick_5">
     <g id="line2d_25">
      <path d="M 75.8 240.907075 
L 766.53 240.907075 
" clip-path="url(#p75d1f914eb)" style="fill: none; stroke: #b0b0b0; stroke-opacity: 0.3; stroke-width: 0.8; stroke-linecap: square"/>
     </g>
     <g id="line2d_26">
      <g>
       <use xlink:href="#mb4ccf0c1c2" x="75.8" y="240.907075" style="stroke: #000000; stroke-width: 0.8"/>
      </g>
     </g>
     <g id="text_14">
      <!-- 0.00100 -->
      <g transform="translate(27.446875 244.706293) scale(0.1 -0.1)">
       <use xlink:href="#DejaVuSans-30"/>
       <use xlink:href="#DejaVuSans-2e" transform="translate(63.623047 0)"/>
       <use xlink:href="#DejaVuSans-30" transform="translate(95.410156 0)"/>
       <use xlink:href="#DejaVuSans-30" transform="translate(159.033203 0)"/>
       <use xlink:href="#DejaVuSans-31" transform="translate(222.65625 0)"/>
       <use xlink:href="#DejaVuSans-30" transform="translate(286.279297 0)"/>
       <use xlink:href="#DejaVuSans-30" transform="translate(349.902344 0)"/>
      </g>
     </g>
    </g>
    <g id="ytick_6">
     <g id="line2d_27">
      <path d="M 75.8 174.066116 
L 766.53 174.066116 
" clip-path="url(#p75d1f914eb)" style="fill: none; stroke: #b0b0b0; stroke-opacity: 0.3; stroke-width: 0.8; stroke-linecap: square"/>
     </g>
     <g id="line2d_28">
      <g>
       <use xlink:href="#mb4ccf0c1c2" x="75.8" y="174.066116" style="stroke: #000000; stroke-width: 0.8"/>
      </g>
     </g>
     <g id="text_15">
      <!-- 0.00125 -->
      <g transform="translate(27.446875 177.865335) scale(0.1 -0.1)">
       <use xlink:href="#DejaVuSans-30"/>
       <use xlink:href="#DejaVuSans-2e" transform="translate(63.623047 0)"/>
       <use xlink:href="#DejaVuSans-30" transform="translate(95.410156 0)"/>
       <use xlink:href="#DejaVuSans-30" transform="translate(159.033203 0)"/>
       <use xlink:href="#DejaVuSans-31" transform="translate(222.65625 0)"/>
       <use xlink:href="#DejaVuSans-32" transform="translate(286.279297 0)"/>
       <use xlink:href="#DejaVuSans-35" transform="translate(349.902344 0)"/>
      </g>
     </g>
    </g>
    <g id="ytick_7">
     <g id="line2d_29">
      <path d="M 75.8 107.225157 
L 766.53 107.225157 
" clip-path="url(#p75d1f914eb)" style="fill: none; stroke: #b0b0b0; stroke-opacity: 0.3; stroke-width: 0.8; stroke-linecap: square"/>
     </g>
     <g id="line2d_30">
      <g>
       <use xlink:href="#mb4ccf0c1c2" x="75.8" y="107.225157" style="stroke: #000000; stroke-width: 0.8"/>
      </g>
     </g>
     <g id="text_16">
      <!-- 0.00150 -->
      <g transform="translate(27.446875 111.024376) scale(0.1 -0.1)">
       <use xlink:href="#DejaVuSans-30"/>
       <use xlink:href="#DejaVuSans-2e" transform="translate(63.623047 0)"/>
       <use xlink:href="#DejaVuSans-30" transform="translate(95.410156 0)"/>
       <use xlink:href="#DejaVuSans-30" transform="translate(159.033203 0)"/>
       <use xlink:href="#DejaVuSans-31" transform="translate(222.65625 0)"/>
       <use xlink:href="#DejaVuSans-35" transform="translate(286.279297 0)"/>
       <use xlink:href="#DejaVuSans-30" transform="translate(349.902344 0)"/>
      </g>
     </g>
    </g>
    <g id="ytick_8">
     <g id="line2d_31">
      <path d="M 75.8 40.384199 
L 766.53 40.384199 
" clip-path="url(#p75d1f914eb)" style="fill: none; stroke: #b0b0b0; stroke-opacity: 0.3; stroke-width: 0.8; stroke-linecap: square"/>
     </g>
     <g id="line2d_32">
      <g>
       <use xlink:href="#mb4ccf0c1c2" x="75.8" y="40.384199" style="stroke: #000000; stroke-width: 0.8"/>
      </g>
     </g>
     <g id="text_17">
      <!-- 0.00175 -->
      <g transform="translate(27.446875 44.183417) scale(0.1 -0.1)">
       <use xlink:href="#DejaVuSans-30"/>
       <use xlink:href="#DejaVuSans-2e" transform="translate(63.623047 0)"/>
       <use xlink:href="#DejaVuSans-30" transform="translate(95.410156 0)"/>
       <use xlink:href="#DejaVuSans-30" transform="translate(159.033203 0)"/>
       <use xlink:href="#DejaVuSans-31" transform="translate(222.65625 0)"/>
       <use xlink:href="#DejaVuSans-37" transform="translate(286.279297 0)"/>
       <use xlink:href="#DejaVuSans-35" transform="translate(349.902344 0)"/>
      </g>
     </g>
    </g>
    <g id="text_18">
     <!-- Reaction Velocity (mM/s) -->
     <g transform="translate(20.95125 353.642187) rotate(-90) scale(0.12 -0.12)">
      <defs>
       <path id="DejaVuSans-52" d="M 2841 2188 
Q 3044 2119 3236 1894 
Q 3428 1669 3622 1275 
L 4263 0 
L 3584 0 
L 2988 1197 
Q 2756 1666 2539 1819 
Q 2322 1972 1947 1972 
L 1259 1972 
L 1259 0 
L 628 0 
L 628 4666 
L 2053 4666 
Q 2853 4666 3247 4331 
Q 3641 3997 3641 3322 
Q 3641 2881 3436 2590 
Q 3231 2300 2841 2188 
z
M 1259 4147 
L 1259 2491 
L 2053 2491 
Q 2509 2491 2742 2702 
Q 2975 2913 2975 3322 
Q 2975 3731 2742 3939 
Q 2509 4147 2053 4147 
L 1259 4147 
z
" transform="scale(0.015625)"/>
       <path id="DejaVuSans-61" d="M 2194 1759 
Q 1497 1759 1228 1600 
Q 959 1441 959 1056 
Q 959 750 1161 570 
Q 1363 391 1709 391 
Q 2188 391 2477 730 
Q 2766 1069 2766 1631 
L 2766 1759 
L 2194 1759 
z
M 3341 1997 
L 3341 0 
L 2766 0 
L 2766 531 
Q 2569 213 2275 61 
Q 1981 -91 1556 -91 
Q 1019 -91 701 211 
Q 384 513 384 1019 
Q 384 1609 779 1909 
Q 1175 2209 1959 2209 
L 2766 2209 
L 2766 2266 
Q 2766 2663 2505 2880 
Q 2244 3097 1772 3097 
Q 1472 3097 1187 3025 
Q 903 2953 641 2809 
L 641 3341 
Q 956 3463 1253 3523 
Q 1550 3584 1831 3584 
Q 2591 3584 2966 3190 
Q 3341 2797 3341 1997 
z
" transform="scale(0.015625)"/>
       <path id="DejaVuSans-74" d="M 1172 4494 
L 1172 3500 
L 2356 3500 
L 2356 3053 
L 1172 3053 
L 1172 1153 
Q 1172 725 1289 603 
Q 1406 481 1766 481 
L 2356 481 
L 2356 0 
L 1766 0 
Q 1100 0 847 248 
Q 594 497 594 1153 
L 594 3053 
L 172 3053 
L 172 3500 
L 594 3500 
L 594 4494 
L 1172 4494 
z
" transform="scale(0.015625)"/>
       <path id="DejaVuSans-56" d="M 1831 0 
L 50 4666 
L 709 4666 
L 2188 738 
L 3669 4666 
L 4325 4666 
L 2547 0 
L 1831 0 
z
" transform="scale(0.015625)"/>
       <path id="DejaVuSans-6c" d="M 603 4863 
L 1178 4863 
L 1178 0 
L 603 0 
L 603 4863 
z
" transform="scale(0.015625)"/>
       <path id="DejaVuSans-79" d="M 2059 -325 
Q 1816 -950 1584 -1140 
Q 1353 -1331 966 -1331 
L 506 -1331 
L 506 -850 
L 844 -850 
Q 1081 -850 1212 -737 
Q 1344 -625 1503 -206 
L 1606 56 
L 191 3500 
L 800 3500 
L 1894 763 
L 2988 3500 
L 3597 3500 
L 2059 -325 
z
" transform="scale(0.015625)"/>
       <path id="DejaVuSans-4d" d="M 628 4666 
L 1569 4666 
L 2759 1491 
L 3956 4666 
L 4897 4666 
L 4897 0 
L 4281 0 
L 4281 4097 
L 3078 897 
L 2444 897 
L 1241 4097 
L 1241 0 
L 628 0 
L 628 4666 
z
" transform="scale(0.015625)"/>
       <path id="DejaVuSans-2f" d="M 1625 4666 
L 2156 4666 
L 531 -594 
L 0 -594 
L 1625 4666 
z
" transform="scale(0.015625)"/>
      </defs>
      <use xlink:href="#DejaVuSans-52"/>
      <use xlink:href="#DejaVuSans-65" transform="translate(64.982422 0)"/>
      <use xlink:href="#DejaVuSans-61" transform="translate(126.505859 0)"/>
      <use xlink:href="#DejaVuSans-63" transform="translate(187.785156 0)"/>
      <use xlink:href="#DejaVuSans-74" transform="translate(242.765625 0)"/>
      <use xlink:href="#DejaVuSans-69" transform="translate(281.974609 0)"/>
      <use xlink:href="#DejaVuSans-6f" transform="translate(309.757812 0)"/>
      <use xlink:href="#DejaVuSans-6e" transform="translate(370.939453 0)"/>
      <use xlink:href="#DejaVuSans-20" transform="translate(434.318359 0)"/>
      <use xlink:href="#DejaVuSans-56" transform="translate(466.105469 0)"/>
      <use xlink:href="#DejaVuSans-65" transform="translate(526.763672 0)"/>
      <use xlink:href="#DejaVuSans-6c" transform="translate(588.287109 0)"/>
      <use xlink:href="#DejaVuSans-6f" transform="translate(616.070312 0)"/>
      <use xlink:href="#DejaVuSans-63" transform="translate(677.251953 0)"/>
      <use xlink:href="#DejaVuSans-69" transform="translate(732.232422 0)"/>
      <use xlink:href="#DejaVuSans-74" transform="translate(760.015625 0)"/>
      <use xlink:href="#DejaVuSans-79" transform="translate(799.224609 0)"/>
      <use xlink:href="#DejaVuSans-20" transform="translate(858.404297 0)"/>
      <use xlink:href="#DejaVuSans-28" transform="translate(890.191406 0)"/>
      <use xlink:href="#DejaVuSans-6d" transform="translate(929.205078 0)"/>
      <use xlink:href="#DejaVuSans-4d" transform="translate(1026.617188 0)"/>
      <use xlink:href="#DejaVuSans-2f" transform="translate(1112.896484 0)"/>
      <use xlink:href="#DejaVuSans-73" transform="translate(1146.587891 0)"/>
      <use xlink:href="#DejaVuSans-29" transform="translate(1198.6875 0)"/>
     </g>
    </g>
   </g>
   <g id="line2d_33">
    <path d="M 107.196818 508.270909 
L 115.364075 508.158372 
L 125.730208 507.779286 
L 139.865844 507.021031 
L 161.854611 505.589826 
L 212.11465 502.033626 
L 348.130881 492.420779 
L 469.0691 484.107805 
L 592.206196 475.86786 
L 715.657417 467.829083 
L 735.133182 466.580285 
L 735.133182 466.580285 
" clip-path="url(#p75d1f914eb)" style="fill: none; stroke: #0000ff; stroke-width: 2; stroke-linecap: square"/>
   </g>
   <g id="line2d_34">
    <path d="M 107.196818 508.270909 
L 110.023945 508.149777 
L 112.851073 507.809587 
L 115.992325 507.212155 
L 119.447703 506.328899 
L 123.217206 505.141097 
L 127.614959 503.514708 
L 132.640963 501.404145 
L 138.295217 498.783712 
L 145.205973 495.323663 
L 153.687354 490.8118 
L 164.681738 484.692031 
L 180.388 475.671735 
L 206.14627 460.622494 
L 271.798446 422.267023 
L 317.032481 396.123847 
L 362.266517 370.238487 
L 407.500552 344.609788 
L 453.048712 319.060334 
L 498.596873 293.767363 
L 544.145033 268.72803 
L 590.007319 243.769311 
L 636.18373 218.893707 
L 682.360141 194.270387 
L 728.850677 169.731894 
L 735.133182 166.435166 
L 735.133182 166.435166 
" clip-path="url(#p75d1f914eb)" style="fill: none; stroke: #ffa500; stroke-width: 2; stroke-linecap: square"/>
   </g>
   <g id="line2d_35">
    <path d="M 107.196818 508.270909 
L 112.222822 508.162999 
L 118.191202 507.803753 
L 125.101957 507.159113 
L 133.583339 506.138198 
L 144.577722 504.576282 
L 159.969859 502.145516 
L 186.042255 497.767511 
L 342.790752 471.1239 
L 421.322063 458.092893 
L 500.481624 445.18374 
L 580.269436 432.398297 
L 660.371374 419.787227 
L 735.133182 408.216576 
L 735.133182 408.216576 
" clip-path="url(#p75d1f914eb)" style="fill: none; stroke: #008000; stroke-width: 2; stroke-linecap: square"/>
   </g>
   <g id="line2d_36">
    <path d="M 107.196818 508.270909 
L 112.851073 508.158351 
L 119.447703 507.797214 
L 127.300834 507.140937 
L 137.352842 506.067545 
L 150.860227 504.385557 
L 171.592493 501.558365 
L 220.596031 494.583469 
L 314.205354 481.31464 
L 399.647421 469.43417 
L 486.031863 457.648068 
L 572.73043 446.042533 
L 660.057248 434.575795 
L 735.133182 424.89188 
L 735.133182 424.89188 
" clip-path="url(#p75d1f914eb)" style="fill: none; stroke: #ff0000; stroke-width: 2; stroke-linecap: square"/>
   </g>
   <g id="line2d_37">
    <path d="M 107.196818 508.270909 
L 114.107574 508.16071 
L 122.588955 507.794403 
L 133.583339 507.080967 
L 148.66135 505.860819 
L 173.477245 503.599235 
L 255.778059 495.747221 
L 360.69589 485.874107 
L 465.299597 476.254512 
L 571.788055 466.686101 
L 679.533014 457.230837 
L 735.133182 452.439388 
L 735.133182 452.439388 
" clip-path="url(#p75d1f914eb)" style="fill: none; stroke-dasharray: 7.4,3.2; stroke-dashoffset: 0; stroke: #0000ff; stroke-width: 2"/>
   </g>
   <g id="line2d_38">
    <path d="M 107.196818 508.270909 
L 109.395695 508.171782 
L 111.908697 507.834751 
L 114.735824 507.207063 
L 117.562951 506.351525 
L 120.704204 505.17207 
L 124.159581 503.639574 
L 128.24321 501.566028 
L 132.640963 499.075032 
L 137.666967 495.969962 
L 143.635347 492.012374 
L 150.860227 486.938135 
L 159.655734 480.4791 
L 171.592493 471.415829 
L 189.497632 457.511492 
L 301.95447 369.716964 
L 342.790752 338.302738 
L 383.627033 307.169474 
L 424.463315 276.315777 
L 465.299597 245.738708 
L 506.450004 215.205085 
L 547.600411 184.948237 
L 589.064943 154.737335 
L 630.529475 124.801806 
L 671.994008 95.139009 
L 713.772665 65.524889 
L 735.133182 50.489091 
L 735.133182 50.489091 
" clip-path="url(#p75d1f914eb)" style="fill: none; stroke-dasharray: 7.4,3.2; stroke-dashoffset: 0; stroke: #ffa500; stroke-width: 2"/>
   </g>
   <g id="line2d_39">
    <path d="M 107.196818 508.270909 
L 111.594572 508.159023 
L 116.620576 507.799341 
L 122.27483 507.168127 
L 129.185585 506.158305 
L 137.352842 504.729906 
L 147.718975 502.682041 
L 162.168736 499.584682 
L 185.728129 494.276699 
L 334.93762 460.28589 
L 403.102798 445.094951 
L 471.582102 430.062002 
L 540.37553 415.187032 
L 609.483084 400.46941 
L 679.847139 385.713241 
L 735.133182 374.279496 
L 735.133182 374.279496 
" clip-path="url(#p75d1f914eb)" style="fill: none; stroke-dasharray: 7.4,3.2; stroke-dashoffset: 0; stroke: #008000; stroke-width: 2"/>
   </g>
   <g id="line2d_40">
    <path d="M 107.196818 508.270909 
L 111.908697 508.164469 
L 117.562951 507.802701 
L 124.159581 507.141188 
L 132.012712 506.118374 
L 141.750595 504.616962 
L 154.943855 502.343841 
L 175.047871 498.631955 
L 222.480783 489.58011 
L 303.839221 474.122109 
L 377.972779 460.269005 
L 452.420462 446.583116 
L 527.81052 432.950706 
L 603.514704 419.487875 
L 679.533014 406.194091 
L 735.133182 396.610837 
L 735.133182 396.610837 
" clip-path="url(#p75d1f914eb)" style="fill: none; stroke-dasharray: 7.4,3.2; stroke-dashoffset: 0; stroke: #ff0000; stroke-width: 2"/>
   </g>
   <g id="patch_3">
    <path d="M 75.8 531.16 
L 75.8 27.6 
" style="fill: none; stroke: #000000; stroke-width: 0.8; stroke-linejoin: miter; stroke-linecap: square"/>
   </g>
   <g id="patch_4">
    <path d="M 766.53 531.16 
L 766.53 27.6 
" style="fill: none; stroke: #000000; stroke-width: 0.8; stroke-linejoin: miter; stroke-linecap: square"/>
   </g>
   <g id="patch_5">
    <path d="M 75.8 531.16 
L 766.53 531.16 
" style="fill: none; stroke: #000000; stroke-width: 0.8; stroke-linejoin: miter; stroke-linecap: square"/>
   </g>
   <g id="patch_6">
    <path d="M 75.8 27.6 
L 766.53 27.6 
" style="fill: none; stroke: #000000; stroke-width: 0.8; stroke-linejoin: miter; stroke-linecap: square"/>
   </g>
   <g id="text_19">
    <!-- SpoVF Catalytic Activity Across B. subtilis Promoters and HTPA Availability -->
    <g transform="translate(125.615156 21.6) scale(0.14 -0.14)">
     <defs>
      <path id="DejaVuSans-Bold-53" d="M 3834 4519 
L 3834 3531 
Q 3450 3703 3084 3790 
Q 2719 3878 2394 3878 
Q 1963 3878 1756 3759 
Q 1550 3641 1550 3391 
Q 1550 3203 1689 3098 
Q 1828 2994 2194 2919 
L 2706 2816 
Q 3484 2659 3812 2340 
Q 4141 2022 4141 1434 
Q 4141 663 3683 286 
Q 3225 -91 2284 -91 
Q 1841 -91 1394 -6 
Q 947 78 500 244 
L 500 1259 
Q 947 1022 1364 901 
Q 1781 781 2169 781 
Q 2563 781 2772 912 
Q 2981 1044 2981 1288 
Q 2981 1506 2839 1625 
Q 2697 1744 2272 1838 
L 1806 1941 
Q 1106 2091 782 2419 
Q 459 2747 459 3303 
Q 459 4000 909 4375 
Q 1359 4750 2203 4750 
Q 2588 4750 2994 4692 
Q 3400 4634 3834 4519 
z
" transform="scale(0.015625)"/>
      <path id="DejaVuSans-Bold-70" d="M 1656 506 
L 1656 -1331 
L 538 -1331 
L 538 3500 
L 1656 3500 
L 1656 2988 
Q 1888 3294 2169 3439 
Q 2450 3584 2816 3584 
Q 3463 3584 3878 3070 
Q 4294 2556 4294 1747 
Q 4294 938 3878 423 
Q 3463 -91 2816 -91 
Q 2450 -91 2169 54 
Q 1888 200 1656 506 
z
M 2400 2772 
Q 2041 2772 1848 2508 
Q 1656 2244 1656 1747 
Q 1656 1250 1848 986 
Q 2041 722 2400 722 
Q 2759 722 2948 984 
Q 3138 1247 3138 1747 
Q 3138 2247 2948 2509 
Q 2759 2772 2400 2772 
z
" transform="scale(0.015625)"/>
      <path id="DejaVuSans-Bold-6f" d="M 2203 2784 
Q 1831 2784 1636 2517 
Q 1441 2250 1441 1747 
Q 1441 1244 1636 976 
Q 1831 709 2203 709 
Q 2569 709 2762 976 
Q 2956 1244 2956 1747 
Q 2956 2250 2762 2517 
Q 2569 2784 2203 2784 
z
M 2203 3584 
Q 3106 3584 3614 3096 
Q 4122 2609 4122 1747 
Q 4122 884 3614 396 
Q 3106 -91 2203 -91 
Q 1297 -91 786 396 
Q 275 884 275 1747 
Q 275 2609 786 3096 
Q 1297 3584 2203 3584 
z
" transform="scale(0.015625)"/>
      <path id="DejaVuSans-Bold-56" d="M 31 4666 
L 1241 4666 
L 2478 1222 
L 3713 4666 
L 4922 4666 
L 3194 0 
L 1759 0 
L 31 4666 
z
" transform="scale(0.015625)"/>
      <path id="DejaVuSans-Bold-46" d="M 588 4666 
L 3834 4666 
L 3834 3756 
L 1791 3756 
L 1791 2888 
L 3713 2888 
L 3713 1978 
L 1791 1978 
L 1791 0 
L 588 0 
L 588 4666 
z
" transform="scale(0.015625)"/>
      <path id="DejaVuSans-Bold-20" transform="scale(0.015625)"/>
      <path id="DejaVuSans-Bold-43" d="M 4288 256 
Q 3956 84 3597 -3 
Q 3238 -91 2847 -91 
Q 1681 -91 1000 561 
Q 319 1213 319 2328 
Q 319 3447 1000 4098 
Q 1681 4750 2847 4750 
Q 3238 4750 3597 4662 
Q 3956 4575 4288 4403 
L 4288 3438 
Q 3953 3666 3628 3772 
Q 3303 3878 2944 3878 
Q 2300 3878 1931 3465 
Q 1563 3053 1563 2328 
Q 1563 1606 1931 1193 
Q 2300 781 2944 781 
Q 3303 781 3628 887 
Q 3953 994 4288 1222 
L 4288 256 
z
" transform="scale(0.015625)"/>
      <path id="DejaVuSans-Bold-61" d="M 2106 1575 
Q 1756 1575 1579 1456 
Q 1403 1338 1403 1106 
Q 1403 894 1545 773 
Q 1688 653 1941 653 
Q 2256 653 2472 879 
Q 2688 1106 2688 1447 
L 2688 1575 
L 2106 1575 
z
M 3816 1997 
L 3816 0 
L 2688 0 
L 2688 519 
Q 2463 200 2181 54 
Q 1900 -91 1497 -91 
Q 953 -91 614 226 
Q 275 544 275 1050 
Q 275 1666 698 1953 
Q 1122 2241 2028 2241 
L 2688 2241 
L 2688 2328 
Q 2688 2594 2478 2717 
Q 2269 2841 1825 2841 
Q 1466 2841 1156 2769 
Q 847 2697 581 2553 
L 581 3406 
Q 941 3494 1303 3539 
Q 1666 3584 2028 3584 
Q 2975 3584 3395 3211 
Q 3816 2838 3816 1997 
z
" transform="scale(0.015625)"/>
      <path id="DejaVuSans-Bold-74" d="M 1759 4494 
L 1759 3500 
L 2913 3500 
L 2913 2700 
L 1759 2700 
L 1759 1216 
Q 1759 972 1856 886 
Q 1953 800 2241 800 
L 2816 800 
L 2816 0 
L 1856 0 
Q 1194 0 917 276 
Q 641 553 641 1216 
L 641 2700 
L 84 2700 
L 84 3500 
L 641 3500 
L 641 4494 
L 1759 4494 
z
" transform="scale(0.015625)"/>
      <path id="DejaVuSans-Bold-6c" d="M 538 4863 
L 1656 4863 
L 1656 0 
L 538 0 
L 538 4863 
z
" transform="scale(0.015625)"/>
      <path id="DejaVuSans-Bold-79" d="M 78 3500 
L 1197 3500 
L 2138 1125 
L 2938 3500 
L 4056 3500 
L 2584 -331 
Q 2363 -916 2067 -1148 
Q 1772 -1381 1288 -1381 
L 641 -1381 
L 641 -647 
L 991 -647 
Q 1275 -647 1404 -556 
Q 1534 -466 1606 -231 
L 1638 -134 
L 78 3500 
z
" transform="scale(0.015625)"/>
      <path id="DejaVuSans-Bold-69" d="M 538 3500 
L 1656 3500 
L 1656 0 
L 538 0 
L 538 3500 
z
M 538 4863 
L 1656 4863 
L 1656 3950 
L 538 3950 
L 538 4863 
z
" transform="scale(0.015625)"/>
      <path id="DejaVuSans-Bold-63" d="M 3366 3391 
L 3366 2478 
Q 3138 2634 2908 2709 
Q 2678 2784 2431 2784 
Q 1963 2784 1702 2511 
Q 1441 2238 1441 1747 
Q 1441 1256 1702 982 
Q 1963 709 2431 709 
Q 2694 709 2930 787 
Q 3166 866 3366 1019 
L 3366 103 
Q 3103 6 2833 -42 
Q 2563 -91 2291 -91 
Q 1344 -91 809 395 
Q 275 881 275 1747 
Q 275 2613 809 3098 
Q 1344 3584 2291 3584 
Q 2566 3584 2833 3536 
Q 3100 3488 3366 3391 
z
" transform="scale(0.015625)"/>
      <path id="DejaVuSans-Bold-41" d="M 3419 850 
L 1538 850 
L 1241 0 
L 31 0 
L 1759 4666 
L 3194 4666 
L 4922 0 
L 3713 0 
L 3419 850 
z
M 1838 1716 
L 3116 1716 
L 2478 3572 
L 1838 1716 
z
" transform="scale(0.015625)"/>
      <path id="DejaVuSans-Bold-76" d="M 97 3500 
L 1216 3500 
L 2088 1081 
L 2956 3500 
L 4078 3500 
L 2700 0 
L 1472 0 
L 97 3500 
z
" transform="scale(0.015625)"/>
      <path id="DejaVuSans-Bold-72" d="M 3138 2547 
Q 2991 2616 2845 2648 
Q 2700 2681 2553 2681 
Q 2122 2681 1889 2404 
Q 1656 2128 1656 1613 
L 1656 0 
L 538 0 
L 538 3500 
L 1656 3500 
L 1656 2925 
Q 1872 3269 2151 3426 
Q 2431 3584 2822 3584 
Q 2878 3584 2943 3579 
Q 3009 3575 3134 3559 
L 3138 2547 
z
" transform="scale(0.015625)"/>
      <path id="DejaVuSans-Bold-73" d="M 3272 3391 
L 3272 2541 
Q 2913 2691 2578 2766 
Q 2244 2841 1947 2841 
Q 1628 2841 1473 2761 
Q 1319 2681 1319 2516 
Q 1319 2381 1436 2309 
Q 1553 2238 1856 2203 
L 2053 2175 
Q 2913 2066 3209 1816 
Q 3506 1566 3506 1031 
Q 3506 472 3093 190 
Q 2681 -91 1863 -91 
Q 1516 -91 1145 -36 
Q 775 19 384 128 
L 384 978 
Q 719 816 1070 734 
Q 1422 653 1784 653 
Q 2113 653 2278 743 
Q 2444 834 2444 1013 
Q 2444 1163 2330 1236 
Q 2216 1309 1875 1350 
L 1678 1375 
Q 931 1469 631 1722 
Q 331 1975 331 2491 
Q 331 3047 712 3315 
Q 1094 3584 1881 3584 
Q 2191 3584 2531 3537 
Q 2872 3491 3272 3391 
z
" transform="scale(0.015625)"/>
      <path id="DejaVuSans-Bold-42" d="M 2456 2859 
Q 2741 2859 2887 2984 
Q 3034 3109 3034 3353 
Q 3034 3594 2887 3720 
Q 2741 3847 2456 3847 
L 1791 3847 
L 1791 2859 
L 2456 2859 
z
M 2497 819 
Q 2859 819 3042 972 
Q 3225 1125 3225 1434 
Q 3225 1738 3044 1889 
Q 2863 2041 2497 2041 
L 1791 2041 
L 1791 819 
L 2497 819 
z
M 3616 2497 
Q 4003 2384 4215 2081 
Q 4428 1778 4428 1338 
Q 4428 663 3972 331 
Q 3516 0 2584 0 
L 588 0 
L 588 4666 
L 2394 4666 
Q 3366 4666 3802 4372 
Q 4238 4078 4238 3431 
Q 4238 3091 4078 2852 
Q 3919 2613 3616 2497 
z
" transform="scale(0.015625)"/>
      <path id="DejaVuSans-Bold-2e" d="M 653 1209 
L 1778 1209 
L 1778 0 
L 653 0 
L 653 1209 
z
" transform="scale(0.015625)"/>
      <path id="DejaVuSans-Bold-75" d="M 500 1363 
L 500 3500 
L 1625 3500 
L 1625 3150 
Q 1625 2866 1622 2436 
Q 1619 2006 1619 1863 
Q 1619 1441 1641 1255 
Q 1663 1069 1716 984 
Q 1784 875 1895 815 
Q 2006 756 2150 756 
Q 2500 756 2700 1025 
Q 2900 1294 2900 1772 
L 2900 3500 
L 4019 3500 
L 4019 0 
L 2900 0 
L 2900 506 
Q 2647 200 2364 54 
Q 2081 -91 1741 -91 
Q 1134 -91 817 281 
Q 500 653 500 1363 
z
" transform="scale(0.015625)"/>
      <path id="DejaVuSans-Bold-62" d="M 2400 722 
Q 2759 722 2948 984 
Q 3138 1247 3138 1747 
Q 3138 2247 2948 2509 
Q 2759 2772 2400 2772 
Q 2041 2772 1848 2508 
Q 1656 2244 1656 1747 
Q 1656 1250 1848 986 
Q 2041 722 2400 722 
z
M 1656 2988 
Q 1888 3294 2169 3439 
Q 2450 3584 2816 3584 
Q 3463 3584 3878 3070 
Q 4294 2556 4294 1747 
Q 4294 938 3878 423 
Q 3463 -91 2816 -91 
Q 2450 -91 2169 54 
Q 1888 200 1656 506 
L 1656 0 
L 538 0 
L 538 4863 
L 1656 4863 
L 1656 2988 
z
" transform="scale(0.015625)"/>
      <path id="DejaVuSans-Bold-50" d="M 588 4666 
L 2584 4666 
Q 3475 4666 3951 4270 
Q 4428 3875 4428 3144 
Q 4428 2409 3951 2014 
Q 3475 1619 2584 1619 
L 1791 1619 
L 1791 0 
L 588 0 
L 588 4666 
z
M 1791 3794 
L 1791 2491 
L 2456 2491 
Q 2806 2491 2997 2661 
Q 3188 2831 3188 3144 
Q 3188 3456 2997 3625 
Q 2806 3794 2456 3794 
L 1791 3794 
z
" transform="scale(0.015625)"/>
      <path id="DejaVuSans-Bold-6d" d="M 3781 2919 
Q 3994 3244 4286 3414 
Q 4578 3584 4928 3584 
Q 5531 3584 5847 3212 
Q 6163 2841 6163 2131 
L 6163 0 
L 5038 0 
L 5038 1825 
Q 5041 1866 5042 1909 
Q 5044 1953 5044 2034 
Q 5044 2406 4934 2573 
Q 4825 2741 4581 2741 
Q 4263 2741 4089 2478 
Q 3916 2216 3909 1719 
L 3909 0 
L 2784 0 
L 2784 1825 
Q 2784 2406 2684 2573 
Q 2584 2741 2328 2741 
Q 2006 2741 1831 2477 
Q 1656 2213 1656 1722 
L 1656 0 
L 531 0 
L 531 3500 
L 1656 3500 
L 1656 2988 
Q 1863 3284 2130 3434 
Q 2397 3584 2719 3584 
Q 3081 3584 3359 3409 
Q 3638 3234 3781 2919 
z
" transform="scale(0.015625)"/>
      <path id="DejaVuSans-Bold-65" d="M 4031 1759 
L 4031 1441 
L 1416 1441 
Q 1456 1047 1700 850 
Q 1944 653 2381 653 
Q 2734 653 3104 758 
Q 3475 863 3866 1075 
L 3866 213 
Q 3469 63 3072 -14 
Q 2675 -91 2278 -91 
Q 1328 -91 801 392 
Q 275 875 275 1747 
Q 275 2603 792 3093 
Q 1309 3584 2216 3584 
Q 3041 3584 3536 3087 
Q 4031 2591 4031 1759 
z
M 2881 2131 
Q 2881 2450 2695 2645 
Q 2509 2841 2209 2841 
Q 1884 2841 1681 2658 
Q 1478 2475 1428 2131 
L 2881 2131 
z
" transform="scale(0.015625)"/>
      <path id="DejaVuSans-Bold-6e" d="M 4056 2131 
L 4056 0 
L 2931 0 
L 2931 347 
L 2931 1631 
Q 2931 2084 2911 2256 
Q 2891 2428 2841 2509 
Q 2775 2619 2662 2680 
Q 2550 2741 2406 2741 
Q 2056 2741 1856 2470 
Q 1656 2200 1656 1722 
L 1656 0 
L 538 0 
L 538 3500 
L 1656 3500 
L 1656 2988 
Q 1909 3294 2193 3439 
Q 2478 3584 2822 3584 
Q 3428 3584 3742 3212 
Q 4056 2841 4056 2131 
z
" transform="scale(0.015625)"/>
      <path id="DejaVuSans-Bold-64" d="M 2919 2988 
L 2919 4863 
L 4044 4863 
L 4044 0 
L 2919 0 
L 2919 506 
Q 2688 197 2409 53 
Q 2131 -91 1766 -91 
Q 1119 -91 703 423 
Q 288 938 288 1747 
Q 288 2556 703 3070 
Q 1119 3584 1766 3584 
Q 2128 3584 2408 3439 
Q 2688 3294 2919 2988 
z
M 2181 722 
Q 2541 722 2730 984 
Q 2919 1247 2919 1747 
Q 2919 2247 2730 2509 
Q 2541 2772 2181 2772 
Q 1825 2772 1636 2509 
Q 1447 2247 1447 1747 
Q 1447 1247 1636 984 
Q 1825 722 2181 722 
z
" transform="scale(0.015625)"/>
      <path id="DejaVuSans-Bold-48" d="M 588 4666 
L 1791 4666 
L 1791 2888 
L 3566 2888 
L 3566 4666 
L 4769 4666 
L 4769 0 
L 3566 0 
L 3566 1978 
L 1791 1978 
L 1791 0 
L 588 0 
L 588 4666 
z
" transform="scale(0.015625)"/>
      <path id="DejaVuSans-Bold-54" d="M 31 4666 
L 4331 4666 
L 4331 3756 
L 2784 3756 
L 2784 0 
L 1581 0 
L 1581 3756 
L 31 3756 
L 31 4666 
z
" transform="scale(0.015625)"/>
     </defs>
     <use xlink:href="#DejaVuSans-Bold-53"/>
     <use xlink:href="#DejaVuSans-Bold-70" transform="translate(72.021484 0)"/>
     <use xlink:href="#DejaVuSans-Bold-6f" transform="translate(143.603516 0)"/>
     <use xlink:href="#DejaVuSans-Bold-56" transform="translate(212.304688 0)"/>
     <use xlink:href="#DejaVuSans-Bold-46" transform="translate(289.697266 0)"/>
     <use xlink:href="#DejaVuSans-Bold-20" transform="translate(358.007812 0)"/>
     <use xlink:href="#DejaVuSans-Bold-43" transform="translate(392.822266 0)"/>
     <use xlink:href="#DejaVuSans-Bold-61" transform="translate(466.210938 0)"/>
     <use xlink:href="#DejaVuSans-Bold-74" transform="translate(533.691406 0)"/>
     <use xlink:href="#DejaVuSans-Bold-61" transform="translate(581.494141 0)"/>
     <use xlink:href="#DejaVuSans-Bold-6c" transform="translate(648.974609 0)"/>
     <use xlink:href="#DejaVuSans-Bold-79" transform="translate(683.251953 0)"/>
     <use xlink:href="#DejaVuSans-Bold-74" transform="translate(748.4375 0)"/>
     <use xlink:href="#DejaVuSans-Bold-69" transform="translate(796.240234 0)"/>
     <use xlink:href="#DejaVuSans-Bold-63" transform="translate(830.517578 0)"/>
     <use xlink:href="#DejaVuSans-Bold-20" transform="translate(889.794922 0)"/>
     <use xlink:href="#DejaVuSans-Bold-41" transform="translate(924.609375 0)"/>
     <use xlink:href="#DejaVuSans-Bold-63" transform="translate(1002.001953 0)"/>
     <use xlink:href="#DejaVuSans-Bold-74" transform="translate(1061.279297 0)"/>
     <use xlink:href="#DejaVuSans-Bold-69" transform="translate(1109.082031 0)"/>
     <use xlink:href="#DejaVuSans-Bold-76" transform="translate(1143.359375 0)"/>
     <use xlink:href="#DejaVuSans-Bold-69" transform="translate(1208.544922 0)"/>
     <use xlink:href="#DejaVuSans-Bold-74" transform="translate(1242.822266 0)"/>
     <use xlink:href="#DejaVuSans-Bold-79" transform="translate(1290.625 0)"/>
     <use xlink:href="#DejaVuSans-Bold-20" transform="translate(1355.810547 0)"/>
     <use xlink:href="#DejaVuSans-Bold-41" transform="translate(1390.625 0)"/>
     <use xlink:href="#DejaVuSans-Bold-63" transform="translate(1468.017578 0)"/>
     <use xlink:href="#DejaVuSans-Bold-72" transform="translate(1527.294922 0)"/>
     <use xlink:href="#DejaVuSans-Bold-6f" transform="translate(1576.611328 0)"/>
     <use xlink:href="#DejaVuSans-Bold-73" transform="translate(1645.3125 0)"/>
     <use xlink:href="#DejaVuSans-Bold-73" transform="translate(1704.833984 0)"/>
     <use xlink:href="#DejaVuSans-Bold-20" transform="translate(1764.355469 0)"/>
     <use xlink:href="#DejaVuSans-Bold-42" transform="translate(1799.169922 0)"/>
     <use xlink:href="#DejaVuSans-Bold-2e" transform="translate(1875.390625 0)"/>
     <use xlink:href="#DejaVuSans-Bold-20" transform="translate(1913.378906 0)"/>
     <use xlink:href="#DejaVuSans-Bold-73" transform="translate(1948.193359 0)"/>
     <use xlink:href="#DejaVuSans-Bold-75" transform="translate(2007.714844 0)"/>
     <use xlink:href="#DejaVuSans-Bold-62" transform="translate(2078.90625 0)"/>
     <use xlink:href="#DejaVuSans-Bold-74" transform="translate(2150.488281 0)"/>
     <use xlink:href="#DejaVuSans-Bold-69" transform="translate(2198.291016 0)"/>
     <use xlink:href="#DejaVuSans-Bold-6c" transform="translate(2232.568359 0)"/>
     <use xlink:href="#DejaVuSans-Bold-69" transform="translate(2266.845703 0)"/>
     <use xlink:href="#DejaVuSans-Bold-73" transform="translate(2301.123047 0)"/>
     <use xlink:href="#DejaVuSans-Bold-20" transform="translate(2360.644531 0)"/>
     <use xlink:href="#DejaVuSans-Bold-50" transform="translate(2395.458984 0)"/>
     <use xlink:href="#DejaVuSans-Bold-72" transform="translate(2468.75 0)"/>
     <use xlink:href="#DejaVuSans-Bold-6f" transform="translate(2518.066406 0)"/>
     <use xlink:href="#DejaVuSans-Bold-6d" transform="translate(2586.767578 0)"/>
     <use xlink:href="#DejaVuSans-Bold-6f" transform="translate(2690.966797 0)"/>
     <use xlink:href="#DejaVuSans-Bold-74" transform="translate(2759.667969 0)"/>
     <use xlink:href="#DejaVuSans-Bold-65" transform="translate(2807.470703 0)"/>
     <use xlink:href="#DejaVuSans-Bold-72" transform="translate(2875.292969 0)"/>
     <use xlink:href="#DejaVuSans-Bold-73" transform="translate(2924.609375 0)"/>
     <use xlink:href="#DejaVuSans-Bold-20" transform="translate(2984.130859 0)"/>
     <use xlink:href="#DejaVuSans-Bold-61" transform="translate(3018.945312 0)"/>
     <use xlink:href="#DejaVuSans-Bold-6e" transform="translate(3086.425781 0)"/>
     <use xlink:href="#DejaVuSans-Bold-64" transform="translate(3157.617188 0)"/>
     <use xlink:href="#DejaVuSans-Bold-20" transform="translate(3229.199219 0)"/>
     <use xlink:href="#DejaVuSans-Bold-48" transform="translate(3264.013672 0)"/>
     <use xlink:href="#DejaVuSans-Bold-54" transform="translate(3347.705078 0)"/>
     <use xlink:href="#DejaVuSans-Bold-50" transform="translate(3415.917969 0)"/>
     <use xlink:href="#DejaVuSans-Bold-41" transform="translate(3480.083984 0)"/>
     <use xlink:href="#DejaVuSans-Bold-20" transform="translate(3557.476562 0)"/>
     <use xlink:href="#DejaVuSans-Bold-41" transform="translate(3592.291016 0)"/>
     <use xlink:href="#DejaVuSans-Bold-76" transform="translate(3666.058594 0)"/>
     <use xlink:href="#DejaVuSans-Bold-61" transform="translate(3731.244141 0)"/>
     <use xlink:href="#DejaVuSans-Bold-69" transform="translate(3798.724609 0)"/>
     <use xlink:href="#DejaVuSans-Bold-6c" transform="translate(3833.001953 0)"/>
     <use xlink:href="#DejaVuSans-Bold-61" transform="translate(3867.279297 0)"/>
     <use xlink:href="#DejaVuSans-Bold-62" transform="translate(3934.759766 0)"/>
     <use xlink:href="#DejaVuSans-Bold-69" transform="translate(4006.341797 0)"/>
     <use xlink:href="#DejaVuSans-Bold-6c" transform="translate(4040.619141 0)"/>
     <use xlink:href="#DejaVuSans-Bold-69" transform="translate(4074.896484 0)"/>
     <use xlink:href="#DejaVuSans-Bold-74" transform="translate(4109.173828 0)"/>
     <use xlink:href="#DejaVuSans-Bold-79" transform="translate(4156.976562 0)"/>
    </g>
   </g>
   <g id="legend_1">
    <g id="patch_7">
     <path d="M 772.83 154.660625 
L 995.069531 154.660625 
Q 996.869531 154.660625 996.869531 152.860625 
L 996.869531 33.9 
Q 996.869531 32.1 995.069531 32.1 
L 772.83 32.1 
Q 771.03 32.1 771.03 33.9 
L 771.03 152.860625 
Q 771.03 154.660625 772.83 154.660625 
z
" style="fill: #ffffff; opacity: 0.8; stroke: #cccccc; stroke-linejoin: miter"/>
    </g>
    <g id="text_20">
     <!-- Conditions -->
     <g transform="translate(857.484922 43.298437) scale(0.1 -0.1)">
      <defs>
       <path id="DejaVuSans-43" d="M 4122 4306 
L 4122 3641 
Q 3803 3938 3442 4084 
Q 3081 4231 2675 4231 
Q 1875 4231 1450 3742 
Q 1025 3253 1025 2328 
Q 1025 1406 1450 917 
Q 1875 428 2675 428 
Q 3081 428 3442 575 
Q 3803 722 4122 1019 
L 4122 359 
Q 3791 134 3420 21 
Q 3050 -91 2638 -91 
Q 1578 -91 968 557 
Q 359 1206 359 2328 
Q 359 3453 968 4101 
Q 1578 4750 2638 4750 
Q 3056 4750 3426 4639 
Q 3797 4528 4122 4306 
z
" transform="scale(0.015625)"/>
      </defs>
      <use xlink:href="#DejaVuSans-43"/>
      <use xlink:href="#DejaVuSans-6f" transform="translate(69.824219 0)"/>
      <use xlink:href="#DejaVuSans-6e" transform="translate(131.005859 0)"/>
      <use xlink:href="#DejaVuSans-64" transform="translate(194.384766 0)"/>
      <use xlink:href="#DejaVuSans-69" transform="translate(257.861328 0)"/>
      <use xlink:href="#DejaVuSans-74" transform="translate(285.644531 0)"/>
      <use xlink:href="#DejaVuSans-69" transform="translate(324.853516 0)"/>
      <use xlink:href="#DejaVuSans-6f" transform="translate(352.636719 0)"/>
      <use xlink:href="#DejaVuSans-6e" transform="translate(413.818359 0)"/>
      <use xlink:href="#DejaVuSans-73" transform="translate(477.197266 0)"/>
     </g>
    </g>
    <g id="line2d_41">
     <path d="M 774.63 53.566719 
L 783.63 53.566719 
L 792.63 53.566719 
" style="fill: none; stroke: #0000ff; stroke-width: 2; stroke-linecap: square"/>
    </g>
    <g id="text_21">
     <!-- p43 (Baseline) @ Glucose (Lower HTPA) -->
     <g transform="translate(799.83 56.716719) scale(0.09 -0.09)">
      <defs>
       <path id="DejaVuSans-70" d="M 1159 525 
L 1159 -1331 
L 581 -1331 
L 581 3500 
L 1159 3500 
L 1159 2969 
Q 1341 3281 1617 3432 
Q 1894 3584 2278 3584 
Q 2916 3584 3314 3078 
Q 3713 2572 3713 1747 
Q 3713 922 3314 415 
Q 2916 -91 2278 -91 
Q 1894 -91 1617 61 
Q 1341 213 1159 525 
z
M 3116 1747 
Q 3116 2381 2855 2742 
Q 2594 3103 2138 3103 
Q 1681 3103 1420 2742 
Q 1159 2381 1159 1747 
Q 1159 1113 1420 752 
Q 1681 391 2138 391 
Q 2594 391 2855 752 
Q 3116 1113 3116 1747 
z
" transform="scale(0.015625)"/>
       <path id="DejaVuSans-33" d="M 2597 2516 
Q 3050 2419 3304 2112 
Q 3559 1806 3559 1356 
Q 3559 666 3084 287 
Q 2609 -91 1734 -91 
Q 1441 -91 1130 -33 
Q 819 25 488 141 
L 488 750 
Q 750 597 1062 519 
Q 1375 441 1716 441 
Q 2309 441 2620 675 
Q 2931 909 2931 1356 
Q 2931 1769 2642 2001 
Q 2353 2234 1838 2234 
L 1294 2234 
L 1294 2753 
L 1863 2753 
Q 2328 2753 2575 2939 
Q 2822 3125 2822 3475 
Q 2822 3834 2567 4026 
Q 2313 4219 1838 4219 
Q 1578 4219 1281 4162 
Q 984 4106 628 3988 
L 628 4550 
Q 988 4650 1302 4700 
Q 1616 4750 1894 4750 
Q 2613 4750 3031 4423 
Q 3450 4097 3450 3541 
Q 3450 3153 3228 2886 
Q 3006 2619 2597 2516 
z
" transform="scale(0.015625)"/>
       <path id="DejaVuSans-42" d="M 1259 2228 
L 1259 519 
L 2272 519 
Q 2781 519 3026 730 
Q 3272 941 3272 1375 
Q 3272 1813 3026 2020 
Q 2781 2228 2272 2228 
L 1259 2228 
z
M 1259 4147 
L 1259 2741 
L 2194 2741 
Q 2656 2741 2882 2914 
Q 3109 3088 3109 3444 
Q 3109 3797 2882 3972 
Q 2656 4147 2194 4147 
L 1259 4147 
z
M 628 4666 
L 2241 4666 
Q 2963 4666 3353 4366 
Q 3744 4066 3744 3513 
Q 3744 3084 3544 2831 
Q 3344 2578 2956 2516 
Q 3422 2416 3680 2098 
Q 3938 1781 3938 1306 
Q 3938 681 3513 340 
Q 3088 0 2303 0 
L 628 0 
L 628 4666 
z
" transform="scale(0.015625)"/>
       <path id="DejaVuSans-40" d="M 2381 1678 
Q 2381 1231 2603 976 
Q 2825 722 3213 722 
Q 3597 722 3817 978 
Q 4038 1234 4038 1678 
Q 4038 2116 3813 2373 
Q 3588 2631 3206 2631 
Q 2828 2631 2604 2375 
Q 2381 2119 2381 1678 
z
M 4084 744 
Q 3897 503 3655 389 
Q 3413 275 3091 275 
Q 2553 275 2217 664 
Q 1881 1053 1881 1678 
Q 1881 2303 2218 2693 
Q 2556 3084 3091 3084 
Q 3413 3084 3656 2967 
Q 3900 2850 4084 2613 
L 4084 3022 
L 4531 3022 
L 4531 722 
Q 4988 791 5245 1139 
Q 5503 1488 5503 2041 
Q 5503 2375 5404 2669 
Q 5306 2963 5106 3213 
Q 4781 3622 4314 3839 
Q 3847 4056 3297 4056 
Q 2913 4056 2559 3954 
Q 2206 3853 1906 3653 
Q 1416 3334 1139 2817 
Q 863 2300 863 1697 
Q 863 1200 1042 765 
Q 1222 331 1563 0 
Q 1891 -325 2322 -495 
Q 2753 -666 3244 -666 
Q 3647 -666 4036 -530 
Q 4425 -394 4750 -141 
L 5031 -488 
Q 4641 -791 4180 -952 
Q 3719 -1113 3244 -1113 
Q 2666 -1113 2153 -908 
Q 1641 -703 1241 -313 
Q 841 78 631 592 
Q 422 1106 422 1697 
Q 422 2266 634 2781 
Q 847 3297 1241 3688 
Q 1644 4084 2172 4295 
Q 2700 4506 3291 4506 
Q 3953 4506 4520 4234 
Q 5088 3963 5472 3463 
Q 5706 3156 5829 2797 
Q 5953 2438 5953 2053 
Q 5953 1231 5456 756 
Q 4959 281 4084 263 
L 4084 744 
z
" transform="scale(0.015625)"/>
       <path id="DejaVuSans-47" d="M 3809 666 
L 3809 1919 
L 2778 1919 
L 2778 2438 
L 4434 2438 
L 4434 434 
Q 4069 175 3628 42 
Q 3188 -91 2688 -91 
Q 1594 -91 976 548 
Q 359 1188 359 2328 
Q 359 3472 976 4111 
Q 1594 4750 2688 4750 
Q 3144 4750 3555 4637 
Q 3966 4525 4313 4306 
L 4313 3634 
Q 3963 3931 3569 4081 
Q 3175 4231 2741 4231 
Q 1884 4231 1454 3753 
Q 1025 3275 1025 2328 
Q 1025 1384 1454 906 
Q 1884 428 2741 428 
Q 3075 428 3337 486 
Q 3600 544 3809 666 
z
" transform="scale(0.015625)"/>
       <path id="DejaVuSans-75" d="M 544 1381 
L 544 3500 
L 1119 3500 
L 1119 1403 
Q 1119 906 1312 657 
Q 1506 409 1894 409 
Q 2359 409 2629 706 
Q 2900 1003 2900 1516 
L 2900 3500 
L 3475 3500 
L 3475 0 
L 2900 0 
L 2900 538 
Q 2691 219 2414 64 
Q 2138 -91 1772 -91 
Q 1169 -91 856 284 
Q 544 659 544 1381 
z
M 1991 3584 
L 1991 3584 
z
" transform="scale(0.015625)"/>
       <path id="DejaVuSans-4c" d="M 628 4666 
L 1259 4666 
L 1259 531 
L 3531 531 
L 3531 0 
L 628 0 
L 628 4666 
z
" transform="scale(0.015625)"/>
       <path id="DejaVuSans-77" d="M 269 3500 
L 844 3500 
L 1563 769 
L 2278 3500 
L 2956 3500 
L 3675 769 
L 4391 3500 
L 4966 3500 
L 4050 0 
L 3372 0 
L 2619 2869 
L 1863 0 
L 1184 0 
L 269 3500 
z
" transform="scale(0.015625)"/>
       <path id="DejaVuSans-72" d="M 2631 2963 
Q 2534 3019 2420 3045 
Q 2306 3072 2169 3072 
Q 1681 3072 1420 2755 
Q 1159 2438 1159 1844 
L 1159 0 
L 581 0 
L 581 3500 
L 1159 3500 
L 1159 2956 
Q 1341 3275 1631 3429 
Q 1922 3584 2338 3584 
Q 2397 3584 2469 3576 
Q 2541 3569 2628 3553 
L 2631 2963 
z
" transform="scale(0.015625)"/>
       <path id="DejaVuSans-48" d="M 628 4666 
L 1259 4666 
L 1259 2753 
L 3553 2753 
L 3553 4666 
L 4184 4666 
L 4184 0 
L 3553 0 
L 3553 2222 
L 1259 2222 
L 1259 0 
L 628 0 
L 628 4666 
z
" transform="scale(0.015625)"/>
       <path id="DejaVuSans-50" d="M 1259 4147 
L 1259 2394 
L 2053 2394 
Q 2494 2394 2734 2622 
Q 2975 2850 2975 3272 
Q 2975 3691 2734 3919 
Q 2494 4147 2053 4147 
L 1259 4147 
z
M 628 4666 
L 2053 4666 
Q 2838 4666 3239 4311 
Q 3641 3956 3641 3272 
Q 3641 2581 3239 2228 
Q 2838 1875 2053 1875 
L 1259 1875 
L 1259 0 
L 628 0 
L 628 4666 
z
" transform="scale(0.015625)"/>
       <path id="DejaVuSans-41" d="M 2188 4044 
L 1331 1722 
L 3047 1722 
L 2188 4044 
z
M 1831 4666 
L 2547 4666 
L 4325 0 
L 3669 0 
L 3244 1197 
L 1141 1197 
L 716 0 
L 50 0 
L 1831 4666 
z
" transform="scale(0.015625)"/>
      </defs>
      <use xlink:href="#DejaVuSans-70"/>
      <use xlink:href="#DejaVuSans-34" transform="translate(63.476562 0)"/>
      <use xlink:href="#DejaVuSans-33" transform="translate(127.099609 0)"/>
      <use xlink:href="#DejaVuSans-20" transform="translate(190.722656 0)"/>
      <use xlink:href="#DejaVuSans-28" transform="translate(222.509766 0)"/>
      <use xlink:href="#DejaVuSans-42" transform="translate(261.523438 0)"/>
      <use xlink:href="#DejaVuSans-61" transform="translate(330.126953 0)"/>
      <use xlink:href="#DejaVuSans-73" transform="translate(391.40625 0)"/>
      <use xlink:href="#DejaVuSans-65" transform="translate(443.505859 0)"/>
      <use xlink:href="#DejaVuSans-6c" transform="translate(505.029297 0)"/>
      <use xlink:href="#DejaVuSans-69" transform="translate(532.8125 0)"/>
      <use xlink:href="#DejaVuSans-6e" transform="translate(560.595703 0)"/>
      <use xlink:href="#DejaVuSans-65" transform="translate(623.974609 0)"/>
      <use xlink:href="#DejaVuSans-29" transform="translate(685.498047 0)"/>
      <use xlink:href="#DejaVuSans-20" transform="translate(724.511719 0)"/>
      <use xlink:href="#DejaVuSans-40" transform="translate(756.298828 0)"/>
      <use xlink:href="#DejaVuSans-20" transform="translate(856.298828 0)"/>
      <use xlink:href="#DejaVuSans-47" transform="translate(888.085938 0)"/>
      <use xlink:href="#DejaVuSans-6c" transform="translate(965.576172 0)"/>
      <use xlink:href="#DejaVuSans-75" transform="translate(993.359375 0)"/>
      <use xlink:href="#DejaVuSans-63" transform="translate(1056.738281 0)"/>
      <use xlink:href="#DejaVuSans-6f" transform="translate(1111.71875 0)"/>
      <use xlink:href="#DejaVuSans-73" transform="translate(1172.900391 0)"/>
      <use xlink:href="#DejaVuSans-65" transform="translate(1225 0)"/>
      <use xlink:href="#DejaVuSans-20" transform="translate(1286.523438 0)"/>
      <use xlink:href="#DejaVuSans-28" transform="translate(1318.310547 0)"/>
      <use xlink:href="#DejaVuSans-4c" transform="translate(1357.324219 0)"/>
      <use xlink:href="#DejaVuSans-6f" transform="translate(1411.287109 0)"/>
      <use xlink:href="#DejaVuSans-77" transform="translate(1472.46875 0)"/>
      <use xlink:href="#DejaVuSans-65" transform="translate(1554.255859 0)"/>
      <use xlink:href="#DejaVuSans-72" transform="translate(1615.779297 0)"/>
      <use xlink:href="#DejaVuSans-20" transform="translate(1656.892578 0)"/>
      <use xlink:href="#DejaVuSans-48" transform="translate(1688.679688 0)"/>
      <use xlink:href="#DejaVuSans-54" transform="translate(1763.875 0)"/>
      <use xlink:href="#DejaVuSans-50" transform="translate(1824.958984 0)"/>
      <use xlink:href="#DejaVuSans-41" transform="translate(1878.886719 0)"/>
      <use xlink:href="#DejaVuSans-29" transform="translate(1947.294922 0)"/>
     </g>
    </g>
    <g id="line2d_42">
     <path d="M 774.63 66.777031 
L 783.63 66.777031 
L 792.63 66.777031 
" style="fill: none; stroke: #ffa500; stroke-width: 2; stroke-linecap: square"/>
    </g>
    <g id="text_22">
     <!-- pylb (8.2x) @ Glucose (Lower HTPA) -->
     <g transform="translate(799.83 69.927031) scale(0.09 -0.09)">
      <defs>
       <path id="DejaVuSans-62" d="M 3116 1747 
Q 3116 2381 2855 2742 
Q 2594 3103 2138 3103 
Q 1681 3103 1420 2742 
Q 1159 2381 1159 1747 
Q 1159 1113 1420 752 
Q 1681 391 2138 391 
Q 2594 391 2855 752 
Q 3116 1113 3116 1747 
z
M 1159 2969 
Q 1341 3281 1617 3432 
Q 1894 3584 2278 3584 
Q 2916 3584 3314 3078 
Q 3713 2572 3713 1747 
Q 3713 922 3314 415 
Q 2916 -91 2278 -91 
Q 1894 -91 1617 61 
Q 1341 213 1159 525 
L 1159 0 
L 581 0 
L 581 4863 
L 1159 4863 
L 1159 2969 
z
" transform="scale(0.015625)"/>
       <path id="DejaVuSans-78" d="M 3513 3500 
L 2247 1797 
L 3578 0 
L 2900 0 
L 1881 1375 
L 863 0 
L 184 0 
L 1544 1831 
L 300 3500 
L 978 3500 
L 1906 2253 
L 2834 3500 
L 3513 3500 
z
" transform="scale(0.015625)"/>
      </defs>
      <use xlink:href="#DejaVuSans-70"/>
      <use xlink:href="#DejaVuSans-79" transform="translate(63.476562 0)"/>
      <use xlink:href="#DejaVuSans-6c" transform="translate(122.65625 0)"/>
      <use xlink:href="#DejaVuSans-62" transform="translate(150.439453 0)"/>
      <use xlink:href="#DejaVuSans-20" transform="translate(213.916016 0)"/>
      <use xlink:href="#DejaVuSans-28" transform="translate(245.703125 0)"/>
      <use xlink:href="#DejaVuSans-38" transform="translate(284.716797 0)"/>
      <use xlink:href="#DejaVuSans-2e" transform="translate(348.339844 0)"/>
      <use xlink:href="#DejaVuSans-32" transform="translate(380.126953 0)"/>
      <use xlink:href="#DejaVuSans-78" transform="translate(443.75 0)"/>
      <use xlink:href="#DejaVuSans-29" transform="translate(502.929688 0)"/>
      <use xlink:href="#DejaVuSans-20" transform="translate(541.943359 0)"/>
      <use xlink:href="#DejaVuSans-40" transform="translate(573.730469 0)"/>
      <use xlink:href="#DejaVuSans-20" transform="translate(673.730469 0)"/>
      <use xlink:href="#DejaVuSans-47" transform="translate(705.517578 0)"/>
      <use xlink:href="#DejaVuSans-6c" transform="translate(783.007812 0)"/>
      <use xlink:href="#DejaVuSans-75" transform="translate(810.791016 0)"/>
      <use xlink:href="#DejaVuSans-63" transform="translate(874.169922 0)"/>
      <use xlink:href="#DejaVuSans-6f" transform="translate(929.150391 0)"/>
      <use xlink:href="#DejaVuSans-73" transform="translate(990.332031 0)"/>
      <use xlink:href="#DejaVuSans-65" transform="translate(1042.431641 0)"/>
      <use xlink:href="#DejaVuSans-20" transform="translate(1103.955078 0)"/>
      <use xlink:href="#DejaVuSans-28" transform="translate(1135.742188 0)"/>
      <use xlink:href="#DejaVuSans-4c" transform="translate(1174.755859 0)"/>
      <use xlink:href="#DejaVuSans-6f" transform="translate(1228.71875 0)"/>
      <use xlink:href="#DejaVuSans-77" transform="translate(1289.900391 0)"/>
      <use xlink:href="#DejaVuSans-65" transform="translate(1371.6875 0)"/>
      <use xlink:href="#DejaVuSans-72" transform="translate(1433.210938 0)"/>
      <use xlink:href="#DejaVuSans-20" transform="translate(1474.324219 0)"/>
      <use xlink:href="#DejaVuSans-48" transform="translate(1506.111328 0)"/>
      <use xlink:href="#DejaVuSans-54" transform="translate(1581.306641 0)"/>
      <use xlink:href="#DejaVuSans-50" transform="translate(1642.390625 0)"/>
      <use xlink:href="#DejaVuSans-41" transform="translate(1696.318359 0)"/>
      <use xlink:href="#DejaVuSans-29" transform="translate(1764.726562 0)"/>
     </g>
    </g>
    <g id="line2d_43">
     <path d="M 774.63 79.987344 
L 783.63 79.987344 
L 792.63 79.987344 
" style="fill: none; stroke: #008000; stroke-width: 2; stroke-linecap: square"/>
    </g>
    <g id="text_23">
     <!-- pyddf (2.4x) @ Glucose (Lower HTPA) -->
     <g transform="translate(799.83 83.137344) scale(0.09 -0.09)">
      <defs>
       <path id="DejaVuSans-66" d="M 2375 4863 
L 2375 4384 
L 1825 4384 
Q 1516 4384 1395 4259 
Q 1275 4134 1275 3809 
L 1275 3500 
L 2222 3500 
L 2222 3053 
L 1275 3053 
L 1275 0 
L 697 0 
L 697 3053 
L 147 3053 
L 147 3500 
L 697 3500 
L 697 3744 
Q 697 4328 969 4595 
Q 1241 4863 1831 4863 
L 2375 4863 
z
" transform="scale(0.015625)"/>
      </defs>
      <use xlink:href="#DejaVuSans-70"/>
      <use xlink:href="#DejaVuSans-79" transform="translate(63.476562 0)"/>
      <use xlink:href="#DejaVuSans-64" transform="translate(122.65625 0)"/>
      <use xlink:href="#DejaVuSans-64" transform="translate(186.132812 0)"/>
      <use xlink:href="#DejaVuSans-66" transform="translate(249.609375 0)"/>
      <use xlink:href="#DejaVuSans-20" transform="translate(284.814453 0)"/>
      <use xlink:href="#DejaVuSans-28" transform="translate(316.601562 0)"/>
      <use xlink:href="#DejaVuSans-32" transform="translate(355.615234 0)"/>
      <use xlink:href="#DejaVuSans-2e" transform="translate(419.238281 0)"/>
      <use xlink:href="#DejaVuSans-34" transform="translate(451.025391 0)"/>
      <use xlink:href="#DejaVuSans-78" transform="translate(514.648438 0)"/>
      <use xlink:href="#DejaVuSans-29" transform="translate(573.828125 0)"/>
      <use xlink:href="#DejaVuSans-20" transform="translate(612.841797 0)"/>
      <use xlink:href="#DejaVuSans-40" transform="translate(644.628906 0)"/>
      <use xlink:href="#DejaVuSans-20" transform="translate(744.628906 0)"/>
      <use xlink:href="#DejaVuSans-47" transform="translate(776.416016 0)"/>
      <use xlink:href="#DejaVuSans-6c" transform="translate(853.90625 0)"/>
      <use xlink:href="#DejaVuSans-75" transform="translate(881.689453 0)"/>
      <use xlink:href="#DejaVuSans-63" transform="translate(945.068359 0)"/>
      <use xlink:href="#DejaVuSans-6f" transform="translate(1000.048828 0)"/>
      <use xlink:href="#DejaVuSans-73" transform="translate(1061.230469 0)"/>
      <use xlink:href="#DejaVuSans-65" transform="translate(1113.330078 0)"/>
      <use xlink:href="#DejaVuSans-20" transform="translate(1174.853516 0)"/>
      <use xlink:href="#DejaVuSans-28" transform="translate(1206.640625 0)"/>
      <use xlink:href="#DejaVuSans-4c" transform="translate(1245.654297 0)"/>
      <use xlink:href="#DejaVuSans-6f" transform="translate(1299.617188 0)"/>
      <use xlink:href="#DejaVuSans-77" transform="translate(1360.798828 0)"/>
      <use xlink:href="#DejaVuSans-65" transform="translate(1442.585938 0)"/>
      <use xlink:href="#DejaVuSans-72" transform="translate(1504.109375 0)"/>
      <use xlink:href="#DejaVuSans-20" transform="translate(1545.222656 0)"/>
      <use xlink:href="#DejaVuSans-48" transform="translate(1577.009766 0)"/>
      <use xlink:href="#DejaVuSans-54" transform="translate(1652.205078 0)"/>
      <use xlink:href="#DejaVuSans-50" transform="translate(1713.289062 0)"/>
      <use xlink:href="#DejaVuSans-41" transform="translate(1767.216797 0)"/>
      <use xlink:href="#DejaVuSans-29" transform="translate(1835.625 0)"/>
     </g>
    </g>
    <g id="line2d_44">
     <path d="M 774.63 93.197656 
L 783.63 93.197656 
L 792.63 93.197656 
" style="fill: none; stroke: #ff0000; stroke-width: 2; stroke-linecap: square"/>
    </g>
    <g id="text_24">
     <!-- pmsm (2.0x) @ Glucose (Lower HTPA) -->
     <g transform="translate(799.83 96.347656) scale(0.09 -0.09)">
      <use xlink:href="#DejaVuSans-70"/>
      <use xlink:href="#DejaVuSans-6d" transform="translate(63.476562 0)"/>
      <use xlink:href="#DejaVuSans-73" transform="translate(160.888672 0)"/>
      <use xlink:href="#DejaVuSans-6d" transform="translate(212.988281 0)"/>
      <use xlink:href="#DejaVuSans-20" transform="translate(310.400391 0)"/>
      <use xlink:href="#DejaVuSans-28" transform="translate(342.1875 0)"/>
      <use xlink:href="#DejaVuSans-32" transform="translate(381.201172 0)"/>
      <use xlink:href="#DejaVuSans-2e" transform="translate(444.824219 0)"/>
      <use xlink:href="#DejaVuSans-30" transform="translate(476.611328 0)"/>
      <use xlink:href="#DejaVuSans-78" transform="translate(540.234375 0)"/>
      <use xlink:href="#DejaVuSans-29" transform="translate(599.414062 0)"/>
      <use xlink:href="#DejaVuSans-20" transform="translate(638.427734 0)"/>
      <use xlink:href="#DejaVuSans-40" transform="translate(670.214844 0)"/>
      <use xlink:href="#DejaVuSans-20" transform="translate(770.214844 0)"/>
      <use xlink:href="#DejaVuSans-47" transform="translate(802.001953 0)"/>
      <use xlink:href="#DejaVuSans-6c" transform="translate(879.492188 0)"/>
      <use xlink:href="#DejaVuSans-75" transform="translate(907.275391 0)"/>
      <use xlink:href="#DejaVuSans-63" transform="translate(970.654297 0)"/>
      <use xlink:href="#DejaVuSans-6f" transform="translate(1025.634766 0)"/>
      <use xlink:href="#DejaVuSans-73" transform="translate(1086.816406 0)"/>
      <use xlink:href="#DejaVuSans-65" transform="translate(1138.916016 0)"/>
      <use xlink:href="#DejaVuSans-20" transform="translate(1200.439453 0)"/>
      <use xlink:href="#DejaVuSans-28" transform="translate(1232.226562 0)"/>
      <use xlink:href="#DejaVuSans-4c" transform="translate(1271.240234 0)"/>
      <use xlink:href="#DejaVuSans-6f" transform="translate(1325.203125 0)"/>
      <use xlink:href="#DejaVuSans-77" transform="translate(1386.384766 0)"/>
      <use xlink:href="#DejaVuSans-65" transform="translate(1468.171875 0)"/>
      <use xlink:href="#DejaVuSans-72" transform="translate(1529.695312 0)"/>
      <use xlink:href="#DejaVuSans-20" transform="translate(1570.808594 0)"/>
      <use xlink:href="#DejaVuSans-48" transform="translate(1602.595703 0)"/>
      <use xlink:href="#DejaVuSans-54" transform="translate(1677.791016 0)"/>
      <use xlink:href="#DejaVuSans-50" transform="translate(1738.875 0)"/>
      <use xlink:href="#DejaVuSans-41" transform="translate(1792.802734 0)"/>
      <use xlink:href="#DejaVuSans-29" transform="translate(1861.210938 0)"/>
     </g>
    </g>
    <g id="line2d_45">
     <path d="M 774.63 106.407969 
L 783.63 106.407969 
L 792.63 106.407969 
" style="fill: none; stroke-dasharray: 7.4,3.2; stroke-dashoffset: 0; stroke: #0000ff; stroke-width: 2"/>
    </g>
    <g id="text_25">
     <!-- p43 (Baseline) @ Glutamate (Higher HTPA) -->
     <g transform="translate(799.83 109.557969) scale(0.09 -0.09)">
      <defs>
       <path id="DejaVuSans-67" d="M 2906 1791 
Q 2906 2416 2648 2759 
Q 2391 3103 1925 3103 
Q 1463 3103 1205 2759 
Q 947 2416 947 1791 
Q 947 1169 1205 825 
Q 1463 481 1925 481 
Q 2391 481 2648 825 
Q 2906 1169 2906 1791 
z
M 3481 434 
Q 3481 -459 3084 -895 
Q 2688 -1331 1869 -1331 
Q 1566 -1331 1297 -1286 
Q 1028 -1241 775 -1147 
L 775 -588 
Q 1028 -725 1275 -790 
Q 1522 -856 1778 -856 
Q 2344 -856 2625 -561 
Q 2906 -266 2906 331 
L 2906 616 
Q 2728 306 2450 153 
Q 2172 0 1784 0 
Q 1141 0 747 490 
Q 353 981 353 1791 
Q 353 2603 747 3093 
Q 1141 3584 1784 3584 
Q 2172 3584 2450 3431 
Q 2728 3278 2906 2969 
L 2906 3500 
L 3481 3500 
L 3481 434 
z
" transform="scale(0.015625)"/>
       <path id="DejaVuSans-68" d="M 3513 2113 
L 3513 0 
L 2938 0 
L 2938 2094 
Q 2938 2591 2744 2837 
Q 2550 3084 2163 3084 
Q 1697 3084 1428 2787 
Q 1159 2491 1159 1978 
L 1159 0 
L 581 0 
L 581 4863 
L 1159 4863 
L 1159 2956 
Q 1366 3272 1645 3428 
Q 1925 3584 2291 3584 
Q 2894 3584 3203 3211 
Q 3513 2838 3513 2113 
z
" transform="scale(0.015625)"/>
      </defs>
      <use xlink:href="#DejaVuSans-70"/>
      <use xlink:href="#DejaVuSans-34" transform="translate(63.476562 0)"/>
      <use xlink:href="#DejaVuSans-33" transform="translate(127.099609 0)"/>
      <use xlink:href="#DejaVuSans-20" transform="translate(190.722656 0)"/>
      <use xlink:href="#DejaVuSans-28" transform="translate(222.509766 0)"/>
      <use xlink:href="#DejaVuSans-42" transform="translate(261.523438 0)"/>
      <use xlink:href="#DejaVuSans-61" transform="translate(330.126953 0)"/>
      <use xlink:href="#DejaVuSans-73" transform="translate(391.40625 0)"/>
      <use xlink:href="#DejaVuSans-65" transform="translate(443.505859 0)"/>
      <use xlink:href="#DejaVuSans-6c" transform="translate(505.029297 0)"/>
      <use xlink:href="#DejaVuSans-69" transform="translate(532.8125 0)"/>
      <use xlink:href="#DejaVuSans-6e" transform="translate(560.595703 0)"/>
      <use xlink:href="#DejaVuSans-65" transform="translate(623.974609 0)"/>
      <use xlink:href="#DejaVuSans-29" transform="translate(685.498047 0)"/>
      <use xlink:href="#DejaVuSans-20" transform="translate(724.511719 0)"/>
      <use xlink:href="#DejaVuSans-40" transform="translate(756.298828 0)"/>
      <use xlink:href="#DejaVuSans-20" transform="translate(856.298828 0)"/>
      <use xlink:href="#DejaVuSans-47" transform="translate(888.085938 0)"/>
      <use xlink:href="#DejaVuSans-6c" transform="translate(965.576172 0)"/>
      <use xlink:href="#DejaVuSans-75" transform="translate(993.359375 0)"/>
      <use xlink:href="#DejaVuSans-74" transform="translate(1056.738281 0)"/>
      <use xlink:href="#DejaVuSans-61" transform="translate(1095.947266 0)"/>
      <use xlink:href="#DejaVuSans-6d" transform="translate(1157.226562 0)"/>
      <use xlink:href="#DejaVuSans-61" transform="translate(1254.638672 0)"/>
      <use xlink:href="#DejaVuSans-74" transform="translate(1315.917969 0)"/>
      <use xlink:href="#DejaVuSans-65" transform="translate(1355.126953 0)"/>
      <use xlink:href="#DejaVuSans-20" transform="translate(1416.650391 0)"/>
      <use xlink:href="#DejaVuSans-28" transform="translate(1448.4375 0)"/>
      <use xlink:href="#DejaVuSans-48" transform="translate(1487.451172 0)"/>
      <use xlink:href="#DejaVuSans-69" transform="translate(1562.646484 0)"/>
      <use xlink:href="#DejaVuSans-67" transform="translate(1590.429688 0)"/>
      <use xlink:href="#DejaVuSans-68" transform="translate(1653.90625 0)"/>
      <use xlink:href="#DejaVuSans-65" transform="translate(1717.285156 0)"/>
      <use xlink:href="#DejaVuSans-72" transform="translate(1778.808594 0)"/>
      <use xlink:href="#DejaVuSans-20" transform="translate(1819.921875 0)"/>
      <use xlink:href="#DejaVuSans-48" transform="translate(1851.708984 0)"/>
      <use xlink:href="#DejaVuSans-54" transform="translate(1926.904297 0)"/>
      <use xlink:href="#DejaVuSans-50" transform="translate(1987.988281 0)"/>
      <use xlink:href="#DejaVuSans-41" transform="translate(2041.916016 0)"/>
      <use xlink:href="#DejaVuSans-29" transform="translate(2110.324219 0)"/>
     </g>
    </g>
    <g id="line2d_46">
     <path d="M 774.63 119.618281 
L 783.63 119.618281 
L 792.63 119.618281 
" style="fill: none; stroke-dasharray: 7.4,3.2; stroke-dashoffset: 0; stroke: #ffa500; stroke-width: 2"/>
    </g>
    <g id="text_26">
     <!-- pylb (8.2x) @ Glutamate (Higher HTPA) -->
     <g transform="translate(799.83 122.768281) scale(0.09 -0.09)">
      <use xlink:href="#DejaVuSans-70"/>
      <use xlink:href="#DejaVuSans-79" transform="translate(63.476562 0)"/>
      <use xlink:href="#DejaVuSans-6c" transform="translate(122.65625 0)"/>
      <use xlink:href="#DejaVuSans-62" transform="translate(150.439453 0)"/>
      <use xlink:href="#DejaVuSans-20" transform="translate(213.916016 0)"/>
      <use xlink:href="#DejaVuSans-28" transform="translate(245.703125 0)"/>
      <use xlink:href="#DejaVuSans-38" transform="translate(284.716797 0)"/>
      <use xlink:href="#DejaVuSans-2e" transform="translate(348.339844 0)"/>
      <use xlink:href="#DejaVuSans-32" transform="translate(380.126953 0)"/>
      <use xlink:href="#DejaVuSans-78" transform="translate(443.75 0)"/>
      <use xlink:href="#DejaVuSans-29" transform="translate(502.929688 0)"/>
      <use xlink:href="#DejaVuSans-20" transform="translate(541.943359 0)"/>
      <use xlink:href="#DejaVuSans-40" transform="translate(573.730469 0)"/>
      <use xlink:href="#DejaVuSans-20" transform="translate(673.730469 0)"/>
      <use xlink:href="#DejaVuSans-47" transform="translate(705.517578 0)"/>
      <use xlink:href="#DejaVuSans-6c" transform="translate(783.007812 0)"/>
      <use xlink:href="#DejaVuSans-75" transform="translate(810.791016 0)"/>
      <use xlink:href="#DejaVuSans-74" transform="translate(874.169922 0)"/>
      <use xlink:href="#DejaVuSans-61" transform="translate(913.378906 0)"/>
      <use xlink:href="#DejaVuSans-6d" transform="translate(974.658203 0)"/>
      <use xlink:href="#DejaVuSans-61" transform="translate(1072.070312 0)"/>
      <use xlink:href="#DejaVuSans-74" transform="translate(1133.349609 0)"/>
      <use xlink:href="#DejaVuSans-65" transform="translate(1172.558594 0)"/>
      <use xlink:href="#DejaVuSans-20" transform="translate(1234.082031 0)"/>
      <use xlink:href="#DejaVuSans-28" transform="translate(1265.869141 0)"/>
      <use xlink:href="#DejaVuSans-48" transform="translate(1304.882812 0)"/>
      <use xlink:href="#DejaVuSans-69" transform="translate(1380.078125 0)"/>
      <use xlink:href="#DejaVuSans-67" transform="translate(1407.861328 0)"/>
      <use xlink:href="#DejaVuSans-68" transform="translate(1471.337891 0)"/>
      <use xlink:href="#DejaVuSans-65" transform="translate(1534.716797 0)"/>
      <use xlink:href="#DejaVuSans-72" transform="translate(1596.240234 0)"/>
      <use xlink:href="#DejaVuSans-20" transform="translate(1637.353516 0)"/>
      <use xlink:href="#DejaVuSans-48" transform="translate(1669.140625 0)"/>
      <use xlink:href="#DejaVuSans-54" transform="translate(1744.335938 0)"/>
      <use xlink:href="#DejaVuSans-50" transform="translate(1805.419922 0)"/>
      <use xlink:href="#DejaVuSans-41" transform="translate(1859.347656 0)"/>
      <use xlink:href="#DejaVuSans-29" transform="translate(1927.755859 0)"/>
     </g>
    </g>
    <g id="line2d_47">
     <path d="M 774.63 132.828594 
L 783.63 132.828594 
L 792.63 132.828594 
" style="fill: none; stroke-dasharray: 7.4,3.2; stroke-dashoffset: 0; stroke: #008000; stroke-width: 2"/>
    </g>
    <g id="text_27">
     <!-- pyddf (2.4x) @ Glutamate (Higher HTPA) -->
     <g transform="translate(799.83 135.978594) scale(0.09 -0.09)">
      <use xlink:href="#DejaVuSans-70"/>
      <use xlink:href="#DejaVuSans-79" transform="translate(63.476562 0)"/>
      <use xlink:href="#DejaVuSans-64" transform="translate(122.65625 0)"/>
      <use xlink:href="#DejaVuSans-64" transform="translate(186.132812 0)"/>
      <use xlink:href="#DejaVuSans-66" transform="translate(249.609375 0)"/>
      <use xlink:href="#DejaVuSans-20" transform="translate(284.814453 0)"/>
      <use xlink:href="#DejaVuSans-28" transform="translate(316.601562 0)"/>
      <use xlink:href="#DejaVuSans-32" transform="translate(355.615234 0)"/>
      <use xlink:href="#DejaVuSans-2e" transform="translate(419.238281 0)"/>
      <use xlink:href="#DejaVuSans-34" transform="translate(451.025391 0)"/>
      <use xlink:href="#DejaVuSans-78" transform="translate(514.648438 0)"/>
      <use xlink:href="#DejaVuSans-29" transform="translate(573.828125 0)"/>
      <use xlink:href="#DejaVuSans-20" transform="translate(612.841797 0)"/>
      <use xlink:href="#DejaVuSans-40" transform="translate(644.628906 0)"/>
      <use xlink:href="#DejaVuSans-20" transform="translate(744.628906 0)"/>
      <use xlink:href="#DejaVuSans-47" transform="translate(776.416016 0)"/>
      <use xlink:href="#DejaVuSans-6c" transform="translate(853.90625 0)"/>
      <use xlink:href="#DejaVuSans-75" transform="translate(881.689453 0)"/>
      <use xlink:href="#DejaVuSans-74" transform="translate(945.068359 0)"/>
      <use xlink:href="#DejaVuSans-61" transform="translate(984.277344 0)"/>
      <use xlink:href="#DejaVuSans-6d" transform="translate(1045.556641 0)"/>
      <use xlink:href="#DejaVuSans-61" transform="translate(1142.96875 0)"/>
      <use xlink:href="#DejaVuSans-74" transform="translate(1204.248047 0)"/>
      <use xlink:href="#DejaVuSans-65" transform="translate(1243.457031 0)"/>
      <use xlink:href="#DejaVuSans-20" transform="translate(1304.980469 0)"/>
      <use xlink:href="#DejaVuSans-28" transform="translate(1336.767578 0)"/>
      <use xlink:href="#DejaVuSans-48" transform="translate(1375.78125 0)"/>
      <use xlink:href="#DejaVuSans-69" transform="translate(1450.976562 0)"/>
      <use xlink:href="#DejaVuSans-67" transform="translate(1478.759766 0)"/>
      <use xlink:href="#DejaVuSans-68" transform="translate(1542.236328 0)"/>
      <use xlink:href="#DejaVuSans-65" transform="translate(1605.615234 0)"/>
      <use xlink:href="#DejaVuSans-72" transform="translate(1667.138672 0)"/>
      <use xlink:href="#DejaVuSans-20" transform="translate(1708.251953 0)"/>
      <use xlink:href="#DejaVuSans-48" transform="translate(1740.039062 0)"/>
      <use xlink:href="#DejaVuSans-54" transform="translate(1815.234375 0)"/>
      <use xlink:href="#DejaVuSans-50" transform="translate(1876.318359 0)"/>
      <use xlink:href="#DejaVuSans-41" transform="translate(1930.246094 0)"/>
      <use xlink:href="#DejaVuSans-29" transform="translate(1998.654297 0)"/>
     </g>
    </g>
    <g id="line2d_48">
     <path d="M 774.63 146.038906 
L 783.63 146.038906 
L 792.63 146.038906 
" style="fill: none; stroke-dasharray: 7.4,3.2; stroke-dashoffset: 0; stroke: #ff0000; stroke-width: 2"/>
    </g>
    <g id="text_28">
     <!-- pmsm (2.0x) @ Glutamate (Higher HTPA) -->
     <g transform="translate(799.83 149.188906) scale(0.09 -0.09)">
      <use xlink:href="#DejaVuSans-70"/>
      <use xlink:href="#DejaVuSans-6d" transform="translate(63.476562 0)"/>
      <use xlink:href="#DejaVuSans-73" transform="translate(160.888672 0)"/>
      <use xlink:href="#DejaVuSans-6d" transform="translate(212.988281 0)"/>
      <use xlink:href="#DejaVuSans-20" transform="translate(310.400391 0)"/>
      <use xlink:href="#DejaVuSans-28" transform="translate(342.1875 0)"/>
      <use xlink:href="#DejaVuSans-32" transform="translate(381.201172 0)"/>
      <use xlink:href="#DejaVuSans-2e" transform="translate(444.824219 0)"/>
      <use xlink:href="#DejaVuSans-30" transform="translate(476.611328 0)"/>
      <use xlink:href="#DejaVuSans-78" transform="translate(540.234375 0)"/>
      <use xlink:href="#DejaVuSans-29" transform="translate(599.414062 0)"/>
      <use xlink:href="#DejaVuSans-20" transform="translate(638.427734 0)"/>
      <use xlink:href="#DejaVuSans-40" transform="translate(670.214844 0)"/>
      <use xlink:href="#DejaVuSans-20" transform="translate(770.214844 0)"/>
      <use xlink:href="#DejaVuSans-47" transform="translate(802.001953 0)"/>
      <use xlink:href="#DejaVuSans-6c" transform="translate(879.492188 0)"/>
      <use xlink:href="#DejaVuSans-75" transform="translate(907.275391 0)"/>
      <use xlink:href="#DejaVuSans-74" transform="translate(970.654297 0)"/>
      <use xlink:href="#DejaVuSans-61" transform="translate(1009.863281 0)"/>
      <use xlink:href="#DejaVuSans-6d" transform="translate(1071.142578 0)"/>
      <use xlink:href="#DejaVuSans-61" transform="translate(1168.554688 0)"/>
      <use xlink:href="#DejaVuSans-74" transform="translate(1229.833984 0)"/>
      <use xlink:href="#DejaVuSans-65" transform="translate(1269.042969 0)"/>
      <use xlink:href="#DejaVuSans-20" transform="translate(1330.566406 0)"/>
      <use xlink:href="#DejaVuSans-28" transform="translate(1362.353516 0)"/>
      <use xlink:href="#DejaVuSans-48" transform="translate(1401.367188 0)"/>
      <use xlink:href="#DejaVuSans-69" transform="translate(1476.5625 0)"/>
      <use xlink:href="#DejaVuSans-67" transform="translate(1504.345703 0)"/>
      <use xlink:href="#DejaVuSans-68" transform="translate(1567.822266 0)"/>
      <use xlink:href="#DejaVuSans-65" transform="translate(1631.201172 0)"/>
      <use xlink:href="#DejaVuSans-72" transform="translate(1692.724609 0)"/>
      <use xlink:href="#DejaVuSans-20" transform="translate(1733.837891 0)"/>
      <use xlink:href="#DejaVuSans-48" transform="translate(1765.625 0)"/>
      <use xlink:href="#DejaVuSans-54" transform="translate(1840.820312 0)"/>
      <use xlink:href="#DejaVuSans-50" transform="translate(1901.904297 0)"/>
      <use xlink:href="#DejaVuSans-41" transform="translate(1955.832031 0)"/>
      <use xlink:href="#DejaVuSans-29" transform="translate(2024.240234 0)"/>
     </g>
    </g>
   </g>
  </g>
 </g>
 <defs>
  <clipPath id="p75d1f914eb">
   <rect x="75.8" y="27.6" width="690.73" height="503.56"/>
  </clipPath>
 </defs>
</svg>
