<?xml version="1.0" encoding="utf-8" standalone="no"?>
<!DOCTYPE svg PUBLIC "-//W3C//DTD SVG 1.1//EN"
  "http://www.w3.org/Graphics/SVG/1.1/DTD/svg11.dtd">
<svg xmlns:xlink="http://www.w3.org/1999/xlink" width="1287.875082pt" height="442.491875pt" viewBox="0 0 1287.875082 442.491875" xmlns="http://www.w3.org/2000/svg" version="1.1">
 <metadata>
  <rdf:RDF xmlns:dc="http://purl.org/dc/elements/1.1/" xmlns:cc="http://creativecommons.org/ns#" xmlns:rdf="http://www.w3.org/1999/02/22-rdf-syntax-ns#">
   <cc:Work>
    <dc:type rdf:resource="http://purl.org/dc/dcmitype/StillImage"/>
    <dc:date>2026-01-21T17:10:42.957636</dc:date>
    <dc:format>image/svg+xml</dc:format>
    <dc:creator>
     <cc:Agent>
      <dc:title>Matplotlib v3.10.8, https://matplotlib.org/</dc:title>
     </cc:Agent>
    </dc:creator>
   </cc:Work>
  </rdf:RDF>
 </metadata>
 <defs>
  <style type="text/css">*{stroke-linejoin: round; stroke-linecap: butt}</style>
 </defs>
 <g id="figure_1">
  <g id="patch_1">
   <path d="M 0 442.491875 
L 1287.875082 442.491875 
L 1287.875082 -0 
L 0 -0 
z
" style="fill: #ffffff"/>
  </g>
  <g id="axes_1">
   <g id="patch_2">
    <path d="M 42.53875 403 
L 511.901477 403 
L 511.901477 68.64 
L 42.53875 68.64 
z
" style="fill: #ffffff"/>
   </g>
   <g id="line2d_1">
    <path d="M 42.53875 83.838182 
L 511.901477 83.838182 
" clip-path="url(#pa2059f1246)" style="fill: none; stroke-dasharray: 2,3.3; stroke-dashoffset: 0; stroke: #ff0000; stroke-width: 2"/>
   </g>
   <g id="matplotlib.axis_1">
    <g id="xtick_1">
     <g id="line2d_2">
      <path d="M 63.873419 403 
L 63.873419 68.64 
" clip-path="url(#pa2059f1246)" style="fill: none; stroke: #b0b0b0; stroke-opacity: 0.3; stroke-width: 0.8; stroke-linecap: square"/>
     </g>
     <g id="line2d_3">
      <defs>
       <path id="m382f9b8f11" d="M 0 0 
L 0 3.5 
" style="stroke: #000000; stroke-width: 0.8"/>
      </defs>
      <g>
       <use xlink:href="#m382f9b8f11" x="63.873419" y="403" style="stroke: #000000; stroke-width: 0.8"/>
      </g>
     </g>
     <g id="text_1">
      <!-- 0 -->
      <g transform="translate(60.692169 417.598437) scale(0.1 -0.1)">
       <defs>
        <path id="DejaVuSans-30" d="M 2034 4250 
Q 1547 4250 1301 3770 
Q 1056 3291 1056 2328 
Q 1056 1369 1301 889 
Q 1547 409 2034 409 
Q 2525 409 2770 889 
Q 3016 1369 3016 2328 
Q 3016 3291 2770 3770 
Q 2525 4250 2034 4250 
z
M 2034 4750 
Q 2819 4750 3233 4129 
Q 3647 3509 3647 2328 
Q 3647 1150 3233 529 
Q 2819 -91 2034 -91 
Q 1250 -91 836 529 
Q 422 1150 422 2328 
Q 422 3509 836 4129 
Q 1250 4750 2034 4750 
z
" transform="scale(0.015625)"/>
       </defs>
       <use xlink:href="#DejaVuSans-30"/>
      </g>
     </g>
    </g>
    <g id="xtick_2">
     <g id="line2d_4">
      <path d="M 152.767875 403 
L 152.767875 68.64 
" clip-path="url(#pa2059f1246)" style="fill: none; stroke: #b0b0b0; stroke-opacity: 0.3; stroke-width: 0.8; stroke-linecap: square"/>
     </g>
     <g id="line2d_5">
      <g>
       <use xlink:href="#m382f9b8f11" x="152.767875" y="403" style="stroke: #000000; stroke-width: 0.8"/>
      </g>
     </g>
     <g id="text_2">
      <!-- 5 -->
      <g transform="translate(149.586625 417.598437) scale(0.1 -0.1)">
       <defs>
        <path id="DejaVuSans-35" d="M 691 4666 
L 3169 4666 
L 3169 4134 
L 1269 4134 
L 1269 2991 
Q 1406 3038 1543 3061 
Q 1681 3084 1819 3084 
Q 2600 3084 3056 2656 
Q 3513 2228 3513 1497 
Q 3513 744 3044 326 
Q 2575 -91 1722 -91 
Q 1428 -91 1123 -41 
Q 819 9 494 109 
L 494 744 
Q 775 591 1075 516 
Q 1375 441 1709 441 
Q 2250 441 2565 725 
Q 2881 1009 2881 1497 
Q 2881 1984 2565 2268 
Q 2250 2553 1709 2553 
Q 1456 2553 1204 2497 
Q 953 2441 691 2322 
L 691 4666 
z
" transform="scale(0.015625)"/>
       </defs>
       <use xlink:href="#DejaVuSans-35"/>
      </g>
     </g>
    </g>
    <g id="xtick_3">
     <g id="line2d_6">
      <path d="M 241.662331 403 
L 241.662331 68.64 
" clip-path="url(#pa2059f1246)" style="fill: none; stroke: #b0b0b0; stroke-opacity: 0.3; stroke-width: 0.8; stroke-linecap: square"/>
     </g>
     <g id="line2d_7">
      <g>
       <use xlink:href="#m382f9b8f11" x="241.662331" y="403" style="stroke: #000000; stroke-width: 0.8"/>
      </g>
     </g>
     <g id="text_3">
      <!-- 10 -->
      <g transform="translate(235.299831 417.598437) scale(0.1 -0.1)">
       <defs>
        <path id="DejaVuSans-31" d="M 794 531 
L 1825 531 
L 1825 4091 
L 703 3866 
L 703 4441 
L 1819 4666 
L 2450 4666 
L 2450 531 
L 3481 531 
L 3481 0 
L 794 0 
L 794 531 
z
" transform="scale(0.015625)"/>
       </defs>
       <use xlink:href="#DejaVuSans-31"/>
       <use xlink:href="#DejaVuSans-30" transform="translate(63.623047 0)"/>
      </g>
     </g>
    </g>
    <g id="xtick_4">
     <g id="line2d_8">
      <path d="M 330.556787 403 
L 330.556787 68.64 
" clip-path="url(#pa2059f1246)" style="fill: none; stroke: #b0b0b0; stroke-opacity: 0.3; stroke-width: 0.8; stroke-linecap: square"/>
     </g>
     <g id="line2d_9">
      <g>
       <use xlink:href="#m382f9b8f11" x="330.556787" y="403" style="stroke: #000000; stroke-width: 0.8"/>
      </g>
     </g>
     <g id="text_4">
      <!-- 15 -->
      <g transform="translate(324.194287 417.598437) scale(0.1 -0.1)">
       <use xlink:href="#DejaVuSans-31"/>
       <use xlink:href="#DejaVuSans-35" transform="translate(63.623047 0)"/>
      </g>
     </g>
    </g>
    <g id="xtick_5">
     <g id="line2d_10">
      <path d="M 419.451243 403 
L 419.451243 68.64 
" clip-path="url(#pa2059f1246)" style="fill: none; stroke: #b0b0b0; stroke-opacity: 0.3; stroke-width: 0.8; stroke-linecap: square"/>
     </g>
     <g id="line2d_11">
      <g>
       <use xlink:href="#m382f9b8f11" x="419.451243" y="403" style="stroke: #000000; stroke-width: 0.8"/>
      </g>
     </g>
     <g id="text_5">
      <!-- 20 -->
      <g transform="translate(413.088743 417.598437) scale(0.1 -0.1)">
       <defs>
        <path id="DejaVuSans-32" d="M 1228 531 
L 3431 531 
L 3431 0 
L 469 0 
L 469 531 
Q 828 903 1448 1529 
Q 2069 2156 2228 2338 
Q 2531 2678 2651 2914 
Q 2772 3150 2772 3378 
Q 2772 3750 2511 3984 
Q 2250 4219 1831 4219 
Q 1534 4219 1204 4116 
Q 875 4013 500 3803 
L 500 4441 
Q 881 4594 1212 4672 
Q 1544 4750 1819 4750 
Q 2544 4750 2975 4387 
Q 3406 4025 3406 3419 
Q 3406 3131 3298 2873 
Q 3191 2616 2906 2266 
Q 2828 2175 2409 1742 
Q 1991 1309 1228 531 
z
" transform="scale(0.015625)"/>
       </defs>
       <use xlink:href="#DejaVuSans-32"/>
       <use xlink:href="#DejaVuSans-30" transform="translate(63.623047 0)"/>
      </g>
     </g>
    </g>
    <g id="xtick_6">
     <g id="line2d_12">
      <path d="M 508.345699 403 
L 508.345699 68.64 
" clip-path="url(#pa2059f1246)" style="fill: none; stroke: #b0b0b0; stroke-opacity: 0.3; stroke-width: 0.8; stroke-linecap: square"/>
     </g>
     <g id="line2d_13">
      <g>
       <use xlink:href="#m382f9b8f11" x="508.345699" y="403" style="stroke: #000000; stroke-width: 0.8"/>
      </g>
     </g>
     <g id="text_6">
      <!-- 25 -->
      <g transform="translate(501.983199 417.598437) scale(0.1 -0.1)">
       <use xlink:href="#DejaVuSans-32"/>
       <use xlink:href="#DejaVuSans-35" transform="translate(63.623047 0)"/>
      </g>
     </g>
    </g>
    <g id="text_7">
     <!-- Time (hours) -->
     <g transform="translate(239.082614 432.79625) scale(0.12 -0.12)">
      <defs>
       <path id="DejaVuSans-54" d="M -19 4666 
L 3928 4666 
L 3928 4134 
L 2272 4134 
L 2272 0 
L 1638 0 
L 1638 4134 
L -19 4134 
L -19 4666 
z
" transform="scale(0.015625)"/>
       <path id="DejaVuSans-69" d="M 603 3500 
L 1178 3500 
L 1178 0 
L 603 0 
L 603 3500 
z
M 603 4863 
L 1178 4863 
L 1178 4134 
L 603 4134 
L 603 4863 
z
" transform="scale(0.015625)"/>
       <path id="DejaVuSans-6d" d="M 3328 2828 
Q 3544 3216 3844 3400 
Q 4144 3584 4550 3584 
Q 5097 3584 5394 3201 
Q 5691 2819 5691 2113 
L 5691 0 
L 5113 0 
L 5113 2094 
Q 5113 2597 4934 2840 
Q 4756 3084 4391 3084 
Q 3944 3084 3684 2787 
Q 3425 2491 3425 1978 
L 3425 0 
L 2847 0 
L 2847 2094 
Q 2847 2600 2669 2842 
Q 2491 3084 2119 3084 
Q 1678 3084 1418 2786 
Q 1159 2488 1159 1978 
L 1159 0 
L 581 0 
L 581 3500 
L 1159 3500 
L 1159 2956 
Q 1356 3278 1631 3431 
Q 1906 3584 2284 3584 
Q 2666 3584 2933 3390 
Q 3200 3197 3328 2828 
z
" transform="scale(0.015625)"/>
       <path id="DejaVuSans-65" d="M 3597 1894 
L 3597 1613 
L 953 1613 
Q 991 1019 1311 708 
Q 1631 397 2203 397 
Q 2534 397 2845 478 
Q 3156 559 3463 722 
L 3463 178 
Q 3153 47 2828 -22 
Q 2503 -91 2169 -91 
Q 1331 -91 842 396 
Q 353 884 353 1716 
Q 353 2575 817 3079 
Q 1281 3584 2069 3584 
Q 2775 3584 3186 3129 
Q 3597 2675 3597 1894 
z
M 3022 2063 
Q 3016 2534 2758 2815 
Q 2500 3097 2075 3097 
Q 1594 3097 1305 2825 
Q 1016 2553 972 2059 
L 3022 2063 
z
" transform="scale(0.015625)"/>
       <path id="DejaVuSans-20" transform="scale(0.015625)"/>
       <path id="DejaVuSans-28" d="M 1984 4856 
Q 1566 4138 1362 3434 
Q 1159 2731 1159 2009 
Q 1159 1288 1364 580 
Q 1569 -128 1984 -844 
L 1484 -844 
Q 1016 -109 783 600 
Q 550 1309 550 2009 
Q 550 2706 781 3412 
Q 1013 4119 1484 4856 
L 1984 4856 
z
" transform="scale(0.015625)"/>
       <path id="DejaVuSans-68" d="M 3513 2113 
L 3513 0 
L 2938 0 
L 2938 2094 
Q 2938 2591 2744 2837 
Q 2550 3084 2163 3084 
Q 1697 3084 1428 2787 
Q 1159 2491 1159 1978 
L 1159 0 
L 581 0 
L 581 4863 
L 1159 4863 
L 1159 2956 
Q 1366 3272 1645 3428 
Q 1925 3584 2291 3584 
Q 2894 3584 3203 3211 
Q 3513 2838 3513 2113 
z
" transform="scale(0.015625)"/>
       <path id="DejaVuSans-6f" d="M 1959 3097 
Q 1497 3097 1228 2736 
Q 959 2375 959 1747 
Q 959 1119 1226 758 
Q 1494 397 1959 397 
Q 2419 397 2687 759 
Q 2956 1122 2956 1747 
Q 2956 2369 2687 2733 
Q 2419 3097 1959 3097 
z
M 1959 3584 
Q 2709 3584 3137 3096 
Q 3566 2609 3566 1747 
Q 3566 888 3137 398 
Q 2709 -91 1959 -91 
Q 1206 -91 779 398 
Q 353 888 353 1747 
Q 353 2609 779 3096 
Q 1206 3584 1959 3584 
z
" transform="scale(0.015625)"/>
       <path id="DejaVuSans-75" d="M 544 1381 
L 544 3500 
L 1119 3500 
L 1119 1403 
Q 1119 906 1312 657 
Q 1506 409 1894 409 
Q 2359 409 2629 706 
Q 2900 1003 2900 1516 
L 2900 3500 
L 3475 3500 
L 3475 0 
L 2900 0 
L 2900 538 
Q 2691 219 2414 64 
Q 2138 -91 1772 -91 
Q 1169 -91 856 284 
Q 544 659 544 1381 
z
M 1991 3584 
L 1991 3584 
z
" transform="scale(0.015625)"/>
       <path id="DejaVuSans-72" d="M 2631 2963 
Q 2534 3019 2420 3045 
Q 2306 3072 2169 3072 
Q 1681 3072 1420 2755 
Q 1159 2438 1159 1844 
L 1159 0 
L 581 0 
L 581 3500 
L 1159 3500 
L 1159 2956 
Q 1341 3275 1631 3429 
Q 1922 3584 2338 3584 
Q 2397 3584 2469 3576 
Q 2541 3569 2628 3553 
L 2631 2963 
z
" transform="scale(0.015625)"/>
       <path id="DejaVuSans-73" d="M 2834 3397 
L 2834 2853 
Q 2591 2978 2328 3040 
Q 2066 3103 1784 3103 
Q 1356 3103 1142 2972 
Q 928 2841 928 2578 
Q 928 2378 1081 2264 
Q 1234 2150 1697 2047 
L 1894 2003 
Q 2506 1872 2764 1633 
Q 3022 1394 3022 966 
Q 3022 478 2636 193 
Q 2250 -91 1575 -91 
Q 1294 -91 989 -36 
Q 684 19 347 128 
L 347 722 
Q 666 556 975 473 
Q 1284 391 1588 391 
Q 1994 391 2212 530 
Q 2431 669 2431 922 
Q 2431 1156 2273 1281 
Q 2116 1406 1581 1522 
L 1381 1569 
Q 847 1681 609 1914 
Q 372 2147 372 2553 
Q 372 3047 722 3315 
Q 1072 3584 1716 3584 
Q 2034 3584 2315 3537 
Q 2597 3491 2834 3397 
z
" transform="scale(0.015625)"/>
       <path id="DejaVuSans-29" d="M 513 4856 
L 1013 4856 
Q 1481 4119 1714 3412 
Q 1947 2706 1947 2009 
Q 1947 1309 1714 600 
Q 1481 -109 1013 -844 
L 513 -844 
Q 928 -128 1133 580 
Q 1338 1288 1338 2009 
Q 1338 2731 1133 3434 
Q 928 4138 513 4856 
z
" transform="scale(0.015625)"/>
      </defs>
      <use xlink:href="#DejaVuSans-54"/>
      <use xlink:href="#DejaVuSans-69" transform="translate(57.958984 0)"/>
      <use xlink:href="#DejaVuSans-6d" transform="translate(85.742188 0)"/>
      <use xlink:href="#DejaVuSans-65" transform="translate(183.154297 0)"/>
      <use xlink:href="#DejaVuSans-20" transform="translate(244.677734 0)"/>
      <use xlink:href="#DejaVuSans-28" transform="translate(276.464844 0)"/>
      <use xlink:href="#DejaVuSans-68" transform="translate(315.478516 0)"/>
      <use xlink:href="#DejaVuSans-6f" transform="translate(378.857422 0)"/>
      <use xlink:href="#DejaVuSans-75" transform="translate(440.039062 0)"/>
      <use xlink:href="#DejaVuSans-72" transform="translate(503.417969 0)"/>
      <use xlink:href="#DejaVuSans-73" transform="translate(544.53125 0)"/>
      <use xlink:href="#DejaVuSans-29" transform="translate(596.630859 0)"/>
     </g>
    </g>
   </g>
   <g id="matplotlib.axis_2">
    <g id="ytick_1">
     <g id="line2d_14">
      <path d="M 42.53875 387.801818 
L 511.901477 387.801818 
" clip-path="url(#pa2059f1246)" style="fill: none; stroke: #b0b0b0; stroke-opacity: 0.3; stroke-width: 0.8; stroke-linecap: square"/>
     </g>
     <g id="line2d_15">
      <defs>
       <path id="m9708268b6f" d="M 0 0 
L -3.5 0 
" style="stroke: #000000; stroke-width: 0.8"/>
      </defs>
      <g>
       <use xlink:href="#m9708268b6f" x="42.53875" y="387.801818" style="stroke: #000000; stroke-width: 0.8"/>
      </g>
     </g>
     <g id="text_8">
      <!-- 0 -->
      <g transform="translate(29.17625 391.601037) scale(0.1 -0.1)">
       <use xlink:href="#DejaVuSans-30"/>
      </g>
     </g>
    </g>
    <g id="ytick_2">
     <g id="line2d_16">
      <path d="M 42.53875 337.141212 
L 511.901477 337.141212 
" clip-path="url(#pa2059f1246)" style="fill: none; stroke: #b0b0b0; stroke-opacity: 0.3; stroke-width: 0.8; stroke-linecap: square"/>
     </g>
     <g id="line2d_17">
      <g>
       <use xlink:href="#m9708268b6f" x="42.53875" y="337.141212" style="stroke: #000000; stroke-width: 0.8"/>
      </g>
     </g>
     <g id="text_9">
      <!-- 5 -->
      <g transform="translate(29.17625 340.940431) scale(0.1 -0.1)">
       <use xlink:href="#DejaVuSans-35"/>
      </g>
     </g>
    </g>
    <g id="ytick_3">
     <g id="line2d_18">
      <path d="M 42.53875 286.480606 
L 511.901477 286.480606 
" clip-path="url(#pa2059f1246)" style="fill: none; stroke: #b0b0b0; stroke-opacity: 0.3; stroke-width: 0.8; stroke-linecap: square"/>
     </g>
     <g id="line2d_19">
      <g>
       <use xlink:href="#m9708268b6f" x="42.53875" y="286.480606" style="stroke: #000000; stroke-width: 0.8"/>
      </g>
     </g>
     <g id="text_10">
      <!-- 10 -->
      <g transform="translate(22.81375 290.279825) scale(0.1 -0.1)">
       <use xlink:href="#DejaVuSans-31"/>
       <use xlink:href="#DejaVuSans-30" transform="translate(63.623047 0)"/>
      </g>
     </g>
    </g>
    <g id="ytick_4">
     <g id="line2d_20">
      <path d="M 42.53875 235.82 
L 511.901477 235.82 
" clip-path="url(#pa2059f1246)" style="fill: none; stroke: #b0b0b0; stroke-opacity: 0.3; stroke-width: 0.8; stroke-linecap: square"/>
     </g>
     <g id="line2d_21">
      <g>
       <use xlink:href="#m9708268b6f" x="42.53875" y="235.82" style="stroke: #000000; stroke-width: 0.8"/>
      </g>
     </g>
     <g id="text_11">
      <!-- 15 -->
      <g transform="translate(22.81375 239.619219) scale(0.1 -0.1)">
       <use xlink:href="#DejaVuSans-31"/>
       <use xlink:href="#DejaVuSans-35" transform="translate(63.623047 0)"/>
      </g>
     </g>
    </g>
    <g id="ytick_5">
     <g id="line2d_22">
      <path d="M 42.53875 185.159394 
L 511.901477 185.159394 
" clip-path="url(#pa2059f1246)" style="fill: none; stroke: #b0b0b0; stroke-opacity: 0.3; stroke-width: 0.8; stroke-linecap: square"/>
     </g>
     <g id="line2d_23">
      <g>
       <use xlink:href="#m9708268b6f" x="42.53875" y="185.159394" style="stroke: #000000; stroke-width: 0.8"/>
      </g>
     </g>
     <g id="text_12">
      <!-- 20 -->
      <g transform="translate(22.81375 188.958613) scale(0.1 -0.1)">
       <use xlink:href="#DejaVuSans-32"/>
       <use xlink:href="#DejaVuSans-30" transform="translate(63.623047 0)"/>
      </g>
     </g>
    </g>
    <g id="ytick_6">
     <g id="line2d_24">
      <path d="M 42.53875 134.498788 
L 511.901477 134.498788 
" clip-path="url(#pa2059f1246)" style="fill: none; stroke: #b0b0b0; stroke-opacity: 0.3; stroke-width: 0.8; stroke-linecap: square"/>
     </g>
     <g id="line2d_25">
      <g>
       <use xlink:href="#m9708268b6f" x="42.53875" y="134.498788" style="stroke: #000000; stroke-width: 0.8"/>
      </g>
     </g>
     <g id="text_13">
      <!-- 25 -->
      <g transform="translate(22.81375 138.298007) scale(0.1 -0.1)">
       <use xlink:href="#DejaVuSans-32"/>
       <use xlink:href="#DejaVuSans-35" transform="translate(63.623047 0)"/>
      </g>
     </g>
    </g>
    <g id="ytick_7">
     <g id="line2d_26">
      <path d="M 42.53875 83.838182 
L 511.901477 83.838182 
" clip-path="url(#pa2059f1246)" style="fill: none; stroke: #b0b0b0; stroke-opacity: 0.3; stroke-width: 0.8; stroke-linecap: square"/>
     </g>
     <g id="line2d_27">
      <g>
       <use xlink:href="#m9708268b6f" x="42.53875" y="83.838182" style="stroke: #000000; stroke-width: 0.8"/>
      </g>
     </g>
     <g id="text_14">
      <!-- 30 -->
      <g transform="translate(22.81375 87.637401) scale(0.1 -0.1)">
       <defs>
        <path id="DejaVuSans-33" d="M 2597 2516 
Q 3050 2419 3304 2112 
Q 3559 1806 3559 1356 
Q 3559 666 3084 287 
Q 2609 -91 1734 -91 
Q 1441 -91 1130 -33 
Q 819 25 488 141 
L 488 750 
Q 750 597 1062 519 
Q 1375 441 1716 441 
Q 2309 441 2620 675 
Q 2931 909 2931 1356 
Q 2931 1769 2642 2001 
Q 2353 2234 1838 2234 
L 1294 2234 
L 1294 2753 
L 1863 2753 
Q 2328 2753 2575 2939 
Q 2822 3125 2822 3475 
Q 2822 3834 2567 4026 
Q 2313 4219 1838 4219 
Q 1578 4219 1281 4162 
Q 984 4106 628 3988 
L 628 4550 
Q 988 4650 1302 4700 
Q 1616 4750 1894 4750 
Q 2613 4750 3031 4423 
Q 3450 4097 3450 3541 
Q 3450 3153 3228 2886 
Q 3006 2619 2597 2516 
z
" transform="scale(0.015625)"/>
       </defs>
       <use xlink:href="#DejaVuSans-33"/>
       <use xlink:href="#DejaVuSans-30" transform="translate(63.623047 0)"/>
      </g>
     </g>
    </g>
    <g id="text_15">
     <!-- DPA Concentration (g/L) -->
     <g transform="translate(16.318125 307.894062) rotate(-90) scale(0.12 -0.12)">
      <defs>
       <path id="DejaVuSans-44" d="M 1259 4147 
L 1259 519 
L 2022 519 
Q 2988 519 3436 956 
Q 3884 1394 3884 2338 
Q 3884 3275 3436 3711 
Q 2988 4147 2022 4147 
L 1259 4147 
z
M 628 4666 
L 1925 4666 
Q 3281 4666 3915 4102 
Q 4550 3538 4550 2338 
Q 4550 1131 3912 565 
Q 3275 0 1925 0 
L 628 0 
L 628 4666 
z
" transform="scale(0.015625)"/>
       <path id="DejaVuSans-50" d="M 1259 4147 
L 1259 2394 
L 2053 2394 
Q 2494 2394 2734 2622 
Q 2975 2850 2975 3272 
Q 2975 3691 2734 3919 
Q 2494 4147 2053 4147 
L 1259 4147 
z
M 628 4666 
L 2053 4666 
Q 2838 4666 3239 4311 
Q 3641 3956 3641 3272 
Q 3641 2581 3239 2228 
Q 2838 1875 2053 1875 
L 1259 1875 
L 1259 0 
L 628 0 
L 628 4666 
z
" transform="scale(0.015625)"/>
       <path id="DejaVuSans-41" d="M 2188 4044 
L 1331 1722 
L 3047 1722 
L 2188 4044 
z
M 1831 4666 
L 2547 4666 
L 4325 0 
L 3669 0 
L 3244 1197 
L 1141 1197 
L 716 0 
L 50 0 
L 1831 4666 
z
" transform="scale(0.015625)"/>
       <path id="DejaVuSans-43" d="M 4122 4306 
L 4122 3641 
Q 3803 3938 3442 4084 
Q 3081 4231 2675 4231 
Q 1875 4231 1450 3742 
Q 1025 3253 1025 2328 
Q 1025 1406 1450 917 
Q 1875 428 2675 428 
Q 3081 428 3442 575 
Q 3803 722 4122 1019 
L 4122 359 
Q 3791 134 3420 21 
Q 3050 -91 2638 -91 
Q 1578 -91 968 557 
Q 359 1206 359 2328 
Q 359 3453 968 4101 
Q 1578 4750 2638 4750 
Q 3056 4750 3426 4639 
Q 3797 4528 4122 4306 
z
" transform="scale(0.015625)"/>
       <path id="DejaVuSans-6e" d="M 3513 2113 
L 3513 0 
L 2938 0 
L 2938 2094 
Q 2938 2591 2744 2837 
Q 2550 3084 2163 3084 
Q 1697 3084 1428 2787 
Q 1159 2491 1159 1978 
L 1159 0 
L 581 0 
L 581 3500 
L 1159 3500 
L 1159 2956 
Q 1366 3272 1645 3428 
Q 1925 3584 2291 3584 
Q 2894 3584 3203 3211 
Q 3513 2838 3513 2113 
z
" transform="scale(0.015625)"/>
       <path id="DejaVuSans-63" d="M 3122 3366 
L 3122 2828 
Q 2878 2963 2633 3030 
Q 2388 3097 2138 3097 
Q 1578 3097 1268 2742 
Q 959 2388 959 1747 
Q 959 1106 1268 751 
Q 1578 397 2138 397 
Q 2388 397 2633 464 
Q 2878 531 3122 666 
L 3122 134 
Q 2881 22 2623 -34 
Q 2366 -91 2075 -91 
Q 1284 -91 818 406 
Q 353 903 353 1747 
Q 353 2603 823 3093 
Q 1294 3584 2113 3584 
Q 2378 3584 2631 3529 
Q 2884 3475 3122 3366 
z
" transform="scale(0.015625)"/>
       <path id="DejaVuSans-74" d="M 1172 4494 
L 1172 3500 
L 2356 3500 
L 2356 3053 
L 1172 3053 
L 1172 1153 
Q 1172 725 1289 603 
Q 1406 481 1766 481 
L 2356 481 
L 2356 0 
L 1766 0 
Q 1100 0 847 248 
Q 594 497 594 1153 
L 594 3053 
L 172 3053 
L 172 3500 
L 594 3500 
L 594 4494 
L 1172 4494 
z
" transform="scale(0.015625)"/>
       <path id="DejaVuSans-61" d="M 2194 1759 
Q 1497 1759 1228 1600 
Q 959 1441 959 1056 
Q 959 750 1161 570 
Q 1363 391 1709 391 
Q 2188 391 2477 730 
Q 2766 1069 2766 1631 
L 2766 1759 
L 2194 1759 
z
M 3341 1997 
L 3341 0 
L 2766 0 
L 2766 531 
Q 2569 213 2275 61 
Q 1981 -91 1556 -91 
Q 1019 -91 701 211 
Q 384 513 384 1019 
Q 384 1609 779 1909 
Q 1175 2209 1959 2209 
L 2766 2209 
L 2766 2266 
Q 2766 2663 2505 2880 
Q 2244 3097 1772 3097 
Q 1472 3097 1187 3025 
Q 903 2953 641 2809 
L 641 3341 
Q 956 3463 1253 3523 
Q 1550 3584 1831 3584 
Q 2591 3584 2966 3190 
Q 3341 2797 3341 1997 
z
" transform="scale(0.015625)"/>
       <path id="DejaVuSans-67" d="M 2906 1791 
Q 2906 2416 2648 2759 
Q 2391 3103 1925 3103 
Q 1463 3103 1205 2759 
Q 947 2416 947 1791 
Q 947 1169 1205 825 
Q 1463 481 1925 481 
Q 2391 481 2648 825 
Q 2906 1169 2906 1791 
z
M 3481 434 
Q 3481 -459 3084 -895 
Q 2688 -1331 1869 -1331 
Q 1566 -1331 1297 -1286 
Q 1028 -1241 775 -1147 
L 775 -588 
Q 1028 -725 1275 -790 
Q 1522 -856 1778 -856 
Q 2344 -856 2625 -561 
Q 2906 -266 2906 331 
L 2906 616 
Q 2728 306 2450 153 
Q 2172 0 1784 0 
Q 1141 0 747 490 
Q 353 981 353 1791 
Q 353 2603 747 3093 
Q 1141 3584 1784 3584 
Q 2172 3584 2450 3431 
Q 2728 3278 2906 2969 
L 2906 3500 
L 3481 3500 
L 3481 434 
z
" transform="scale(0.015625)"/>
       <path id="DejaVuSans-2f" d="M 1625 4666 
L 2156 4666 
L 531 -594 
L 0 -594 
L 1625 4666 
z
" transform="scale(0.015625)"/>
       <path id="DejaVuSans-4c" d="M 628 4666 
L 1259 4666 
L 1259 531 
L 3531 531 
L 3531 0 
L 628 0 
L 628 4666 
z
" transform="scale(0.015625)"/>
      </defs>
      <use xlink:href="#DejaVuSans-44"/>
      <use xlink:href="#DejaVuSans-50" transform="translate(77.001953 0)"/>
      <use xlink:href="#DejaVuSans-41" transform="translate(130.929688 0)"/>
      <use xlink:href="#DejaVuSans-20" transform="translate(199.337891 0)"/>
      <use xlink:href="#DejaVuSans-43" transform="translate(231.125 0)"/>
      <use xlink:href="#DejaVuSans-6f" transform="translate(300.949219 0)"/>
      <use xlink:href="#DejaVuSans-6e" transform="translate(362.130859 0)"/>
      <use xlink:href="#DejaVuSans-63" transform="translate(425.509766 0)"/>
      <use xlink:href="#DejaVuSans-65" transform="translate(480.490234 0)"/>
      <use xlink:href="#DejaVuSans-6e" transform="translate(542.013672 0)"/>
      <use xlink:href="#DejaVuSans-74" transform="translate(605.392578 0)"/>
      <use xlink:href="#DejaVuSans-72" transform="translate(644.601562 0)"/>
      <use xlink:href="#DejaVuSans-61" transform="translate(685.714844 0)"/>
      <use xlink:href="#DejaVuSans-74" transform="translate(746.994141 0)"/>
      <use xlink:href="#DejaVuSans-69" transform="translate(786.203125 0)"/>
      <use xlink:href="#DejaVuSans-6f" transform="translate(813.986328 0)"/>
      <use xlink:href="#DejaVuSans-6e" transform="translate(875.167969 0)"/>
      <use xlink:href="#DejaVuSans-20" transform="translate(938.546875 0)"/>
      <use xlink:href="#DejaVuSans-28" transform="translate(970.333984 0)"/>
      <use xlink:href="#DejaVuSans-67" transform="translate(1009.347656 0)"/>
      <use xlink:href="#DejaVuSans-2f" transform="translate(1072.824219 0)"/>
      <use xlink:href="#DejaVuSans-4c" transform="translate(1106.515625 0)"/>
      <use xlink:href="#DejaVuSans-29" transform="translate(1162.228516 0)"/>
     </g>
    </g>
   </g>
   <g id="line2d_28">
    <path d="M 63.873419 387.801818 
L 179.623077 387.690694 
L 307.33211 387.338366 
L 452.553083 386.709903 
L 490.566808 386.512775 
L 490.566808 386.512775 
" clip-path="url(#pa2059f1246)" style="fill: none; stroke: #0000ff; stroke-opacity: 0.8; stroke-width: 2.5; stroke-linecap: square"/>
   </g>
   <g id="line2d_29">
    <path d="M 63.873419 387.801818 
L 104.449868 387.692136 
L 144.599196 387.355958 
L 186.457005 386.782157 
L 230.023297 385.961784 
L 275.725192 384.876546 
L 323.562689 383.51519 
L 373.535788 381.868753 
L 426.071611 379.913739 
L 481.597277 377.622089 
L 490.566808 377.231773 
L 490.566808 377.231773 
" clip-path="url(#pa2059f1246)" style="fill: none; stroke: #ffa500; stroke-opacity: 0.8; stroke-width: 2.5; stroke-linecap: square"/>
   </g>
   <g id="line2d_30">
    <path d="M 63.873419 387.801818 
L 103.168506 387.691174 
L 142.036473 387.351061 
L 182.1858 386.77596 
L 224.04361 385.952591 
L 267.609902 384.871983 
L 313.311797 383.513264 
L 361.149294 381.865158 
L 411.122393 379.918691 
L 463.658216 377.647759 
L 490.566808 376.402641 
L 490.566808 376.402641 
" clip-path="url(#pa2059f1246)" style="fill: none; stroke-dasharray: 9.25,4; stroke-dashoffset: 0; stroke: #0000ff; stroke-opacity: 0.8; stroke-width: 2.5"/>
   </g>
   <g id="line2d_31">
    <path d="M 63.873419 387.801818 
L 78.395517 387.696721 
L 91.636253 387.365538 
L 104.876988 386.810546 
L 118.117724 386.037444 
L 131.78558 385.016524 
L 145.453437 383.775077 
L 159.548413 382.270001 
L 173.64339 380.542758 
L 188.165488 378.53717 
L 202.687585 376.308547 
L 217.636803 373.787969 
L 232.58602 371.044239 
L 247.962359 367.996061 
L 263.765818 364.631386 
L 279.569276 361.038778 
L 295.799856 357.11908 
L 312.030435 352.973519 
L 328.688135 348.491389 
L 345.772955 343.662611 
L 363.284896 338.477567 
L 380.796837 333.062006 
L 398.735898 327.283428 
L 417.10208 321.133462 
L 435.895383 314.604217 
L 455.115806 307.688291 
L 474.763349 300.378782 
L 490.566808 294.329545 
L 490.566808 294.329545 
" clip-path="url(#pa2059f1246)" style="fill: none; stroke-dasharray: 9.25,4; stroke-dashoffset: 0; stroke: #ffa500; stroke-opacity: 0.8; stroke-width: 2.5"/>
   </g>
   <g id="line2d_32">
    <path d="M 63.873419 387.801818 
L 88.219288 387.692228 
L 111.283796 387.356173 
L 134.775424 386.790202 
L 158.694172 385.992377 
L 183.467162 384.94122 
L 208.667272 383.648234 
L 234.721623 382.085629 
L 261.203095 380.273761 
L 288.538807 378.178913 
L 316.728761 375.792099 
L 345.345835 373.146398 
L 374.81715 370.199974 
L 405.142706 366.946374 
L 436.749624 363.329682 
L 469.210782 359.389787 
L 490.566808 356.679896 
L 490.566808 356.679896 
" clip-path="url(#pa2059f1246)" style="fill: none; stroke-dasharray: 16,4,2.5,4; stroke-dashoffset: 0; stroke: #0000ff; stroke-opacity: 0.8; stroke-width: 2.5"/>
   </g>
   <g id="line2d_33">
    <path d="M 63.873419 387.801818 
L 73.270071 387.697627 
L 80.95824 387.388303 
L 89.073529 386.833871 
L 97.188819 386.048759 
L 105.304109 385.03658 
L 113.419398 383.800904 
L 121.534688 382.345242 
L 129.649978 380.673047 
L 138.192388 378.68265 
L 146.734798 376.459995 
L 155.277208 374.008919 
L 163.819619 371.333194 
L 172.789149 368.285965 
L 181.75868 364.999375 
L 190.728211 361.477577 
L 199.697741 357.724645 
L 209.094392 353.549464 
L 218.491044 349.129536 
L 227.887695 344.469303 
L 237.711467 339.34504 
L 247.535238 333.96779 
L 257.35901 328.342355 
L 267.609902 322.212822 
L 277.860794 315.823427 
L 288.111687 309.179313 
L 298.789699 301.992934 
L 309.467712 294.541219 
L 320.572845 286.515843 
L 331.677979 278.215414 
L 343.210232 269.310927 
L 354.742486 260.122629 
L 366.70186 250.300997 
L 378.661235 240.187807 
L 391.047729 229.413235 
L 403.434224 218.340408 
L 416.247839 206.579472 
L 429.061455 194.51466 
L 442.30219 181.736412 
L 455.542926 168.649763 
L 469.210782 154.825813 
L 482.878639 140.690042 
L 490.566808 132.604726 
L 490.566808 132.604726 
" clip-path="url(#pa2059f1246)" style="fill: none; stroke-dasharray: 16,4,2.5,4; stroke-dashoffset: 0; stroke: #ffa500; stroke-opacity: 0.8; stroke-width: 2.5"/>
   </g>
   <g id="patch_3">
    <path d="M 42.53875 403 
L 42.53875 68.64 
" style="fill: none; stroke: #000000; stroke-width: 0.8; stroke-linejoin: miter; stroke-linecap: square"/>
   </g>
   <g id="patch_4">
    <path d="M 511.901477 403 
L 511.901477 68.64 
" style="fill: none; stroke: #000000; stroke-width: 0.8; stroke-linejoin: miter; stroke-linecap: square"/>
   </g>
   <g id="patch_5">
    <path d="M 42.53875 403 
L 511.901477 403 
" style="fill: none; stroke: #000000; stroke-width: 0.8; stroke-linejoin: miter; stroke-linecap: square"/>
   </g>
   <g id="patch_6">
    <path d="M 42.53875 68.64 
L 511.901477 68.64 
" style="fill: none; stroke: #000000; stroke-width: 0.8; stroke-linejoin: miter; stroke-linecap: square"/>
   </g>
   <g id="text_16">
    <!-- Glucose Conditions (Lower HTPA) -->
    <g transform="translate(161.069332 62.64) scale(0.14 -0.14)">
     <defs>
      <path id="DejaVuSans-47" d="M 3809 666 
L 3809 1919 
L 2778 1919 
L 2778 2438 
L 4434 2438 
L 4434 434 
Q 4069 175 3628 42 
Q 3188 -91 2688 -91 
Q 1594 -91 976 548 
Q 359 1188 359 2328 
Q 359 3472 976 4111 
Q 1594 4750 2688 4750 
Q 3144 4750 3555 4637 
Q 3966 4525 4313 4306 
L 4313 3634 
Q 3963 3931 3569 4081 
Q 3175 4231 2741 4231 
Q 1884 4231 1454 3753 
Q 1025 3275 1025 2328 
Q 1025 1384 1454 906 
Q 1884 428 2741 428 
Q 3075 428 3337 486 
Q 3600 544 3809 666 
z
" transform="scale(0.015625)"/>
      <path id="DejaVuSans-6c" d="M 603 4863 
L 1178 4863 
L 1178 0 
L 603 0 
L 603 4863 
z
" transform="scale(0.015625)"/>
      <path id="DejaVuSans-64" d="M 2906 2969 
L 2906 4863 
L 3481 4863 
L 3481 0 
L 2906 0 
L 2906 525 
Q 2725 213 2448 61 
Q 2172 -91 1784 -91 
Q 1150 -91 751 415 
Q 353 922 353 1747 
Q 353 2572 751 3078 
Q 1150 3584 1784 3584 
Q 2172 3584 2448 3432 
Q 2725 3281 2906 2969 
z
M 947 1747 
Q 947 1113 1208 752 
Q 1469 391 1925 391 
Q 2381 391 2643 752 
Q 2906 1113 2906 1747 
Q 2906 2381 2643 2742 
Q 2381 3103 1925 3103 
Q 1469 3103 1208 2742 
Q 947 2381 947 1747 
z
" transform="scale(0.015625)"/>
      <path id="DejaVuSans-77" d="M 269 3500 
L 844 3500 
L 1563 769 
L 2278 3500 
L 2956 3500 
L 3675 769 
L 4391 3500 
L 4966 3500 
L 4050 0 
L 3372 0 
L 2619 2869 
L 1863 0 
L 1184 0 
L 269 3500 
z
" transform="scale(0.015625)"/>
      <path id="DejaVuSans-48" d="M 628 4666 
L 1259 4666 
L 1259 2753 
L 3553 2753 
L 3553 4666 
L 4184 4666 
L 4184 0 
L 3553 0 
L 3553 2222 
L 1259 2222 
L 1259 0 
L 628 0 
L 628 4666 
z
" transform="scale(0.015625)"/>
     </defs>
     <use xlink:href="#DejaVuSans-47"/>
     <use xlink:href="#DejaVuSans-6c" transform="translate(77.490234 0)"/>
     <use xlink:href="#DejaVuSans-75" transform="translate(105.273438 0)"/>
     <use xlink:href="#DejaVuSans-63" transform="translate(168.652344 0)"/>
     <use xlink:href="#DejaVuSans-6f" transform="translate(223.632812 0)"/>
     <use xlink:href="#DejaVuSans-73" transform="translate(284.814453 0)"/>
     <use xlink:href="#DejaVuSans-65" transform="translate(336.914062 0)"/>
     <use xlink:href="#DejaVuSans-20" transform="translate(398.4375 0)"/>
     <use xlink:href="#DejaVuSans-43" transform="translate(430.224609 0)"/>
     <use xlink:href="#DejaVuSans-6f" transform="translate(500.048828 0)"/>
     <use xlink:href="#DejaVuSans-6e" transform="translate(561.230469 0)"/>
     <use xlink:href="#DejaVuSans-64" transform="translate(624.609375 0)"/>
     <use xlink:href="#DejaVuSans-69" transform="translate(688.085938 0)"/>
     <use xlink:href="#DejaVuSans-74" transform="translate(715.869141 0)"/>
     <use xlink:href="#DejaVuSans-69" transform="translate(755.078125 0)"/>
     <use xlink:href="#DejaVuSans-6f" transform="translate(782.861328 0)"/>
     <use xlink:href="#DejaVuSans-6e" transform="translate(844.042969 0)"/>
     <use xlink:href="#DejaVuSans-73" transform="translate(907.421875 0)"/>
     <use xlink:href="#DejaVuSans-20" transform="translate(959.521484 0)"/>
     <use xlink:href="#DejaVuSans-28" transform="translate(991.308594 0)"/>
     <use xlink:href="#DejaVuSans-4c" transform="translate(1030.322266 0)"/>
     <use xlink:href="#DejaVuSans-6f" transform="translate(1084.285156 0)"/>
     <use xlink:href="#DejaVuSans-77" transform="translate(1145.466797 0)"/>
     <use xlink:href="#DejaVuSans-65" transform="translate(1227.253906 0)"/>
     <use xlink:href="#DejaVuSans-72" transform="translate(1288.777344 0)"/>
     <use xlink:href="#DejaVuSans-20" transform="translate(1329.890625 0)"/>
     <use xlink:href="#DejaVuSans-48" transform="translate(1361.677734 0)"/>
     <use xlink:href="#DejaVuSans-54" transform="translate(1436.873047 0)"/>
     <use xlink:href="#DejaVuSans-50" transform="translate(1497.957031 0)"/>
     <use xlink:href="#DejaVuSans-41" transform="translate(1551.884766 0)"/>
     <use xlink:href="#DejaVuSans-29" transform="translate(1620.292969 0)"/>
    </g>
   </g>
   <g id="legend_1">
    <g id="patch_7">
     <path d="M 541.669614 168.312187 
L 636.275082 168.312187 
Q 638.075082 168.312187 638.075082 166.512187 
L 638.075082 74.94 
Q 638.075082 73.14 636.275082 73.14 
L 541.669614 73.14 
Q 539.869614 73.14 539.869614 74.94 
L 539.869614 166.512187 
Q 539.869614 168.312187 541.669614 168.312187 
z
" style="fill: #ffffff; opacity: 0.8; stroke: #cccccc; stroke-linejoin: miter"/>
    </g>
    <g id="line2d_34">
     <path d="M 543.469614 80.428594 
L 552.469614 80.428594 
L 561.469614 80.428594 
" style="fill: none; stroke: #0000ff; stroke-opacity: 0.8; stroke-width: 2.5; stroke-linecap: square"/>
    </g>
    <g id="text_17">
     <!-- p43 (5.0 g/L) -->
     <g transform="translate(568.669614 83.578594) scale(0.09 -0.09)">
      <defs>
       <path id="DejaVuSans-70" d="M 1159 525 
L 1159 -1331 
L 581 -1331 
L 581 3500 
L 1159 3500 
L 1159 2969 
Q 1341 3281 1617 3432 
Q 1894 3584 2278 3584 
Q 2916 3584 3314 3078 
Q 3713 2572 3713 1747 
Q 3713 922 3314 415 
Q 2916 -91 2278 -91 
Q 1894 -91 1617 61 
Q 1341 213 1159 525 
z
M 3116 1747 
Q 3116 2381 2855 2742 
Q 2594 3103 2138 3103 
Q 1681 3103 1420 2742 
Q 1159 2381 1159 1747 
Q 1159 1113 1420 752 
Q 1681 391 2138 391 
Q 2594 391 2855 752 
Q 3116 1113 3116 1747 
z
" transform="scale(0.015625)"/>
       <path id="DejaVuSans-34" d="M 2419 4116 
L 825 1625 
L 2419 1625 
L 2419 4116 
z
M 2253 4666 
L 3047 4666 
L 3047 1625 
L 3713 1625 
L 3713 1100 
L 3047 1100 
L 3047 0 
L 2419 0 
L 2419 1100 
L 313 1100 
L 313 1709 
L 2253 4666 
z
" transform="scale(0.015625)"/>
       <path id="DejaVuSans-2e" d="M 684 794 
L 1344 794 
L 1344 0 
L 684 0 
L 684 794 
z
" transform="scale(0.015625)"/>
      </defs>
      <use xlink:href="#DejaVuSans-70"/>
      <use xlink:href="#DejaVuSans-34" transform="translate(63.476562 0)"/>
      <use xlink:href="#DejaVuSans-33" transform="translate(127.099609 0)"/>
      <use xlink:href="#DejaVuSans-20" transform="translate(190.722656 0)"/>
      <use xlink:href="#DejaVuSans-28" transform="translate(222.509766 0)"/>
      <use xlink:href="#DejaVuSans-35" transform="translate(261.523438 0)"/>
      <use xlink:href="#DejaVuSans-2e" transform="translate(325.146484 0)"/>
      <use xlink:href="#DejaVuSans-30" transform="translate(356.933594 0)"/>
      <use xlink:href="#DejaVuSans-20" transform="translate(420.556641 0)"/>
      <use xlink:href="#DejaVuSans-67" transform="translate(452.34375 0)"/>
      <use xlink:href="#DejaVuSans-2f" transform="translate(515.820312 0)"/>
      <use xlink:href="#DejaVuSans-4c" transform="translate(549.511719 0)"/>
      <use xlink:href="#DejaVuSans-29" transform="translate(605.224609 0)"/>
     </g>
    </g>
    <g id="line2d_35">
     <path d="M 543.469614 93.638906 
L 552.469614 93.638906 
L 561.469614 93.638906 
" style="fill: none; stroke: #ffa500; stroke-opacity: 0.8; stroke-width: 2.5; stroke-linecap: square"/>
    </g>
    <g id="text_18">
     <!-- pylb (5.0 g/L) -->
     <g transform="translate(568.669614 96.788906) scale(0.09 -0.09)">
      <defs>
       <path id="DejaVuSans-79" d="M 2059 -325 
Q 1816 -950 1584 -1140 
Q 1353 -1331 966 -1331 
L 506 -1331 
L 506 -850 
L 844 -850 
Q 1081 -850 1212 -737 
Q 1344 -625 1503 -206 
L 1606 56 
L 191 3500 
L 800 3500 
L 1894 763 
L 2988 3500 
L 3597 3500 
L 2059 -325 
z
" transform="scale(0.015625)"/>
       <path id="DejaVuSans-62" d="M 3116 1747 
Q 3116 2381 2855 2742 
Q 2594 3103 2138 3103 
Q 1681 3103 1420 2742 
Q 1159 2381 1159 1747 
Q 1159 1113 1420 752 
Q 1681 391 2138 391 
Q 2594 391 2855 752 
Q 3116 1113 3116 1747 
z
M 1159 2969 
Q 1341 3281 1617 3432 
Q 1894 3584 2278 3584 
Q 2916 3584 3314 3078 
Q 3713 2572 3713 1747 
Q 3713 922 3314 415 
Q 2916 -91 2278 -91 
Q 1894 -91 1617 61 
Q 1341 213 1159 525 
L 1159 0 
L 581 0 
L 581 4863 
L 1159 4863 
L 1159 2969 
z
" transform="scale(0.015625)"/>
      </defs>
      <use xlink:href="#DejaVuSans-70"/>
      <use xlink:href="#DejaVuSans-79" transform="translate(63.476562 0)"/>
      <use xlink:href="#DejaVuSans-6c" transform="translate(122.65625 0)"/>
      <use xlink:href="#DejaVuSans-62" transform="translate(150.439453 0)"/>
      <use xlink:href="#DejaVuSans-20" transform="translate(213.916016 0)"/>
      <use xlink:href="#DejaVuSans-28" transform="translate(245.703125 0)"/>
      <use xlink:href="#DejaVuSans-35" transform="translate(284.716797 0)"/>
      <use xlink:href="#DejaVuSans-2e" transform="translate(348.339844 0)"/>
      <use xlink:href="#DejaVuSans-30" transform="translate(380.126953 0)"/>
      <use xlink:href="#DejaVuSans-20" transform="translate(443.75 0)"/>
      <use xlink:href="#DejaVuSans-67" transform="translate(475.537109 0)"/>
      <use xlink:href="#DejaVuSans-2f" transform="translate(539.013672 0)"/>
      <use xlink:href="#DejaVuSans-4c" transform="translate(572.705078 0)"/>
      <use xlink:href="#DejaVuSans-29" transform="translate(628.417969 0)"/>
     </g>
    </g>
    <g id="line2d_36">
     <path d="M 543.469614 106.849219 
L 552.469614 106.849219 
L 561.469614 106.849219 
" style="fill: none; stroke-dasharray: 9.25,4; stroke-dashoffset: 0; stroke: #0000ff; stroke-opacity: 0.8; stroke-width: 2.5"/>
    </g>
    <g id="text_19">
     <!-- p43 (15.0 g/L) -->
     <g transform="translate(568.669614 109.999219) scale(0.09 -0.09)">
      <use xlink:href="#DejaVuSans-70"/>
      <use xlink:href="#DejaVuSans-34" transform="translate(63.476562 0)"/>
      <use xlink:href="#DejaVuSans-33" transform="translate(127.099609 0)"/>
      <use xlink:href="#DejaVuSans-20" transform="translate(190.722656 0)"/>
      <use xlink:href="#DejaVuSans-28" transform="translate(222.509766 0)"/>
      <use xlink:href="#DejaVuSans-31" transform="translate(261.523438 0)"/>
      <use xlink:href="#DejaVuSans-35" transform="translate(325.146484 0)"/>
      <use xlink:href="#DejaVuSans-2e" transform="translate(388.769531 0)"/>
      <use xlink:href="#DejaVuSans-30" transform="translate(420.556641 0)"/>
      <use xlink:href="#DejaVuSans-20" transform="translate(484.179688 0)"/>
      <use xlink:href="#DejaVuSans-67" transform="translate(515.966797 0)"/>
      <use xlink:href="#DejaVuSans-2f" transform="translate(579.443359 0)"/>
      <use xlink:href="#DejaVuSans-4c" transform="translate(613.134766 0)"/>
      <use xlink:href="#DejaVuSans-29" transform="translate(668.847656 0)"/>
     </g>
    </g>
    <g id="line2d_37">
     <path d="M 543.469614 120.059531 
L 552.469614 120.059531 
L 561.469614 120.059531 
" style="fill: none; stroke-dasharray: 9.25,4; stroke-dashoffset: 0; stroke: #ffa500; stroke-opacity: 0.8; stroke-width: 2.5"/>
    </g>
    <g id="text_20">
     <!-- pylb (15.0 g/L) -->
     <g transform="translate(568.669614 123.209531) scale(0.09 -0.09)">
      <use xlink:href="#DejaVuSans-70"/>
      <use xlink:href="#DejaVuSans-79" transform="translate(63.476562 0)"/>
      <use xlink:href="#DejaVuSans-6c" transform="translate(122.65625 0)"/>
      <use xlink:href="#DejaVuSans-62" transform="translate(150.439453 0)"/>
      <use xlink:href="#DejaVuSans-20" transform="translate(213.916016 0)"/>
      <use xlink:href="#DejaVuSans-28" transform="translate(245.703125 0)"/>
      <use xlink:href="#DejaVuSans-31" transform="translate(284.716797 0)"/>
      <use xlink:href="#DejaVuSans-35" transform="translate(348.339844 0)"/>
      <use xlink:href="#DejaVuSans-2e" transform="translate(411.962891 0)"/>
      <use xlink:href="#DejaVuSans-30" transform="translate(443.75 0)"/>
      <use xlink:href="#DejaVuSans-20" transform="translate(507.373047 0)"/>
      <use xlink:href="#DejaVuSans-67" transform="translate(539.160156 0)"/>
      <use xlink:href="#DejaVuSans-2f" transform="translate(602.636719 0)"/>
      <use xlink:href="#DejaVuSans-4c" transform="translate(636.328125 0)"/>
      <use xlink:href="#DejaVuSans-29" transform="translate(692.041016 0)"/>
     </g>
    </g>
    <g id="line2d_38">
     <path d="M 543.469614 133.269844 
L 552.469614 133.269844 
L 561.469614 133.269844 
" style="fill: none; stroke-dasharray: 16,4,2.5,4; stroke-dashoffset: 0; stroke: #0000ff; stroke-opacity: 0.8; stroke-width: 2.5"/>
    </g>
    <g id="text_21">
     <!-- p43 (25.0 g/L) -->
     <g transform="translate(568.669614 136.419844) scale(0.09 -0.09)">
      <use xlink:href="#DejaVuSans-70"/>
      <use xlink:href="#DejaVuSans-34" transform="translate(63.476562 0)"/>
      <use xlink:href="#DejaVuSans-33" transform="translate(127.099609 0)"/>
      <use xlink:href="#DejaVuSans-20" transform="translate(190.722656 0)"/>
      <use xlink:href="#DejaVuSans-28" transform="translate(222.509766 0)"/>
      <use xlink:href="#DejaVuSans-32" transform="translate(261.523438 0)"/>
      <use xlink:href="#DejaVuSans-35" transform="translate(325.146484 0)"/>
      <use xlink:href="#DejaVuSans-2e" transform="translate(388.769531 0)"/>
      <use xlink:href="#DejaVuSans-30" transform="translate(420.556641 0)"/>
      <use xlink:href="#DejaVuSans-20" transform="translate(484.179688 0)"/>
      <use xlink:href="#DejaVuSans-67" transform="translate(515.966797 0)"/>
      <use xlink:href="#DejaVuSans-2f" transform="translate(579.443359 0)"/>
      <use xlink:href="#DejaVuSans-4c" transform="translate(613.134766 0)"/>
      <use xlink:href="#DejaVuSans-29" transform="translate(668.847656 0)"/>
     </g>
    </g>
    <g id="line2d_39">
     <path d="M 543.469614 146.480156 
L 552.469614 146.480156 
L 561.469614 146.480156 
" style="fill: none; stroke-dasharray: 16,4,2.5,4; stroke-dashoffset: 0; stroke: #ffa500; stroke-opacity: 0.8; stroke-width: 2.5"/>
    </g>
    <g id="text_22">
     <!-- pylb (25.0 g/L) -->
     <g transform="translate(568.669614 149.630156) scale(0.09 -0.09)">
      <use xlink:href="#DejaVuSans-70"/>
      <use xlink:href="#DejaVuSans-79" transform="translate(63.476562 0)"/>
      <use xlink:href="#DejaVuSans-6c" transform="translate(122.65625 0)"/>
      <use xlink:href="#DejaVuSans-62" transform="translate(150.439453 0)"/>
      <use xlink:href="#DejaVuSans-20" transform="translate(213.916016 0)"/>
      <use xlink:href="#DejaVuSans-28" transform="translate(245.703125 0)"/>
      <use xlink:href="#DejaVuSans-32" transform="translate(284.716797 0)"/>
      <use xlink:href="#DejaVuSans-35" transform="translate(348.339844 0)"/>
      <use xlink:href="#DejaVuSans-2e" transform="translate(411.962891 0)"/>
      <use xlink:href="#DejaVuSans-30" transform="translate(443.75 0)"/>
      <use xlink:href="#DejaVuSans-20" transform="translate(507.373047 0)"/>
      <use xlink:href="#DejaVuSans-67" transform="translate(539.160156 0)"/>
      <use xlink:href="#DejaVuSans-2f" transform="translate(602.636719 0)"/>
      <use xlink:href="#DejaVuSans-4c" transform="translate(636.328125 0)"/>
      <use xlink:href="#DejaVuSans-29" transform="translate(692.041016 0)"/>
     </g>
    </g>
    <g id="line2d_40">
     <path d="M 543.469614 159.690469 
L 552.469614 159.690469 
L 561.469614 159.690469 
" style="fill: none; stroke-dasharray: 2,3.3; stroke-dashoffset: 0; stroke: #ff0000; stroke-width: 2"/>
    </g>
    <g id="text_23">
     <!-- Target (30 g/L) -->
     <g transform="translate(568.669614 162.840469) scale(0.09 -0.09)">
      <use xlink:href="#DejaVuSans-54"/>
      <use xlink:href="#DejaVuSans-61" transform="translate(44.583984 0)"/>
      <use xlink:href="#DejaVuSans-72" transform="translate(105.863281 0)"/>
      <use xlink:href="#DejaVuSans-67" transform="translate(145.226562 0)"/>
      <use xlink:href="#DejaVuSans-65" transform="translate(208.703125 0)"/>
      <use xlink:href="#DejaVuSans-74" transform="translate(270.226562 0)"/>
      <use xlink:href="#DejaVuSans-20" transform="translate(309.435547 0)"/>
      <use xlink:href="#DejaVuSans-28" transform="translate(341.222656 0)"/>
      <use xlink:href="#DejaVuSans-33" transform="translate(380.236328 0)"/>
      <use xlink:href="#DejaVuSans-30" transform="translate(443.859375 0)"/>
      <use xlink:href="#DejaVuSans-20" transform="translate(507.482422 0)"/>
      <use xlink:href="#DejaVuSans-67" transform="translate(539.269531 0)"/>
      <use xlink:href="#DejaVuSans-2f" transform="translate(602.746094 0)"/>
      <use xlink:href="#DejaVuSans-4c" transform="translate(636.4375 0)"/>
      <use xlink:href="#DejaVuSans-29" transform="translate(692.150391 0)"/>
     </g>
    </g>
   </g>
  </g>
  <g id="axes_2">
   <g id="patch_8">
    <path d="M 685.13875 403 
L 1154.501477 403 
L 1154.501477 68.64 
L 685.13875 68.64 
z
" style="fill: #ffffff"/>
   </g>
   <g id="line2d_41">
    <path d="M 685.13875 113.681493 
L 1154.501477 113.681493 
" clip-path="url(#pc4329bc912)" style="fill: none; stroke-dasharray: 2,3.3; stroke-dashoffset: 0; stroke: #ff0000; stroke-width: 2"/>
   </g>
   <g id="matplotlib.axis_3">
    <g id="xtick_7">
     <g id="line2d_42">
      <path d="M 706.473419 403 
L 706.473419 68.64 
" clip-path="url(#pc4329bc912)" style="fill: none; stroke: #b0b0b0; stroke-opacity: 0.3; stroke-width: 0.8; stroke-linecap: square"/>
     </g>
     <g id="line2d_43">
      <g>
       <use xlink:href="#m382f9b8f11" x="706.473419" y="403" style="stroke: #000000; stroke-width: 0.8"/>
      </g>
     </g>
     <g id="text_24">
      <!-- 0 -->
      <g transform="translate(703.292169 417.598437) scale(0.1 -0.1)">
       <use xlink:href="#DejaVuSans-30"/>
      </g>
     </g>
    </g>
    <g id="xtick_8">
     <g id="line2d_44">
      <path d="M 795.367875 403 
L 795.367875 68.64 
" clip-path="url(#pc4329bc912)" style="fill: none; stroke: #b0b0b0; stroke-opacity: 0.3; stroke-width: 0.8; stroke-linecap: square"/>
     </g>
     <g id="line2d_45">
      <g>
       <use xlink:href="#m382f9b8f11" x="795.367875" y="403" style="stroke: #000000; stroke-width: 0.8"/>
      </g>
     </g>
     <g id="text_25">
      <!-- 5 -->
      <g transform="translate(792.186625 417.598437) scale(0.1 -0.1)">
       <use xlink:href="#DejaVuSans-35"/>
      </g>
     </g>
    </g>
    <g id="xtick_9">
     <g id="line2d_46">
      <path d="M 884.262331 403 
L 884.262331 68.64 
" clip-path="url(#pc4329bc912)" style="fill: none; stroke: #b0b0b0; stroke-opacity: 0.3; stroke-width: 0.8; stroke-linecap: square"/>
     </g>
     <g id="line2d_47">
      <g>
       <use xlink:href="#m382f9b8f11" x="884.262331" y="403" style="stroke: #000000; stroke-width: 0.8"/>
      </g>
     </g>
     <g id="text_26">
      <!-- 10 -->
      <g transform="translate(877.899831 417.598437) scale(0.1 -0.1)">
       <use xlink:href="#DejaVuSans-31"/>
       <use xlink:href="#DejaVuSans-30" transform="translate(63.623047 0)"/>
      </g>
     </g>
    </g>
    <g id="xtick_10">
     <g id="line2d_48">
      <path d="M 973.156787 403 
L 973.156787 68.64 
" clip-path="url(#pc4329bc912)" style="fill: none; stroke: #b0b0b0; stroke-opacity: 0.3; stroke-width: 0.8; stroke-linecap: square"/>
     </g>
     <g id="line2d_49">
      <g>
       <use xlink:href="#m382f9b8f11" x="973.156787" y="403" style="stroke: #000000; stroke-width: 0.8"/>
      </g>
     </g>
     <g id="text_27">
      <!-- 15 -->
      <g transform="translate(966.794287 417.598437) scale(0.1 -0.1)">
       <use xlink:href="#DejaVuSans-31"/>
       <use xlink:href="#DejaVuSans-35" transform="translate(63.623047 0)"/>
      </g>
     </g>
    </g>
    <g id="xtick_11">
     <g id="line2d_50">
      <path d="M 1062.051243 403 
L 1062.051243 68.64 
" clip-path="url(#pc4329bc912)" style="fill: none; stroke: #b0b0b0; stroke-opacity: 0.3; stroke-width: 0.8; stroke-linecap: square"/>
     </g>
     <g id="line2d_51">
      <g>
       <use xlink:href="#m382f9b8f11" x="1062.051243" y="403" style="stroke: #000000; stroke-width: 0.8"/>
      </g>
     </g>
     <g id="text_28">
      <!-- 20 -->
      <g transform="translate(1055.688743 417.598437) scale(0.1 -0.1)">
       <use xlink:href="#DejaVuSans-32"/>
       <use xlink:href="#DejaVuSans-30" transform="translate(63.623047 0)"/>
      </g>
     </g>
    </g>
    <g id="xtick_12">
     <g id="line2d_52">
      <path d="M 1150.945699 403 
L 1150.945699 68.64 
" clip-path="url(#pc4329bc912)" style="fill: none; stroke: #b0b0b0; stroke-opacity: 0.3; stroke-width: 0.8; stroke-linecap: square"/>
     </g>
     <g id="line2d_53">
      <g>
       <use xlink:href="#m382f9b8f11" x="1150.945699" y="403" style="stroke: #000000; stroke-width: 0.8"/>
      </g>
     </g>
     <g id="text_29">
      <!-- 25 -->
      <g transform="translate(1144.583199 417.598437) scale(0.1 -0.1)">
       <use xlink:href="#DejaVuSans-32"/>
       <use xlink:href="#DejaVuSans-35" transform="translate(63.623047 0)"/>
      </g>
     </g>
    </g>
    <g id="text_30">
     <!-- Time (hours) -->
     <g transform="translate(881.682614 432.79625) scale(0.12 -0.12)">
      <use xlink:href="#DejaVuSans-54"/>
      <use xlink:href="#DejaVuSans-69" transform="translate(57.958984 0)"/>
      <use xlink:href="#DejaVuSans-6d" transform="translate(85.742188 0)"/>
      <use xlink:href="#DejaVuSans-65" transform="translate(183.154297 0)"/>
      <use xlink:href="#DejaVuSans-20" transform="translate(244.677734 0)"/>
      <use xlink:href="#DejaVuSans-28" transform="translate(276.464844 0)"/>
      <use xlink:href="#DejaVuSans-68" transform="translate(315.478516 0)"/>
      <use xlink:href="#DejaVuSans-6f" transform="translate(378.857422 0)"/>
      <use xlink:href="#DejaVuSans-75" transform="translate(440.039062 0)"/>
      <use xlink:href="#DejaVuSans-72" transform="translate(503.417969 0)"/>
      <use xlink:href="#DejaVuSans-73" transform="translate(544.53125 0)"/>
      <use xlink:href="#DejaVuSans-29" transform="translate(596.630859 0)"/>
     </g>
    </g>
   </g>
   <g id="matplotlib.axis_4">
    <g id="ytick_8">
     <g id="line2d_54">
      <path d="M 685.13875 387.801818 
L 1154.501477 387.801818 
" clip-path="url(#pc4329bc912)" style="fill: none; stroke: #b0b0b0; stroke-opacity: 0.3; stroke-width: 0.8; stroke-linecap: square"/>
     </g>
     <g id="line2d_55">
      <g>
       <use xlink:href="#m9708268b6f" x="685.13875" y="387.801818" style="stroke: #000000; stroke-width: 0.8"/>
      </g>
     </g>
     <g id="text_31">
      <!-- 0 -->
      <g transform="translate(671.77625 391.601037) scale(0.1 -0.1)">
       <use xlink:href="#DejaVuSans-30"/>
      </g>
     </g>
    </g>
    <g id="ytick_9">
     <g id="line2d_56">
      <path d="M 685.13875 342.115097 
L 1154.501477 342.115097 
" clip-path="url(#pc4329bc912)" style="fill: none; stroke: #b0b0b0; stroke-opacity: 0.3; stroke-width: 0.8; stroke-linecap: square"/>
     </g>
     <g id="line2d_57">
      <g>
       <use xlink:href="#m9708268b6f" x="685.13875" y="342.115097" style="stroke: #000000; stroke-width: 0.8"/>
      </g>
     </g>
     <g id="text_32">
      <!-- 5 -->
      <g transform="translate(671.77625 345.914316) scale(0.1 -0.1)">
       <use xlink:href="#DejaVuSans-35"/>
      </g>
     </g>
    </g>
    <g id="ytick_10">
     <g id="line2d_58">
      <path d="M 685.13875 296.428376 
L 1154.501477 296.428376 
" clip-path="url(#pc4329bc912)" style="fill: none; stroke: #b0b0b0; stroke-opacity: 0.3; stroke-width: 0.8; stroke-linecap: square"/>
     </g>
     <g id="line2d_59">
      <g>
       <use xlink:href="#m9708268b6f" x="685.13875" y="296.428376" style="stroke: #000000; stroke-width: 0.8"/>
      </g>
     </g>
     <g id="text_33">
      <!-- 10 -->
      <g transform="translate(665.41375 300.227595) scale(0.1 -0.1)">
       <use xlink:href="#DejaVuSans-31"/>
       <use xlink:href="#DejaVuSans-30" transform="translate(63.623047 0)"/>
      </g>
     </g>
    </g>
    <g id="ytick_11">
     <g id="line2d_60">
      <path d="M 685.13875 250.741655 
L 1154.501477 250.741655 
" clip-path="url(#pc4329bc912)" style="fill: none; stroke: #b0b0b0; stroke-opacity: 0.3; stroke-width: 0.8; stroke-linecap: square"/>
     </g>
     <g id="line2d_61">
      <g>
       <use xlink:href="#m9708268b6f" x="685.13875" y="250.741655" style="stroke: #000000; stroke-width: 0.8"/>
      </g>
     </g>
     <g id="text_34">
      <!-- 15 -->
      <g transform="translate(665.41375 254.540874) scale(0.1 -0.1)">
       <use xlink:href="#DejaVuSans-31"/>
       <use xlink:href="#DejaVuSans-35" transform="translate(63.623047 0)"/>
      </g>
     </g>
    </g>
    <g id="ytick_12">
     <g id="line2d_62">
      <path d="M 685.13875 205.054934 
L 1154.501477 205.054934 
" clip-path="url(#pc4329bc912)" style="fill: none; stroke: #b0b0b0; stroke-opacity: 0.3; stroke-width: 0.8; stroke-linecap: square"/>
     </g>
     <g id="line2d_63">
      <g>
       <use xlink:href="#m9708268b6f" x="685.13875" y="205.054934" style="stroke: #000000; stroke-width: 0.8"/>
      </g>
     </g>
     <g id="text_35">
      <!-- 20 -->
      <g transform="translate(665.41375 208.854153) scale(0.1 -0.1)">
       <use xlink:href="#DejaVuSans-32"/>
       <use xlink:href="#DejaVuSans-30" transform="translate(63.623047 0)"/>
      </g>
     </g>
    </g>
    <g id="ytick_13">
     <g id="line2d_64">
      <path d="M 685.13875 159.368213 
L 1154.501477 159.368213 
" clip-path="url(#pc4329bc912)" style="fill: none; stroke: #b0b0b0; stroke-opacity: 0.3; stroke-width: 0.8; stroke-linecap: square"/>
     </g>
     <g id="line2d_65">
      <g>
       <use xlink:href="#m9708268b6f" x="685.13875" y="159.368213" style="stroke: #000000; stroke-width: 0.8"/>
      </g>
     </g>
     <g id="text_36">
      <!-- 25 -->
      <g transform="translate(665.41375 163.167432) scale(0.1 -0.1)">
       <use xlink:href="#DejaVuSans-32"/>
       <use xlink:href="#DejaVuSans-35" transform="translate(63.623047 0)"/>
      </g>
     </g>
    </g>
    <g id="ytick_14">
     <g id="line2d_66">
      <path d="M 685.13875 113.681493 
L 1154.501477 113.681493 
" clip-path="url(#pc4329bc912)" style="fill: none; stroke: #b0b0b0; stroke-opacity: 0.3; stroke-width: 0.8; stroke-linecap: square"/>
     </g>
     <g id="line2d_67">
      <g>
       <use xlink:href="#m9708268b6f" x="685.13875" y="113.681493" style="stroke: #000000; stroke-width: 0.8"/>
      </g>
     </g>
     <g id="text_37">
      <!-- 30 -->
      <g transform="translate(665.41375 117.480711) scale(0.1 -0.1)">
       <use xlink:href="#DejaVuSans-33"/>
       <use xlink:href="#DejaVuSans-30" transform="translate(63.623047 0)"/>
      </g>
     </g>
    </g>
    <g id="text_38">
     <!-- DPA Concentration (g/L) -->
     <g transform="translate(658.918125 307.894062) rotate(-90) scale(0.12 -0.12)">
      <use xlink:href="#DejaVuSans-44"/>
      <use xlink:href="#DejaVuSans-50" transform="translate(77.001953 0)"/>
      <use xlink:href="#DejaVuSans-41" transform="translate(130.929688 0)"/>
      <use xlink:href="#DejaVuSans-20" transform="translate(199.337891 0)"/>
      <use xlink:href="#DejaVuSans-43" transform="translate(231.125 0)"/>
      <use xlink:href="#DejaVuSans-6f" transform="translate(300.949219 0)"/>
      <use xlink:href="#DejaVuSans-6e" transform="translate(362.130859 0)"/>
      <use xlink:href="#DejaVuSans-63" transform="translate(425.509766 0)"/>
      <use xlink:href="#DejaVuSans-65" transform="translate(480.490234 0)"/>
      <use xlink:href="#DejaVuSans-6e" transform="translate(542.013672 0)"/>
      <use xlink:href="#DejaVuSans-74" transform="translate(605.392578 0)"/>
      <use xlink:href="#DejaVuSans-72" transform="translate(644.601562 0)"/>
      <use xlink:href="#DejaVuSans-61" transform="translate(685.714844 0)"/>
      <use xlink:href="#DejaVuSans-74" transform="translate(746.994141 0)"/>
      <use xlink:href="#DejaVuSans-69" transform="translate(786.203125 0)"/>
      <use xlink:href="#DejaVuSans-6f" transform="translate(813.986328 0)"/>
      <use xlink:href="#DejaVuSans-6e" transform="translate(875.167969 0)"/>
      <use xlink:href="#DejaVuSans-20" transform="translate(938.546875 0)"/>
      <use xlink:href="#DejaVuSans-28" transform="translate(970.333984 0)"/>
      <use xlink:href="#DejaVuSans-67" transform="translate(1009.347656 0)"/>
      <use xlink:href="#DejaVuSans-2f" transform="translate(1072.824219 0)"/>
      <use xlink:href="#DejaVuSans-4c" transform="translate(1106.515625 0)"/>
      <use xlink:href="#DejaVuSans-29" transform="translate(1162.228516 0)"/>
     </g>
    </g>
   </g>
   <g id="line2d_68">
    <path d="M 706.473419 387.801818 
L 811.545065 387.691172 
L 926.013361 387.342057 
L 1054.576634 386.723018 
L 1133.166808 386.248773 
L 1133.166808 386.248773 
" clip-path="url(#pc4329bc912)" style="fill: none; stroke: #0000ff; stroke-opacity: 0.8; stroke-width: 2.5; stroke-linecap: square"/>
   </g>
   <g id="line2d_69">
    <path d="M 706.473419 387.801818 
L 743.632904 387.691813 
L 779.938147 387.357211 
L 817.951872 386.782289 
L 857.246959 385.963687 
L 898.250528 384.884373 
L 940.962579 383.534385 
L 985.383112 381.9056 
L 1031.939247 379.972969 
L 1080.630985 377.726143 
L 1131.458326 375.157049 
L 1133.166808 375.066977 
L 1133.166808 375.066977 
" clip-path="url(#pc4329bc912)" style="fill: none; stroke: #ffa500; stroke-opacity: 0.8; stroke-width: 2.5; stroke-linecap: square"/>
   </g>
   <g id="line2d_70">
    <path d="M 706.473419 387.801818 
L 742.351542 387.692228 
L 777.375424 387.358001 
L 813.680667 386.789648 
L 851.267272 385.979556 
L 890.562359 384.908608 
L 931.138807 383.580052 
L 973.423738 381.973176 
L 1017.84427 380.060095 
L 1063.973285 377.849547 
L 1112.237903 375.313493 
L 1133.166808 374.147992 
L 1133.166808 374.147992 
" clip-path="url(#pc4329bc912)" style="fill: none; stroke-dasharray: 9.25,4; stroke-dashoffset: 0; stroke: #0000ff; stroke-opacity: 0.8; stroke-width: 2.5"/>
   </g>
   <g id="line2d_71">
    <path d="M 706.473419 387.801818 
L 720.141276 387.69216 
L 732.10065 387.36154 
L 744.060024 386.811315 
L 756.446519 386.015316 
L 768.833014 384.994657 
L 781.219508 383.754702 
L 794.033124 382.246787 
L 806.846739 380.515442 
L 820.087475 378.497515 
L 833.328211 376.252833 
L 846.568946 373.787174 
L 860.236803 371.016163 
L 873.904659 368.021722 
L 887.999636 364.70591 
L 902.094613 361.165006 
L 916.61671 357.287821 
L 931.565928 353.060628 
L 946.515145 348.600853 
L 961.891484 343.778048 
L 977.267822 338.723309 
L 993.071281 333.293677 
L 1009.30186 327.477386 
L 1025.53244 321.425492 
L 1042.190139 314.97705 
L 1059.27496 308.121549 
L 1076.786901 300.848953 
L 1094.298842 293.335901 
L 1112.237903 285.398713 
L 1130.604085 277.028658 
L 1133.166808 275.841616 
L 1133.166808 275.841616 
" clip-path="url(#pc4329bc912)" style="fill: none; stroke-dasharray: 9.25,4; stroke-dashoffset: 0; stroke: #ffa500; stroke-opacity: 0.8; stroke-width: 2.5"/>
   </g>
   <g id="line2d_72">
    <path d="M 706.473419 387.801818 
L 728.683686 387.694818 
L 749.612591 387.365046 
L 770.968616 386.806717 
L 792.751762 386.015791 
L 814.962029 384.988708 
L 838.026536 383.696408 
L 861.518164 382.154109 
L 885.436913 380.359854 
L 909.782782 378.312107 
L 934.982892 375.96817 
L 960.610122 373.361622 
L 987.091594 370.443639 
L 1014.427306 367.20419 
L 1042.190139 363.689941 
L 1070.807214 359.843608 
L 1100.278529 355.657712 
L 1130.604085 351.125711 
L 1133.166808 350.732695 
L 1133.166808 350.732695 
" clip-path="url(#pc4329bc912)" style="fill: none; stroke-dasharray: 16,4,2.5,4; stroke-dashoffset: 0; stroke: #0000ff; stroke-opacity: 0.8; stroke-width: 2.5"/>
   </g>
   <g id="line2d_73">
    <path d="M 706.473419 387.801818 
L 715.44295 387.690805 
L 722.703999 387.362637 
L 729.965047 386.810908 
L 737.226096 386.03849 
L 744.487145 385.048472 
L 751.748193 383.843915 
L 759.436363 382.338018 
L 767.124532 380.598515 
L 774.812701 378.628881 
L 782.50087 376.432541 
L 790.189039 374.012867 
L 798.304329 371.220149 
L 806.419619 368.186144 
L 814.534908 364.914641 
L 822.650198 361.409368 
L 831.192608 357.471092 
L 839.735018 353.28207 
L 848.277428 348.846443 
L 856.819839 344.168283 
L 865.789369 338.999572 
L 874.7589 333.572445 
L 883.728431 327.891381 
L 893.125082 321.672224 
L 902.521733 315.184175 
L 911.918384 308.432114 
L 921.742156 301.096061 
L 931.565928 293.482065 
L 941.81682 285.246397 
L 952.067712 276.719711 
L 962.318604 267.907764 
L 972.996617 258.431402 
L 983.67463 248.657889 
L 994.779763 238.1848 
L 1005.884896 227.403678 
L 1017.41715 215.888937 
L 1028.949404 204.056356 
L 1040.908778 191.45737 
L 1052.868152 178.531868 
L 1065.254647 164.808551 
L 1077.641142 150.751217 
L 1090.454757 135.866136 
L 1103.268372 120.640745 
L 1116.509108 104.559243 
L 1129.749844 88.132362 
L 1133.166808 83.838182 
L 1133.166808 83.838182 
" clip-path="url(#pc4329bc912)" style="fill: none; stroke-dasharray: 16,4,2.5,4; stroke-dashoffset: 0; stroke: #ffa500; stroke-opacity: 0.8; stroke-width: 2.5"/>
   </g>
   <g id="patch_9">
    <path d="M 685.13875 403 
L 685.13875 68.64 
" style="fill: none; stroke: #000000; stroke-width: 0.8; stroke-linejoin: miter; stroke-linecap: square"/>
   </g>
   <g id="patch_10">
    <path d="M 1154.501477 403 
L 1154.501477 68.64 
" style="fill: none; stroke: #000000; stroke-width: 0.8; stroke-linejoin: miter; stroke-linecap: square"/>
   </g>
   <g id="patch_11">
    <path d="M 685.13875 403 
L 1154.501477 403 
" style="fill: none; stroke: #000000; stroke-width: 0.8; stroke-linejoin: miter; stroke-linecap: square"/>
   </g>
   <g id="patch_12">
    <path d="M 685.13875 68.64 
L 1154.501477 68.64 
" style="fill: none; stroke: #000000; stroke-width: 0.8; stroke-linejoin: miter; stroke-linecap: square"/>
   </g>
   <g id="text_39">
    <!-- Glutamate Conditions (Higher HTPA) -->
    <g transform="translate(792.258239 62.64) scale(0.14 -0.14)">
     <use xlink:href="#DejaVuSans-47"/>
     <use xlink:href="#DejaVuSans-6c" transform="translate(77.490234 0)"/>
     <use xlink:href="#DejaVuSans-75" transform="translate(105.273438 0)"/>
     <use xlink:href="#DejaVuSans-74" transform="translate(168.652344 0)"/>
     <use xlink:href="#DejaVuSans-61" transform="translate(207.861328 0)"/>
     <use xlink:href="#DejaVuSans-6d" transform="translate(269.140625 0)"/>
     <use xlink:href="#DejaVuSans-61" transform="translate(366.552734 0)"/>
     <use xlink:href="#DejaVuSans-74" transform="translate(427.832031 0)"/>
     <use xlink:href="#DejaVuSans-65" transform="translate(467.041016 0)"/>
     <use xlink:href="#DejaVuSans-20" transform="translate(528.564453 0)"/>
     <use xlink:href="#DejaVuSans-43" transform="translate(560.351562 0)"/>
     <use xlink:href="#DejaVuSans-6f" transform="translate(630.175781 0)"/>
     <use xlink:href="#DejaVuSans-6e" transform="translate(691.357422 0)"/>
     <use xlink:href="#DejaVuSans-64" transform="translate(754.736328 0)"/>
     <use xlink:href="#DejaVuSans-69" transform="translate(818.212891 0)"/>
     <use xlink:href="#DejaVuSans-74" transform="translate(845.996094 0)"/>
     <use xlink:href="#DejaVuSans-69" transform="translate(885.205078 0)"/>
     <use xlink:href="#DejaVuSans-6f" transform="translate(912.988281 0)"/>
     <use xlink:href="#DejaVuSans-6e" transform="translate(974.169922 0)"/>
     <use xlink:href="#DejaVuSans-73" transform="translate(1037.548828 0)"/>
     <use xlink:href="#DejaVuSans-20" transform="translate(1089.648438 0)"/>
     <use xlink:href="#DejaVuSans-28" transform="translate(1121.435547 0)"/>
     <use xlink:href="#DejaVuSans-48" transform="translate(1160.449219 0)"/>
     <use xlink:href="#DejaVuSans-69" transform="translate(1235.644531 0)"/>
     <use xlink:href="#DejaVuSans-67" transform="translate(1263.427734 0)"/>
     <use xlink:href="#DejaVuSans-68" transform="translate(1326.904297 0)"/>
     <use xlink:href="#DejaVuSans-65" transform="translate(1390.283203 0)"/>
     <use xlink:href="#DejaVuSans-72" transform="translate(1451.806641 0)"/>
     <use xlink:href="#DejaVuSans-20" transform="translate(1492.919922 0)"/>
     <use xlink:href="#DejaVuSans-48" transform="translate(1524.707031 0)"/>
     <use xlink:href="#DejaVuSans-54" transform="translate(1599.902344 0)"/>
     <use xlink:href="#DejaVuSans-50" transform="translate(1660.986328 0)"/>
     <use xlink:href="#DejaVuSans-41" transform="translate(1714.914062 0)"/>
     <use xlink:href="#DejaVuSans-29" transform="translate(1783.322266 0)"/>
    </g>
   </g>
   <g id="legend_2">
    <g id="patch_13">
     <path d="M 1184.269614 168.312187 
L 1278.875082 168.312187 
Q 1280.675082 168.312187 1280.675082 166.512187 
L 1280.675082 74.94 
Q 1280.675082 73.14 1278.875082 73.14 
L 1184.269614 73.14 
Q 1182.469614 73.14 1182.469614 74.94 
L 1182.469614 166.512187 
Q 1182.469614 168.312187 1184.269614 168.312187 
z
" style="fill: #ffffff; opacity: 0.8; stroke: #cccccc; stroke-linejoin: miter"/>
    </g>
    <g id="line2d_74">
     <path d="M 1186.069614 80.428594 
L 1195.069614 80.428594 
L 1204.069614 80.428594 
" style="fill: none; stroke: #0000ff; stroke-opacity: 0.8; stroke-width: 2.5; stroke-linecap: square"/>
    </g>
    <g id="text_40">
     <!-- p43 (5.0 g/L) -->
     <g transform="translate(1211.269614 83.578594) scale(0.09 -0.09)">
      <use xlink:href="#DejaVuSans-70"/>
      <use xlink:href="#DejaVuSans-34" transform="translate(63.476562 0)"/>
      <use xlink:href="#DejaVuSans-33" transform="translate(127.099609 0)"/>
      <use xlink:href="#DejaVuSans-20" transform="translate(190.722656 0)"/>
      <use xlink:href="#DejaVuSans-28" transform="translate(222.509766 0)"/>
      <use xlink:href="#DejaVuSans-35" transform="translate(261.523438 0)"/>
      <use xlink:href="#DejaVuSans-2e" transform="translate(325.146484 0)"/>
      <use xlink:href="#DejaVuSans-30" transform="translate(356.933594 0)"/>
      <use xlink:href="#DejaVuSans-20" transform="translate(420.556641 0)"/>
      <use xlink:href="#DejaVuSans-67" transform="translate(452.34375 0)"/>
      <use xlink:href="#DejaVuSans-2f" transform="translate(515.820312 0)"/>
      <use xlink:href="#DejaVuSans-4c" transform="translate(549.511719 0)"/>
      <use xlink:href="#DejaVuSans-29" transform="translate(605.224609 0)"/>
     </g>
    </g>
    <g id="line2d_75">
     <path d="M 1186.069614 93.638906 
L 1195.069614 93.638906 
L 1204.069614 93.638906 
" style="fill: none; stroke: #ffa500; stroke-opacity: 0.8; stroke-width: 2.5; stroke-linecap: square"/>
    </g>
    <g id="text_41">
     <!-- pylb (5.0 g/L) -->
     <g transform="translate(1211.269614 96.788906) scale(0.09 -0.09)">
      <use xlink:href="#DejaVuSans-70"/>
      <use xlink:href="#DejaVuSans-79" transform="translate(63.476562 0)"/>
      <use xlink:href="#DejaVuSans-6c" transform="translate(122.65625 0)"/>
      <use xlink:href="#DejaVuSans-62" transform="translate(150.439453 0)"/>
      <use xlink:href="#DejaVuSans-20" transform="translate(213.916016 0)"/>
      <use xlink:href="#DejaVuSans-28" transform="translate(245.703125 0)"/>
      <use xlink:href="#DejaVuSans-35" transform="translate(284.716797 0)"/>
      <use xlink:href="#DejaVuSans-2e" transform="translate(348.339844 0)"/>
      <use xlink:href="#DejaVuSans-30" transform="translate(380.126953 0)"/>
      <use xlink:href="#DejaVuSans-20" transform="translate(443.75 0)"/>
      <use xlink:href="#DejaVuSans-67" transform="translate(475.537109 0)"/>
      <use xlink:href="#DejaVuSans-2f" transform="translate(539.013672 0)"/>
      <use xlink:href="#DejaVuSans-4c" transform="translate(572.705078 0)"/>
      <use xlink:href="#DejaVuSans-29" transform="translate(628.417969 0)"/>
     </g>
    </g>
    <g id="line2d_76">
     <path d="M 1186.069614 106.849219 
L 1195.069614 106.849219 
L 1204.069614 106.849219 
" style="fill: none; stroke-dasharray: 9.25,4; stroke-dashoffset: 0; stroke: #0000ff; stroke-opacity: 0.8; stroke-width: 2.5"/>
    </g>
    <g id="text_42">
     <!-- p43 (15.0 g/L) -->
     <g transform="translate(1211.269614 109.999219) scale(0.09 -0.09)">
      <use xlink:href="#DejaVuSans-70"/>
      <use xlink:href="#DejaVuSans-34" transform="translate(63.476562 0)"/>
      <use xlink:href="#DejaVuSans-33" transform="translate(127.099609 0)"/>
      <use xlink:href="#DejaVuSans-20" transform="translate(190.722656 0)"/>
      <use xlink:href="#DejaVuSans-28" transform="translate(222.509766 0)"/>
      <use xlink:href="#DejaVuSans-31" transform="translate(261.523438 0)"/>
      <use xlink:href="#DejaVuSans-35" transform="translate(325.146484 0)"/>
      <use xlink:href="#DejaVuSans-2e" transform="translate(388.769531 0)"/>
      <use xlink:href="#DejaVuSans-30" transform="translate(420.556641 0)"/>
      <use xlink:href="#DejaVuSans-20" transform="translate(484.179688 0)"/>
      <use xlink:href="#DejaVuSans-67" transform="translate(515.966797 0)"/>
      <use xlink:href="#DejaVuSans-2f" transform="translate(579.443359 0)"/>
      <use xlink:href="#DejaVuSans-4c" transform="translate(613.134766 0)"/>
      <use xlink:href="#DejaVuSans-29" transform="translate(668.847656 0)"/>
     </g>
    </g>
    <g id="line2d_77">
     <path d="M 1186.069614 120.059531 
L 1195.069614 120.059531 
L 1204.069614 120.059531 
" style="fill: none; stroke-dasharray: 9.25,4; stroke-dashoffset: 0; stroke: #ffa500; stroke-opacity: 0.8; stroke-width: 2.5"/>
    </g>
    <g id="text_43">
     <!-- pylb (15.0 g/L) -->
     <g transform="translate(1211.269614 123.209531) scale(0.09 -0.09)">
      <use xlink:href="#DejaVuSans-70"/>
      <use xlink:href="#DejaVuSans-79" transform="translate(63.476562 0)"/>
      <use xlink:href="#DejaVuSans-6c" transform="translate(122.65625 0)"/>
      <use xlink:href="#DejaVuSans-62" transform="translate(150.439453 0)"/>
      <use xlink:href="#DejaVuSans-20" transform="translate(213.916016 0)"/>
      <use xlink:href="#DejaVuSans-28" transform="translate(245.703125 0)"/>
      <use xlink:href="#DejaVuSans-31" transform="translate(284.716797 0)"/>
      <use xlink:href="#DejaVuSans-35" transform="translate(348.339844 0)"/>
      <use xlink:href="#DejaVuSans-2e" transform="translate(411.962891 0)"/>
      <use xlink:href="#DejaVuSans-30" transform="translate(443.75 0)"/>
      <use xlink:href="#DejaVuSans-20" transform="translate(507.373047 0)"/>
      <use xlink:href="#DejaVuSans-67" transform="translate(539.160156 0)"/>
      <use xlink:href="#DejaVuSans-2f" transform="translate(602.636719 0)"/>
      <use xlink:href="#DejaVuSans-4c" transform="translate(636.328125 0)"/>
      <use xlink:href="#DejaVuSans-29" transform="translate(692.041016 0)"/>
     </g>
    </g>
    <g id="line2d_78">
     <path d="M 1186.069614 133.269844 
L 1195.069614 133.269844 
L 1204.069614 133.269844 
" style="fill: none; stroke-dasharray: 16,4,2.5,4; stroke-dashoffset: 0; stroke: #0000ff; stroke-opacity: 0.8; stroke-width: 2.5"/>
    </g>
    <g id="text_44">
     <!-- p43 (25.0 g/L) -->
     <g transform="translate(1211.269614 136.419844) scale(0.09 -0.09)">
      <use xlink:href="#DejaVuSans-70"/>
      <use xlink:href="#DejaVuSans-34" transform="translate(63.476562 0)"/>
      <use xlink:href="#DejaVuSans-33" transform="translate(127.099609 0)"/>
      <use xlink:href="#DejaVuSans-20" transform="translate(190.722656 0)"/>
      <use xlink:href="#DejaVuSans-28" transform="translate(222.509766 0)"/>
      <use xlink:href="#DejaVuSans-32" transform="translate(261.523438 0)"/>
      <use xlink:href="#DejaVuSans-35" transform="translate(325.146484 0)"/>
      <use xlink:href="#DejaVuSans-2e" transform="translate(388.769531 0)"/>
      <use xlink:href="#DejaVuSans-30" transform="translate(420.556641 0)"/>
      <use xlink:href="#DejaVuSans-20" transform="translate(484.179688 0)"/>
      <use xlink:href="#DejaVuSans-67" transform="translate(515.966797 0)"/>
      <use xlink:href="#DejaVuSans-2f" transform="translate(579.443359 0)"/>
      <use xlink:href="#DejaVuSans-4c" transform="translate(613.134766 0)"/>
      <use xlink:href="#DejaVuSans-29" transform="translate(668.847656 0)"/>
     </g>
    </g>
    <g id="line2d_79">
     <path d="M 1186.069614 146.480156 
L 1195.069614 146.480156 
L 1204.069614 146.480156 
" style="fill: none; stroke-dasharray: 16,4,2.5,4; stroke-dashoffset: 0; stroke: #ffa500; stroke-opacity: 0.8; stroke-width: 2.5"/>
    </g>
    <g id="text_45">
     <!-- pylb (25.0 g/L) -->
     <g transform="translate(1211.269614 149.630156) scale(0.09 -0.09)">
      <use xlink:href="#DejaVuSans-70"/>
      <use xlink:href="#DejaVuSans-79" transform="translate(63.476562 0)"/>
      <use xlink:href="#DejaVuSans-6c" transform="translate(122.65625 0)"/>
      <use xlink:href="#DejaVuSans-62" transform="translate(150.439453 0)"/>
      <use xlink:href="#DejaVuSans-20" transform="translate(213.916016 0)"/>
      <use xlink:href="#DejaVuSans-28" transform="translate(245.703125 0)"/>
      <use xlink:href="#DejaVuSans-32" transform="translate(284.716797 0)"/>
      <use xlink:href="#DejaVuSans-35" transform="translate(348.339844 0)"/>
      <use xlink:href="#DejaVuSans-2e" transform="translate(411.962891 0)"/>
      <use xlink:href="#DejaVuSans-30" transform="translate(443.75 0)"/>
      <use xlink:href="#DejaVuSans-20" transform="translate(507.373047 0)"/>
      <use xlink:href="#DejaVuSans-67" transform="translate(539.160156 0)"/>
      <use xlink:href="#DejaVuSans-2f" transform="translate(602.636719 0)"/>
      <use xlink:href="#DejaVuSans-4c" transform="translate(636.328125 0)"/>
      <use xlink:href="#DejaVuSans-29" transform="translate(692.041016 0)"/>
     </g>
    </g>
    <g id="line2d_80">
     <path d="M 1186.069614 159.690469 
L 1195.069614 159.690469 
L 1204.069614 159.690469 
" style="fill: none; stroke-dasharray: 2,3.3; stroke-dashoffset: 0; stroke: #ff0000; stroke-width: 2"/>
    </g>
    <g id="text_46">
     <!-- Target (30 g/L) -->
     <g transform="translate(1211.269614 162.840469) scale(0.09 -0.09)">
      <use xlink:href="#DejaVuSans-54"/>
      <use xlink:href="#DejaVuSans-61" transform="translate(44.583984 0)"/>
      <use xlink:href="#DejaVuSans-72" transform="translate(105.863281 0)"/>
      <use xlink:href="#DejaVuSans-67" transform="translate(145.226562 0)"/>
      <use xlink:href="#DejaVuSans-65" transform="translate(208.703125 0)"/>
      <use xlink:href="#DejaVuSans-74" transform="translate(270.226562 0)"/>
      <use xlink:href="#DejaVuSans-20" transform="translate(309.435547 0)"/>
      <use xlink:href="#DejaVuSans-28" transform="translate(341.222656 0)"/>
      <use xlink:href="#DejaVuSans-33" transform="translate(380.236328 0)"/>
      <use xlink:href="#DejaVuSans-30" transform="translate(443.859375 0)"/>
      <use xlink:href="#DejaVuSans-20" transform="translate(507.482422 0)"/>
      <use xlink:href="#DejaVuSans-67" transform="translate(539.269531 0)"/>
      <use xlink:href="#DejaVuSans-2f" transform="translate(602.746094 0)"/>
      <use xlink:href="#DejaVuSans-4c" transform="translate(636.4375 0)"/>
      <use xlink:href="#DejaVuSans-29" transform="translate(692.150391 0)"/>
     </g>
    </g>
   </g>
  </g>
  <g id="text_47">
   <!-- DPA Production under different Biomass Concentration (5, 15, 25 g/L) and substrates -->
   <g transform="translate(257.67375 19.3575) scale(0.16 -0.16)">
    <defs>
     <path id="DejaVuSans-Bold-44" d="M 1791 3756 
L 1791 909 
L 2222 909 
Q 2959 909 3348 1275 
Q 3738 1641 3738 2338 
Q 3738 3031 3350 3393 
Q 2963 3756 2222 3756 
L 1791 3756 
z
M 588 4666 
L 1856 4666 
Q 2919 4666 3439 4514 
Q 3959 4363 4331 4000 
Q 4659 3684 4818 3271 
Q 4978 2859 4978 2338 
Q 4978 1809 4818 1395 
Q 4659 981 4331 666 
Q 3956 303 3431 151 
Q 2906 0 1856 0 
L 588 0 
L 588 4666 
z
" transform="scale(0.015625)"/>
     <path id="DejaVuSans-Bold-50" d="M 588 4666 
L 2584 4666 
Q 3475 4666 3951 4270 
Q 4428 3875 4428 3144 
Q 4428 2409 3951 2014 
Q 3475 1619 2584 1619 
L 1791 1619 
L 1791 0 
L 588 0 
L 588 4666 
z
M 1791 3794 
L 1791 2491 
L 2456 2491 
Q 2806 2491 2997 2661 
Q 3188 2831 3188 3144 
Q 3188 3456 2997 3625 
Q 2806 3794 2456 3794 
L 1791 3794 
z
" transform="scale(0.015625)"/>
     <path id="DejaVuSans-Bold-41" d="M 3419 850 
L 1538 850 
L 1241 0 
L 31 0 
L 1759 4666 
L 3194 4666 
L 4922 0 
L 3713 0 
L 3419 850 
z
M 1838 1716 
L 3116 1716 
L 2478 3572 
L 1838 1716 
z
" transform="scale(0.015625)"/>
     <path id="DejaVuSans-Bold-20" transform="scale(0.015625)"/>
     <path id="DejaVuSans-Bold-72" d="M 3138 2547 
Q 2991 2616 2845 2648 
Q 2700 2681 2553 2681 
Q 2122 2681 1889 2404 
Q 1656 2128 1656 1613 
L 1656 0 
L 538 0 
L 538 3500 
L 1656 3500 
L 1656 2925 
Q 1872 3269 2151 3426 
Q 2431 3584 2822 3584 
Q 2878 3584 2943 3579 
Q 3009 3575 3134 3559 
L 3138 2547 
z
" transform="scale(0.015625)"/>
     <path id="DejaVuSans-Bold-6f" d="M 2203 2784 
Q 1831 2784 1636 2517 
Q 1441 2250 1441 1747 
Q 1441 1244 1636 976 
Q 1831 709 2203 709 
Q 2569 709 2762 976 
Q 2956 1244 2956 1747 
Q 2956 2250 2762 2517 
Q 2569 2784 2203 2784 
z
M 2203 3584 
Q 3106 3584 3614 3096 
Q 4122 2609 4122 1747 
Q 4122 884 3614 396 
Q 3106 -91 2203 -91 
Q 1297 -91 786 396 
Q 275 884 275 1747 
Q 275 2609 786 3096 
Q 1297 3584 2203 3584 
z
" transform="scale(0.015625)"/>
     <path id="DejaVuSans-Bold-64" d="M 2919 2988 
L 2919 4863 
L 4044 4863 
L 4044 0 
L 2919 0 
L 2919 506 
Q 2688 197 2409 53 
Q 2131 -91 1766 -91 
Q 1119 -91 703 423 
Q 288 938 288 1747 
Q 288 2556 703 3070 
Q 1119 3584 1766 3584 
Q 2128 3584 2408 3439 
Q 2688 3294 2919 2988 
z
M 2181 722 
Q 2541 722 2730 984 
Q 2919 1247 2919 1747 
Q 2919 2247 2730 2509 
Q 2541 2772 2181 2772 
Q 1825 2772 1636 2509 
Q 1447 2247 1447 1747 
Q 1447 1247 1636 984 
Q 1825 722 2181 722 
z
" transform="scale(0.015625)"/>
     <path id="DejaVuSans-Bold-75" d="M 500 1363 
L 500 3500 
L 1625 3500 
L 1625 3150 
Q 1625 2866 1622 2436 
Q 1619 2006 1619 1863 
Q 1619 1441 1641 1255 
Q 1663 1069 1716 984 
Q 1784 875 1895 815 
Q 2006 756 2150 756 
Q 2500 756 2700 1025 
Q 2900 1294 2900 1772 
L 2900 3500 
L 4019 3500 
L 4019 0 
L 2900 0 
L 2900 506 
Q 2647 200 2364 54 
Q 2081 -91 1741 -91 
Q 1134 -91 817 281 
Q 500 653 500 1363 
z
" transform="scale(0.015625)"/>
     <path id="DejaVuSans-Bold-63" d="M 3366 3391 
L 3366 2478 
Q 3138 2634 2908 2709 
Q 2678 2784 2431 2784 
Q 1963 2784 1702 2511 
Q 1441 2238 1441 1747 
Q 1441 1256 1702 982 
Q 1963 709 2431 709 
Q 2694 709 2930 787 
Q 3166 866 3366 1019 
L 3366 103 
Q 3103 6 2833 -42 
Q 2563 -91 2291 -91 
Q 1344 -91 809 395 
Q 275 881 275 1747 
Q 275 2613 809 3098 
Q 1344 3584 2291 3584 
Q 2566 3584 2833 3536 
Q 3100 3488 3366 3391 
z
" transform="scale(0.015625)"/>
     <path id="DejaVuSans-Bold-74" d="M 1759 4494 
L 1759 3500 
L 2913 3500 
L 2913 2700 
L 1759 2700 
L 1759 1216 
Q 1759 972 1856 886 
Q 1953 800 2241 800 
L 2816 800 
L 2816 0 
L 1856 0 
Q 1194 0 917 276 
Q 641 553 641 1216 
L 641 2700 
L 84 2700 
L 84 3500 
L 641 3500 
L 641 4494 
L 1759 4494 
z
" transform="scale(0.015625)"/>
     <path id="DejaVuSans-Bold-69" d="M 538 3500 
L 1656 3500 
L 1656 0 
L 538 0 
L 538 3500 
z
M 538 4863 
L 1656 4863 
L 1656 3950 
L 538 3950 
L 538 4863 
z
" transform="scale(0.015625)"/>
     <path id="DejaVuSans-Bold-6e" d="M 4056 2131 
L 4056 0 
L 2931 0 
L 2931 347 
L 2931 1631 
Q 2931 2084 2911 2256 
Q 2891 2428 2841 2509 
Q 2775 2619 2662 2680 
Q 2550 2741 2406 2741 
Q 2056 2741 1856 2470 
Q 1656 2200 1656 1722 
L 1656 0 
L 538 0 
L 538 3500 
L 1656 3500 
L 1656 2988 
Q 1909 3294 2193 3439 
Q 2478 3584 2822 3584 
Q 3428 3584 3742 3212 
Q 4056 2841 4056 2131 
z
" transform="scale(0.015625)"/>
     <path id="DejaVuSans-Bold-65" d="M 4031 1759 
L 4031 1441 
L 1416 1441 
Q 1456 1047 1700 850 
Q 1944 653 2381 653 
Q 2734 653 3104 758 
Q 3475 863 3866 1075 
L 3866 213 
Q 3469 63 3072 -14 
Q 2675 -91 2278 -91 
Q 1328 -91 801 392 
Q 275 875 275 1747 
Q 275 2603 792 3093 
Q 1309 3584 2216 3584 
Q 3041 3584 3536 3087 
Q 4031 2591 4031 1759 
z
M 2881 2131 
Q 2881 2450 2695 2645 
Q 2509 2841 2209 2841 
Q 1884 2841 1681 2658 
Q 1478 2475 1428 2131 
L 2881 2131 
z
" transform="scale(0.015625)"/>
     <path id="DejaVuSans-Bold-66" d="M 2841 4863 
L 2841 4128 
L 2222 4128 
Q 1984 4128 1890 4042 
Q 1797 3956 1797 3744 
L 1797 3500 
L 2753 3500 
L 2753 2700 
L 1797 2700 
L 1797 0 
L 678 0 
L 678 2700 
L 122 2700 
L 122 3500 
L 678 3500 
L 678 3744 
Q 678 4316 997 4589 
Q 1316 4863 1984 4863 
L 2841 4863 
z
" transform="scale(0.015625)"/>
     <path id="DejaVuSans-Bold-42" d="M 2456 2859 
Q 2741 2859 2887 2984 
Q 3034 3109 3034 3353 
Q 3034 3594 2887 3720 
Q 2741 3847 2456 3847 
L 1791 3847 
L 1791 2859 
L 2456 2859 
z
M 2497 819 
Q 2859 819 3042 972 
Q 3225 1125 3225 1434 
Q 3225 1738 3044 1889 
Q 2863 2041 2497 2041 
L 1791 2041 
L 1791 819 
L 2497 819 
z
M 3616 2497 
Q 4003 2384 4215 2081 
Q 4428 1778 4428 1338 
Q 4428 663 3972 331 
Q 3516 0 2584 0 
L 588 0 
L 588 4666 
L 2394 4666 
Q 3366 4666 3802 4372 
Q 4238 4078 4238 3431 
Q 4238 3091 4078 2852 
Q 3919 2613 3616 2497 
z
" transform="scale(0.015625)"/>
     <path id="DejaVuSans-Bold-6d" d="M 3781 2919 
Q 3994 3244 4286 3414 
Q 4578 3584 4928 3584 
Q 5531 3584 5847 3212 
Q 6163 2841 6163 2131 
L 6163 0 
L 5038 0 
L 5038 1825 
Q 5041 1866 5042 1909 
Q 5044 1953 5044 2034 
Q 5044 2406 4934 2573 
Q 4825 2741 4581 2741 
Q 4263 2741 4089 2478 
Q 3916 2216 3909 1719 
L 3909 0 
L 2784 0 
L 2784 1825 
Q 2784 2406 2684 2573 
Q 2584 2741 2328 2741 
Q 2006 2741 1831 2477 
Q 1656 2213 1656 1722 
L 1656 0 
L 531 0 
L 531 3500 
L 1656 3500 
L 1656 2988 
Q 1863 3284 2130 3434 
Q 2397 3584 2719 3584 
Q 3081 3584 3359 3409 
Q 3638 3234 3781 2919 
z
" transform="scale(0.015625)"/>
     <path id="DejaVuSans-Bold-61" d="M 2106 1575 
Q 1756 1575 1579 1456 
Q 1403 1338 1403 1106 
Q 1403 894 1545 773 
Q 1688 653 1941 653 
Q 2256 653 2472 879 
Q 2688 1106 2688 1447 
L 2688 1575 
L 2106 1575 
z
M 3816 1997 
L 3816 0 
L 2688 0 
L 2688 519 
Q 2463 200 2181 54 
Q 1900 -91 1497 -91 
Q 953 -91 614 226 
Q 275 544 275 1050 
Q 275 1666 698 1953 
Q 1122 2241 2028 2241 
L 2688 2241 
L 2688 2328 
Q 2688 2594 2478 2717 
Q 2269 2841 1825 2841 
Q 1466 2841 1156 2769 
Q 847 2697 581 2553 
L 581 3406 
Q 941 3494 1303 3539 
Q 1666 3584 2028 3584 
Q 2975 3584 3395 3211 
Q 3816 2838 3816 1997 
z
" transform="scale(0.015625)"/>
     <path id="DejaVuSans-Bold-73" d="M 3272 3391 
L 3272 2541 
Q 2913 2691 2578 2766 
Q 2244 2841 1947 2841 
Q 1628 2841 1473 2761 
Q 1319 2681 1319 2516 
Q 1319 2381 1436 2309 
Q 1553 2238 1856 2203 
L 2053 2175 
Q 2913 2066 3209 1816 
Q 3506 1566 3506 1031 
Q 3506 472 3093 190 
Q 2681 -91 1863 -91 
Q 1516 -91 1145 -36 
Q 775 19 384 128 
L 384 978 
Q 719 816 1070 734 
Q 1422 653 1784 653 
Q 2113 653 2278 743 
Q 2444 834 2444 1013 
Q 2444 1163 2330 1236 
Q 2216 1309 1875 1350 
L 1678 1375 
Q 931 1469 631 1722 
Q 331 1975 331 2491 
Q 331 3047 712 3315 
Q 1094 3584 1881 3584 
Q 2191 3584 2531 3537 
Q 2872 3491 3272 3391 
z
" transform="scale(0.015625)"/>
     <path id="DejaVuSans-Bold-43" d="M 4288 256 
Q 3956 84 3597 -3 
Q 3238 -91 2847 -91 
Q 1681 -91 1000 561 
Q 319 1213 319 2328 
Q 319 3447 1000 4098 
Q 1681 4750 2847 4750 
Q 3238 4750 3597 4662 
Q 3956 4575 4288 4403 
L 4288 3438 
Q 3953 3666 3628 3772 
Q 3303 3878 2944 3878 
Q 2300 3878 1931 3465 
Q 1563 3053 1563 2328 
Q 1563 1606 1931 1193 
Q 2300 781 2944 781 
Q 3303 781 3628 887 
Q 3953 994 4288 1222 
L 4288 256 
z
" transform="scale(0.015625)"/>
     <path id="DejaVuSans-Bold-28" d="M 2413 -844 
L 1484 -844 
Q 1006 -72 778 623 
Q 550 1319 550 2003 
Q 550 2688 779 3389 
Q 1009 4091 1484 4856 
L 2413 4856 
Q 2013 4116 1813 3408 
Q 1613 2700 1613 2009 
Q 1613 1319 1811 609 
Q 2009 -100 2413 -844 
z
" transform="scale(0.015625)"/>
     <path id="DejaVuSans-Bold-35" d="M 678 4666 
L 3669 4666 
L 3669 3781 
L 1638 3781 
L 1638 3059 
Q 1775 3097 1914 3117 
Q 2053 3138 2203 3138 
Q 3056 3138 3531 2711 
Q 4006 2284 4006 1522 
Q 4006 766 3489 337 
Q 2972 -91 2053 -91 
Q 1656 -91 1267 -14 
Q 878 63 494 219 
L 494 1166 
Q 875 947 1217 837 
Q 1559 728 1863 728 
Q 2300 728 2551 942 
Q 2803 1156 2803 1522 
Q 2803 1891 2551 2103 
Q 2300 2316 1863 2316 
Q 1603 2316 1309 2248 
Q 1016 2181 678 2041 
L 678 4666 
z
" transform="scale(0.015625)"/>
     <path id="DejaVuSans-Bold-2c" d="M 653 1209 
L 1778 1209 
L 1778 256 
L 1006 -909 
L 341 -909 
L 653 256 
L 653 1209 
z
" transform="scale(0.015625)"/>
     <path id="DejaVuSans-Bold-31" d="M 750 831 
L 1813 831 
L 1813 3847 
L 722 3622 
L 722 4441 
L 1806 4666 
L 2950 4666 
L 2950 831 
L 4013 831 
L 4013 0 
L 750 0 
L 750 831 
z
" transform="scale(0.015625)"/>
     <path id="DejaVuSans-Bold-32" d="M 1844 884 
L 3897 884 
L 3897 0 
L 506 0 
L 506 884 
L 2209 2388 
Q 2438 2594 2547 2791 
Q 2656 2988 2656 3200 
Q 2656 3528 2436 3728 
Q 2216 3928 1850 3928 
Q 1569 3928 1234 3808 
Q 900 3688 519 3450 
L 519 4475 
Q 925 4609 1322 4679 
Q 1719 4750 2100 4750 
Q 2938 4750 3402 4381 
Q 3866 4013 3866 3353 
Q 3866 2972 3669 2642 
Q 3472 2313 2841 1759 
L 1844 884 
z
" transform="scale(0.015625)"/>
     <path id="DejaVuSans-Bold-67" d="M 2919 594 
Q 2688 288 2409 144 
Q 2131 0 1766 0 
Q 1125 0 706 504 
Q 288 1009 288 1791 
Q 288 2575 706 3076 
Q 1125 3578 1766 3578 
Q 2131 3578 2409 3434 
Q 2688 3291 2919 2981 
L 2919 3500 
L 4044 3500 
L 4044 353 
Q 4044 -491 3511 -936 
Q 2978 -1381 1966 -1381 
Q 1638 -1381 1331 -1331 
Q 1025 -1281 716 -1178 
L 716 -306 
Q 1009 -475 1290 -558 
Q 1572 -641 1856 -641 
Q 2406 -641 2662 -400 
Q 2919 -159 2919 353 
L 2919 594 
z
M 2181 2772 
Q 1834 2772 1640 2515 
Q 1447 2259 1447 1791 
Q 1447 1309 1634 1061 
Q 1822 813 2181 813 
Q 2531 813 2725 1069 
Q 2919 1325 2919 1791 
Q 2919 2259 2725 2515 
Q 2531 2772 2181 2772 
z
" transform="scale(0.015625)"/>
     <path id="DejaVuSans-Bold-2f" d="M 1644 4666 
L 2338 4666 
L 691 -594 
L 0 -594 
L 1644 4666 
z
" transform="scale(0.015625)"/>
     <path id="DejaVuSans-Bold-4c" d="M 588 4666 
L 1791 4666 
L 1791 909 
L 3903 909 
L 3903 0 
L 588 0 
L 588 4666 
z
" transform="scale(0.015625)"/>
     <path id="DejaVuSans-Bold-29" d="M 513 -844 
Q 913 -100 1113 609 
Q 1313 1319 1313 2009 
Q 1313 2700 1113 3408 
Q 913 4116 513 4856 
L 1441 4856 
Q 1916 4091 2145 3389 
Q 2375 2688 2375 2003 
Q 2375 1319 2147 623 
Q 1919 -72 1441 -844 
L 513 -844 
z
" transform="scale(0.015625)"/>
     <path id="DejaVuSans-Bold-62" d="M 2400 722 
Q 2759 722 2948 984 
Q 3138 1247 3138 1747 
Q 3138 2247 2948 2509 
Q 2759 2772 2400 2772 
Q 2041 2772 1848 2508 
Q 1656 2244 1656 1747 
Q 1656 1250 1848 986 
Q 2041 722 2400 722 
z
M 1656 2988 
Q 1888 3294 2169 3439 
Q 2450 3584 2816 3584 
Q 3463 3584 3878 3070 
Q 4294 2556 4294 1747 
Q 4294 938 3878 423 
Q 3463 -91 2816 -91 
Q 2450 -91 2169 54 
Q 1888 200 1656 506 
L 1656 0 
L 538 0 
L 538 4863 
L 1656 4863 
L 1656 2988 
z
" transform="scale(0.015625)"/>
    </defs>
    <use xlink:href="#DejaVuSans-Bold-44"/>
    <use xlink:href="#DejaVuSans-Bold-50" transform="translate(83.007812 0)"/>
    <use xlink:href="#DejaVuSans-Bold-41" transform="translate(147.173828 0)"/>
    <use xlink:href="#DejaVuSans-Bold-20" transform="translate(224.566406 0)"/>
    <use xlink:href="#DejaVuSans-Bold-50" transform="translate(259.380859 0)"/>
    <use xlink:href="#DejaVuSans-Bold-72" transform="translate(332.671875 0)"/>
    <use xlink:href="#DejaVuSans-Bold-6f" transform="translate(381.988281 0)"/>
    <use xlink:href="#DejaVuSans-Bold-64" transform="translate(450.689453 0)"/>
    <use xlink:href="#DejaVuSans-Bold-75" transform="translate(522.271484 0)"/>
    <use xlink:href="#DejaVuSans-Bold-63" transform="translate(593.462891 0)"/>
    <use xlink:href="#DejaVuSans-Bold-74" transform="translate(652.740234 0)"/>
    <use xlink:href="#DejaVuSans-Bold-69" transform="translate(700.542969 0)"/>
    <use xlink:href="#DejaVuSans-Bold-6f" transform="translate(734.820312 0)"/>
    <use xlink:href="#DejaVuSans-Bold-6e" transform="translate(803.521484 0)"/>
    <use xlink:href="#DejaVuSans-Bold-20" transform="translate(874.712891 0)"/>
    <use xlink:href="#DejaVuSans-Bold-75" transform="translate(909.527344 0)"/>
    <use xlink:href="#DejaVuSans-Bold-6e" transform="translate(980.71875 0)"/>
    <use xlink:href="#DejaVuSans-Bold-64" transform="translate(1051.910156 0)"/>
    <use xlink:href="#DejaVuSans-Bold-65" transform="translate(1123.492188 0)"/>
    <use xlink:href="#DejaVuSans-Bold-72" transform="translate(1191.314453 0)"/>
    <use xlink:href="#DejaVuSans-Bold-20" transform="translate(1240.630859 0)"/>
    <use xlink:href="#DejaVuSans-Bold-64" transform="translate(1275.445312 0)"/>
    <use xlink:href="#DejaVuSans-Bold-69" transform="translate(1347.027344 0)"/>
    <use xlink:href="#DejaVuSans-Bold-66" transform="translate(1381.304688 0)"/>
    <use xlink:href="#DejaVuSans-Bold-66" transform="translate(1424.810547 0)"/>
    <use xlink:href="#DejaVuSans-Bold-65" transform="translate(1468.316406 0)"/>
    <use xlink:href="#DejaVuSans-Bold-72" transform="translate(1536.138672 0)"/>
    <use xlink:href="#DejaVuSans-Bold-65" transform="translate(1585.455078 0)"/>
    <use xlink:href="#DejaVuSans-Bold-6e" transform="translate(1653.277344 0)"/>
    <use xlink:href="#DejaVuSans-Bold-74" transform="translate(1724.46875 0)"/>
    <use xlink:href="#DejaVuSans-Bold-20" transform="translate(1772.271484 0)"/>
    <use xlink:href="#DejaVuSans-Bold-42" transform="translate(1807.085938 0)"/>
    <use xlink:href="#DejaVuSans-Bold-69" transform="translate(1883.306641 0)"/>
    <use xlink:href="#DejaVuSans-Bold-6f" transform="translate(1917.583984 0)"/>
    <use xlink:href="#DejaVuSans-Bold-6d" transform="translate(1986.285156 0)"/>
    <use xlink:href="#DejaVuSans-Bold-61" transform="translate(2090.484375 0)"/>
    <use xlink:href="#DejaVuSans-Bold-73" transform="translate(2157.964844 0)"/>
    <use xlink:href="#DejaVuSans-Bold-73" transform="translate(2217.486328 0)"/>
    <use xlink:href="#DejaVuSans-Bold-20" transform="translate(2277.007812 0)"/>
    <use xlink:href="#DejaVuSans-Bold-43" transform="translate(2311.822266 0)"/>
    <use xlink:href="#DejaVuSans-Bold-6f" transform="translate(2385.210938 0)"/>
    <use xlink:href="#DejaVuSans-Bold-6e" transform="translate(2453.912109 0)"/>
    <use xlink:href="#DejaVuSans-Bold-63" transform="translate(2525.103516 0)"/>
    <use xlink:href="#DejaVuSans-Bold-65" transform="translate(2584.380859 0)"/>
    <use xlink:href="#DejaVuSans-Bold-6e" transform="translate(2652.203125 0)"/>
    <use xlink:href="#DejaVuSans-Bold-74" transform="translate(2723.394531 0)"/>
    <use xlink:href="#DejaVuSans-Bold-72" transform="translate(2771.197266 0)"/>
    <use xlink:href="#DejaVuSans-Bold-61" transform="translate(2820.513672 0)"/>
    <use xlink:href="#DejaVuSans-Bold-74" transform="translate(2887.994141 0)"/>
    <use xlink:href="#DejaVuSans-Bold-69" transform="translate(2935.796875 0)"/>
    <use xlink:href="#DejaVuSans-Bold-6f" transform="translate(2970.074219 0)"/>
    <use xlink:href="#DejaVuSans-Bold-6e" transform="translate(3038.775391 0)"/>
    <use xlink:href="#DejaVuSans-Bold-20" transform="translate(3109.966797 0)"/>
    <use xlink:href="#DejaVuSans-Bold-28" transform="translate(3144.78125 0)"/>
    <use xlink:href="#DejaVuSans-Bold-35" transform="translate(3190.484375 0)"/>
    <use xlink:href="#DejaVuSans-Bold-2c" transform="translate(3260.064453 0)"/>
    <use xlink:href="#DejaVuSans-Bold-20" transform="translate(3298.052734 0)"/>
    <use xlink:href="#DejaVuSans-Bold-31" transform="translate(3332.867188 0)"/>
    <use xlink:href="#DejaVuSans-Bold-35" transform="translate(3402.447266 0)"/>
    <use xlink:href="#DejaVuSans-Bold-2c" transform="translate(3472.027344 0)"/>
    <use xlink:href="#DejaVuSans-Bold-20" transform="translate(3510.015625 0)"/>
    <use xlink:href="#DejaVuSans-Bold-32" transform="translate(3544.830078 0)"/>
    <use xlink:href="#DejaVuSans-Bold-35" transform="translate(3614.410156 0)"/>
    <use xlink:href="#DejaVuSans-Bold-20" transform="translate(3683.990234 0)"/>
    <use xlink:href="#DejaVuSans-Bold-67" transform="translate(3718.804688 0)"/>
    <use xlink:href="#DejaVuSans-Bold-2f" transform="translate(3790.386719 0)"/>
    <use xlink:href="#DejaVuSans-Bold-4c" transform="translate(3826.910156 0)"/>
    <use xlink:href="#DejaVuSans-Bold-29" transform="translate(3890.630859 0)"/>
    <use xlink:href="#DejaVuSans-Bold-20" transform="translate(3936.333984 0)"/>
    <use xlink:href="#DejaVuSans-Bold-61" transform="translate(3971.148438 0)"/>
    <use xlink:href="#DejaVuSans-Bold-6e" transform="translate(4038.628906 0)"/>
    <use xlink:href="#DejaVuSans-Bold-64" transform="translate(4109.820312 0)"/>
    <use xlink:href="#DejaVuSans-Bold-20" transform="translate(4181.402344 0)"/>
    <use xlink:href="#DejaVuSans-Bold-73" transform="translate(4216.216797 0)"/>
    <use xlink:href="#DejaVuSans-Bold-75" transform="translate(4275.738281 0)"/>
    <use xlink:href="#DejaVuSans-Bold-62" transform="translate(4346.929688 0)"/>
    <use xlink:href="#DejaVuSans-Bold-73" transform="translate(4418.511719 0)"/>
    <use xlink:href="#DejaVuSans-Bold-74" transform="translate(4478.033203 0)"/>
    <use xlink:href="#DejaVuSans-Bold-72" transform="translate(4525.835938 0)"/>
    <use xlink:href="#DejaVuSans-Bold-61" transform="translate(4575.152344 0)"/>
    <use xlink:href="#DejaVuSans-Bold-74" transform="translate(4642.632812 0)"/>
    <use xlink:href="#DejaVuSans-Bold-65" transform="translate(4690.435547 0)"/>
    <use xlink:href="#DejaVuSans-Bold-73" transform="translate(4758.257812 0)"/>
   </g>
  </g>
 </g>
 <defs>
  <clipPath id="pa2059f1246">
   <rect x="42.53875" y="68.64" width="469.362727" height="334.36"/>
  </clipPath>
  <clipPath id="pc4329bc912">
   <rect x="685.13875" y="68.64" width="469.362727" height="334.36"/>
  </clipPath>
 </defs>
</svg>
